M48
; DRILL file {KiCad 7.0.1} date Tue Mar 21 23:46:56 2023
; FORMAT={-:-/ absolute / metric / decimal}
; #@! TF.CreationDate,2023-03-21T23:46:56-06:00
; #@! TF.GenerationSoftware,Kicad,Pcbnew,7.0.1
; #@! TF.FileFunction,Plated,1,2,PTH
FMAT,2
METRIC
; #@! TA.AperFunction,Plated,PTH,ViaDrill
T1C0.300
; #@! TA.AperFunction,Plated,PTH,ViaDrill
T2C0.400
; #@! TA.AperFunction,Plated,PTH,ComponentDrill
T3C0.800
; #@! TA.AperFunction,Plated,PTH,ComponentDrill
T4C1.000
; #@! TA.AperFunction,Plated,PTH,ComponentDrill
T5C1.016
; #@! TA.AperFunction,Plated,PTH,ComponentDrill
T6C1.100
; #@! TA.AperFunction,Plated,PTH,ComponentDrill
T7C1.520
; #@! TA.AperFunction,Plated,PTH,ComponentDrill
T8C1.600
%
G90
G05
T1
X128.905Y-147.955
T2
X46.99Y-95.885
X46.99Y-106.045
X48.26Y-114.3
X48.26Y-188.595
X51.435Y-124.46
X51.435Y-125.73
X51.435Y-127.0
X52.705Y-124.46
X52.705Y-125.73
X52.705Y-127.0
X53.34Y-70.485
X53.34Y-71.755
X53.34Y-73.025
X53.34Y-74.295
X53.34Y-75.565
X53.34Y-76.835
X53.34Y-78.105
X53.34Y-79.375
X53.34Y-80.645
X53.34Y-81.915
X53.34Y-83.185
X53.34Y-84.455
X53.34Y-85.725
X53.34Y-86.995
X53.34Y-88.265
X53.34Y-158.75
X53.34Y-160.02
X53.34Y-161.29
X53.975Y-124.46
X53.975Y-125.73
X53.975Y-127.0
X54.61Y-70.485
X54.61Y-71.755
X54.61Y-73.025
X54.61Y-74.295
X54.61Y-75.565
X54.61Y-76.835
X54.61Y-78.105
X54.61Y-79.375
X54.61Y-80.645
X54.61Y-81.915
X54.61Y-83.185
X54.61Y-84.455
X54.61Y-85.725
X54.61Y-86.995
X54.61Y-88.265
X54.61Y-158.75
X54.61Y-160.02
X54.61Y-161.29
X55.245Y-124.46
X55.245Y-125.73
X55.245Y-127.0
X55.88Y-63.5
X55.88Y-66.04
X55.88Y-68.58
X55.88Y-70.485
X55.88Y-71.755
X55.88Y-73.025
X55.88Y-74.295
X55.88Y-75.565
X55.88Y-76.835
X55.88Y-78.105
X55.88Y-79.375
X55.88Y-80.645
X55.88Y-81.915
X55.88Y-83.185
X55.88Y-84.455
X55.88Y-85.725
X55.88Y-86.995
X55.88Y-88.265
X55.88Y-158.75
X55.88Y-160.02
X55.88Y-161.29
X56.515Y-124.46
X56.515Y-125.73
X56.515Y-127.0
X57.15Y-70.485
X57.15Y-71.755
X57.15Y-73.025
X57.15Y-74.295
X57.15Y-75.565
X57.15Y-76.835
X57.15Y-78.105
X57.15Y-79.375
X57.15Y-80.645
X57.15Y-81.915
X57.15Y-83.185
X57.15Y-84.455
X57.15Y-85.725
X57.15Y-86.995
X57.15Y-88.265
X57.15Y-158.75
X57.15Y-160.02
X57.15Y-161.29
X57.785Y-124.46
X57.785Y-125.73
X57.785Y-127.0
X58.42Y-63.5
X58.42Y-66.04
X58.42Y-68.58
X58.42Y-70.485
X58.42Y-71.755
X58.42Y-73.025
X58.42Y-74.295
X58.42Y-75.565
X58.42Y-76.835
X58.42Y-78.105
X58.42Y-79.375
X58.42Y-80.645
X58.42Y-81.915
X58.42Y-83.185
X58.42Y-84.455
X58.42Y-85.725
X58.42Y-86.995
X58.42Y-88.265
X58.42Y-158.75
X58.42Y-160.02
X58.42Y-161.29
X59.055Y-120.015
X59.055Y-121.285
X59.055Y-122.555
X59.055Y-124.46
X59.055Y-125.73
X59.055Y-127.0
X59.69Y-70.485
X59.69Y-71.755
X59.69Y-73.025
X59.69Y-74.295
X59.69Y-75.565
X59.69Y-76.835
X59.69Y-78.105
X59.69Y-79.375
X59.69Y-80.645
X59.69Y-81.915
X59.69Y-83.185
X59.69Y-84.455
X59.69Y-85.725
X59.69Y-86.995
X59.69Y-88.265
X59.69Y-158.75
X59.69Y-160.02
X59.69Y-161.29
X60.325Y-120.015
X60.325Y-121.285
X60.325Y-122.555
X60.325Y-124.46
X60.325Y-125.73
X60.325Y-127.0
X60.96Y-63.5
X60.96Y-66.04
X60.96Y-68.58
X60.96Y-70.485
X60.96Y-71.755
X60.96Y-73.025
X60.96Y-74.295
X60.96Y-75.565
X60.96Y-76.835
X60.96Y-78.105
X60.96Y-79.375
X60.96Y-80.645
X60.96Y-81.915
X60.96Y-83.185
X60.96Y-84.455
X60.96Y-85.725
X60.96Y-86.995
X60.96Y-88.265
X60.96Y-154.94
X60.96Y-156.21
X60.96Y-157.48
X60.96Y-158.75
X60.96Y-160.02
X60.96Y-161.29
X61.595Y-120.015
X61.595Y-121.285
X61.595Y-122.555
X61.595Y-124.46
X61.595Y-125.73
X61.595Y-127.0
X61.595Y-184.785
X61.595Y-186.055
X61.595Y-187.325
X62.23Y-70.485
X62.23Y-71.755
X62.23Y-73.025
X62.23Y-74.295
X62.23Y-75.565
X62.23Y-76.835
X62.23Y-78.105
X62.23Y-79.375
X62.23Y-80.645
X62.23Y-81.915
X62.23Y-83.185
X62.23Y-84.455
X62.23Y-85.725
X62.23Y-86.995
X62.23Y-88.265
X62.23Y-154.94
X62.23Y-156.21
X62.23Y-157.48
X62.23Y-158.75
X62.23Y-160.02
X62.23Y-161.29
X62.865Y-120.015
X62.865Y-121.285
X62.865Y-122.555
X62.865Y-184.785
X62.865Y-186.055
X62.865Y-187.325
X63.5Y-70.485
X63.5Y-71.755
X63.5Y-73.025
X63.5Y-74.295
X63.5Y-75.565
X63.5Y-76.835
X63.5Y-78.105
X63.5Y-79.375
X63.5Y-80.645
X63.5Y-81.915
X63.5Y-83.185
X63.5Y-84.455
X63.5Y-85.725
X63.5Y-86.995
X63.5Y-88.265
X63.5Y-124.46
X63.5Y-127.0
X63.5Y-129.54
X63.5Y-154.94
X63.5Y-156.21
X63.5Y-157.48
X63.5Y-158.75
X63.5Y-160.02
X63.5Y-161.29
X64.135Y-120.015
X64.135Y-121.285
X64.135Y-122.555
X64.135Y-184.785
X64.135Y-186.055
X64.135Y-187.325
X64.77Y-125.73
X64.77Y-128.27
X65.405Y-120.015
X65.405Y-121.285
X65.405Y-122.555
X65.405Y-184.785
X65.405Y-186.055
X65.405Y-187.325
X66.04Y-124.46
X66.04Y-127.0
X66.04Y-129.54
X66.675Y-120.015
X66.675Y-121.285
X66.675Y-122.555
X66.675Y-184.785
X66.675Y-186.055
X66.675Y-187.325
X67.31Y-125.73
X67.31Y-128.27
X67.945Y-120.015
X67.945Y-121.285
X67.945Y-122.555
X67.945Y-184.785
X67.945Y-186.055
X67.945Y-187.325
X68.58Y-124.46
X68.58Y-127.0
X68.58Y-129.54
X68.58Y-168.91
X68.58Y-170.18
X68.58Y-171.45
X69.215Y-120.015
X69.215Y-121.285
X69.215Y-122.555
X69.215Y-184.785
X69.215Y-186.055
X69.215Y-187.325
X69.85Y-168.91
X69.85Y-170.18
X69.85Y-171.45
X70.485Y-184.785
X70.485Y-186.055
X70.485Y-187.325
X71.12Y-168.91
X71.12Y-170.18
X71.12Y-171.45
X71.755Y-184.785
X71.755Y-186.055
X71.755Y-187.325
X72.39Y-142.24
X72.39Y-143.51
X72.39Y-144.78
X72.39Y-168.91
X72.39Y-170.18
X72.39Y-171.45
X73.025Y-138.43
X73.025Y-139.7
X73.025Y-140.97
X73.66Y-142.24
X73.66Y-143.51
X73.66Y-144.78
X73.66Y-168.91
X73.66Y-170.18
X73.66Y-171.45
X74.295Y-138.43
X74.295Y-139.7
X74.295Y-140.97
X74.93Y-142.24
X74.93Y-143.51
X74.93Y-144.78
X74.93Y-168.91
X74.93Y-170.18
X74.93Y-171.45
X75.565Y-138.43
X75.565Y-139.7
X75.565Y-140.97
X76.2Y-142.24
X76.2Y-143.51
X76.2Y-144.78
X76.2Y-154.94
X76.2Y-156.21
X76.2Y-157.48
X76.2Y-168.91
X76.2Y-170.18
X76.2Y-171.45
X76.835Y-138.43
X76.835Y-139.7
X76.835Y-140.97
X77.47Y-142.24
X77.47Y-143.51
X77.47Y-144.78
X77.47Y-154.94
X77.47Y-156.21
X77.47Y-157.48
X77.47Y-168.91
X77.47Y-170.18
X77.47Y-171.45
X78.105Y-59.055
X78.105Y-138.43
X78.105Y-139.7
X78.105Y-140.97
X78.74Y-142.24
X78.74Y-143.51
X78.74Y-144.78
X78.74Y-154.94
X78.74Y-156.21
X78.74Y-157.48
X78.74Y-168.91
X78.74Y-170.18
X78.74Y-171.45
X78.74Y-184.785
X78.74Y-186.055
X78.74Y-187.325
X79.375Y-138.43
X79.375Y-139.7
X79.375Y-140.97
X80.01Y-184.785
X80.01Y-186.055
X80.01Y-187.325
X80.645Y-138.43
X80.645Y-139.7
X80.645Y-140.97
X81.28Y-123.19
X81.28Y-124.46
X81.28Y-125.73
X81.28Y-127.0
X81.28Y-128.27
X81.28Y-129.54
X81.28Y-184.785
X81.28Y-186.055
X81.28Y-187.325
X81.915Y-138.43
X81.915Y-139.7
X81.915Y-140.97
X82.55Y-123.19
X82.55Y-124.46
X82.55Y-125.73
X82.55Y-127.0
X82.55Y-128.27
X82.55Y-129.54
X82.55Y-184.785
X82.55Y-186.055
X82.55Y-187.325
X82.804Y-120.142
X83.058Y-121.666
X83.185Y-138.43
X83.185Y-139.7
X83.185Y-140.97
X83.566Y-118.618
X83.82Y-91.44
X83.82Y-92.71
X83.82Y-93.98
X83.82Y-95.25
X83.82Y-96.52
X83.82Y-97.79
X83.82Y-99.06
X83.82Y-100.33
X83.82Y-101.6
X83.82Y-102.87
X83.82Y-104.14
X83.82Y-105.41
X83.82Y-106.68
X83.82Y-107.95
X83.82Y-109.22
X83.82Y-110.49
X83.82Y-111.76
X83.82Y-113.03
X83.82Y-114.3
X83.82Y-115.57
X83.82Y-116.84
X83.82Y-123.19
X83.82Y-124.46
X83.82Y-125.73
X83.82Y-127.0
X83.82Y-128.27
X83.82Y-129.54
X83.82Y-184.785
X83.82Y-186.055
X83.82Y-187.325
X84.836Y-118.618
X85.09Y-91.44
X85.09Y-92.71
X85.09Y-93.98
X85.09Y-95.25
X85.09Y-96.52
X85.09Y-97.79
X85.09Y-99.06
X85.09Y-100.33
X85.09Y-101.6
X85.09Y-102.87
X85.09Y-104.14
X85.09Y-105.41
X85.09Y-106.68
X85.09Y-107.95
X85.09Y-109.22
X85.09Y-110.49
X85.09Y-111.76
X85.09Y-113.03
X85.09Y-114.3
X85.09Y-115.57
X85.09Y-116.84
X85.09Y-184.785
X85.09Y-186.055
X85.09Y-187.325
X86.36Y-91.44
X86.36Y-92.71
X86.36Y-93.98
X86.36Y-95.25
X86.36Y-96.52
X86.36Y-97.79
X86.36Y-99.06
X86.36Y-100.33
X86.36Y-101.6
X86.36Y-102.87
X86.36Y-104.14
X86.36Y-105.41
X86.36Y-106.68
X86.36Y-107.95
X86.36Y-109.22
X86.36Y-110.49
X86.36Y-111.76
X86.36Y-113.03
X86.36Y-114.3
X86.36Y-115.57
X86.36Y-116.84
X86.36Y-184.785
X86.36Y-186.055
X86.36Y-187.325
X87.63Y-184.785
X87.63Y-186.055
X87.63Y-187.325
X88.9Y-184.785
X88.9Y-186.055
X88.9Y-187.325
X90.17Y-115.57
X90.17Y-116.84
X90.17Y-118.11
X90.17Y-140.97
X90.17Y-142.24
X90.17Y-143.51
X91.44Y-115.57
X91.44Y-116.84
X91.44Y-118.11
X91.44Y-140.97
X91.44Y-142.24
X91.44Y-143.51
X92.71Y-115.57
X92.71Y-116.84
X92.71Y-118.11
X92.71Y-140.97
X92.71Y-142.24
X92.71Y-143.51
X94.615Y-58.42
X95.25Y-137.16
X95.25Y-160.655
X95.885Y-53.975
X95.885Y-55.245
X95.885Y-56.515
X97.155Y-53.975
X97.155Y-55.245
X97.155Y-56.515
X98.425Y-53.975
X98.425Y-55.245
X98.425Y-56.515
X98.425Y-175.26
X99.06Y-63.5
X99.06Y-64.77
X99.06Y-66.04
X99.06Y-67.31
X99.06Y-68.58
X99.06Y-69.85
X99.06Y-71.12
X99.06Y-72.39
X99.06Y-73.66
X99.06Y-74.93
X99.06Y-76.2
X99.06Y-77.47
X99.06Y-78.74
X99.06Y-80.01
X99.06Y-81.28
X99.06Y-82.55
X99.06Y-83.82
X99.06Y-85.09
X99.695Y-53.975
X99.695Y-55.245
X99.695Y-56.515
X99.695Y-114.935
X99.695Y-116.205
X100.33Y-63.5
X100.33Y-64.77
X100.33Y-66.04
X100.33Y-67.31
X100.33Y-68.58
X100.33Y-69.85
X100.33Y-71.12
X100.33Y-72.39
X100.33Y-73.66
X100.33Y-74.93
X100.33Y-76.2
X100.33Y-77.47
X100.33Y-78.74
X100.33Y-80.01
X100.33Y-81.28
X100.33Y-82.55
X100.33Y-83.82
X100.33Y-85.09
X100.965Y-53.975
X100.965Y-55.245
X100.965Y-56.515
X101.6Y-63.5
X101.6Y-64.77
X101.6Y-66.04
X101.6Y-67.31
X101.6Y-68.58
X101.6Y-69.85
X101.6Y-71.12
X101.6Y-72.39
X101.6Y-73.66
X101.6Y-74.93
X101.6Y-76.2
X101.6Y-77.47
X101.6Y-78.74
X101.6Y-80.01
X101.6Y-81.28
X101.6Y-82.55
X101.6Y-83.82
X101.6Y-85.09
X102.235Y-53.975
X102.235Y-55.245
X102.235Y-56.515
X103.505Y-53.975
X103.505Y-55.245
X103.505Y-56.515
X103.505Y-175.26
X104.14Y-119.38
X104.775Y-53.975
X104.775Y-55.245
X104.775Y-56.515
X105.41Y-111.76
X105.41Y-113.03
X105.41Y-140.97
X105.41Y-142.24
X105.41Y-143.51
X106.045Y-53.975
X106.045Y-55.245
X106.045Y-56.515
X106.68Y-111.76
X106.68Y-113.03
X106.68Y-140.97
X106.68Y-142.24
X106.68Y-143.51
X107.315Y-152.4
X107.315Y-168.91
X107.315Y-180.34
X107.95Y-113.03
X107.95Y-140.97
X107.95Y-142.24
X107.95Y-143.51
X109.22Y-156.21
X109.855Y-162.56
X112.395Y-180.34
X114.3Y-77.47
X114.3Y-78.74
X114.3Y-80.01
X114.3Y-81.28
X114.3Y-82.55
X114.3Y-83.82
X115.57Y-77.47
X115.57Y-78.74
X115.57Y-80.01
X115.57Y-81.28
X115.57Y-82.55
X115.57Y-83.82
X116.84Y-68.58
X116.84Y-71.12
X116.84Y-73.66
X116.84Y-77.47
X116.84Y-78.74
X116.84Y-80.01
X116.84Y-81.28
X116.84Y-82.55
X116.84Y-83.82
X117.619Y-156.066
X118.11Y-77.47
X118.11Y-78.74
X118.11Y-80.01
X118.11Y-81.28
X118.11Y-82.55
X118.11Y-83.82
X119.38Y-68.58
X119.38Y-71.12
X119.38Y-73.66
X119.38Y-77.47
X119.38Y-78.74
X119.38Y-80.01
X119.38Y-81.28
X119.38Y-82.55
X119.38Y-83.82
X120.015Y-115.659
X120.015Y-137.16
X120.015Y-161.29
X120.65Y-77.47
X120.65Y-78.74
X120.65Y-80.01
X120.65Y-81.28
X120.65Y-82.55
X120.65Y-83.82
X121.92Y-68.58
X121.92Y-71.12
X121.92Y-73.66
X121.92Y-77.47
X121.92Y-78.74
X121.92Y-80.01
X121.92Y-81.28
X121.92Y-82.55
X121.92Y-83.82
X121.92Y-107.95
X121.92Y-109.22
X123.19Y-77.47
X123.19Y-78.74
X123.19Y-80.01
X123.19Y-81.28
X123.19Y-82.55
X123.19Y-83.82
X123.19Y-107.95
X123.19Y-109.22
X123.19Y-161.29
X123.19Y-165.214
X123.825Y-114.3
X124.46Y-77.47
X124.46Y-78.74
X124.46Y-80.01
X124.46Y-81.28
X124.46Y-82.55
X124.46Y-83.82
X124.46Y-107.95
X124.46Y-109.22
X124.46Y-156.21
X124.46Y-166.37
X125.167Y-167.119
X125.73Y-139.7
X125.73Y-146.05
X125.73Y-154.305
X126.275Y-113.03
X126.365Y-167.869
X127.0Y-143.51
X127.0Y-161.29
X127.635Y-168.618
X128.27Y-158.65
X128.27Y-180.975
X128.905Y-113.665
X129.54Y-187.325
X129.54Y-188.595
X130.175Y-185.42
X133.35Y-162.56
X133.35Y-163.83
X133.35Y-191.77
X133.985Y-116.84
X133.985Y-150.495
X133.985Y-190.5
X134.62Y-68.58
X134.62Y-71.12
X134.62Y-73.66
X134.62Y-113.665
X134.62Y-162.56
X134.62Y-163.83
X135.255Y-151.765
X135.89Y-77.47
X135.89Y-78.74
X135.89Y-80.01
X135.89Y-81.28
X135.89Y-82.55
X135.89Y-83.82
X135.89Y-107.95
X135.89Y-109.22
X135.89Y-162.56
X135.89Y-163.83
X135.89Y-189.23
X137.16Y-68.58
X137.16Y-71.12
X137.16Y-73.66
X137.16Y-77.47
X137.16Y-78.74
X137.16Y-80.01
X137.16Y-81.28
X137.16Y-82.55
X137.16Y-83.82
X137.16Y-107.95
X137.16Y-109.22
X137.16Y-156.29
X137.16Y-158.115
X138.43Y-77.47
X138.43Y-78.74
X138.43Y-80.01
X138.43Y-81.28
X138.43Y-82.55
X138.43Y-83.82
X138.43Y-107.95
X138.43Y-109.22
X139.7Y-68.58
X139.7Y-71.12
X139.7Y-73.66
X139.7Y-81.28
X139.7Y-82.55
X139.7Y-83.82
X139.7Y-175.895
X140.45Y-176.658
X140.97Y-81.28
X140.97Y-82.55
X140.97Y-83.82
X140.97Y-149.77
X141.224Y-177.8
X142.24Y-81.28
X142.24Y-82.55
X142.24Y-83.82
X142.24Y-124.46
X142.24Y-139.7
X142.24Y-151.13
X142.24Y-157.48
X142.964Y-152.4
X142.964Y-156.21
X143.002Y-158.496
X143.51Y-81.28
X143.51Y-82.55
X143.51Y-83.82
X143.51Y-119.38
X144.145Y-123.19
X144.145Y-135.255
X144.145Y-161.29
X144.78Y-81.28
X144.78Y-82.55
X144.78Y-83.82
X144.78Y-152.4
X145.415Y-128.27
X146.05Y-81.28
X146.05Y-82.55
X146.05Y-83.82
X146.05Y-114.3
X146.05Y-115.57
X146.05Y-116.84
X146.685Y-161.29
X147.32Y-114.3
X147.32Y-115.57
X147.32Y-116.84
X147.32Y-118.11
X147.32Y-134.62
X147.32Y-149.86
X147.32Y-157.226
X147.32Y-179.07
X147.32Y-152.654
X148.59Y-114.3
X148.59Y-115.57
X148.59Y-116.84
X148.59Y-118.11
X148.59Y-138.43
X148.59Y-140.97
X148.59Y-175.26
X149.297Y-175.967
X149.365Y-146.05
X150.004Y-176.674
X150.139Y-149.86
X150.495Y-128.905
X150.495Y-134.62
X152.735Y-150.609
X153.67Y-135.076
X153.76Y-151.384
X154.94Y-156.21
X154.94Y-158.75
X156.845Y-164.35
X156.845Y-179.07
X158.115Y-118.11
X158.115Y-168.618
X158.75Y-173.99
X160.02Y-156.21
X160.02Y-157.48
X160.02Y-163.195
X161.29Y-121.92
X162.56Y-68.58
X162.56Y-71.12
X162.56Y-73.66
X162.56Y-114.3
X162.56Y-121.92
X162.56Y-134.62
X163.83Y-77.47
X163.83Y-78.74
X163.83Y-80.01
X163.83Y-81.28
X163.83Y-82.55
X163.83Y-83.82
X163.83Y-117.475
X164.084Y-153.67
X164.084Y-158.75
X164.236Y-174.625
X164.393Y-120.578
X164.465Y-136.525
X164.986Y-168.275
X165.1Y-68.58
X165.1Y-71.12
X165.1Y-73.66
X165.1Y-77.47
X165.1Y-78.74
X165.1Y-80.01
X165.1Y-81.28
X165.1Y-82.55
X165.1Y-83.82
X165.1Y-121.285
X165.1Y-123.825
X165.1Y-146.05
X165.189Y-142.875
X165.735Y-167.119
X165.735Y-179.705
X166.37Y-77.47
X166.37Y-78.74
X166.37Y-80.01
X166.37Y-81.28
X166.37Y-82.55
X166.37Y-83.82
X166.37Y-146.685
X166.37Y-149.86
X166.37Y-176.53
X166.37Y-177.8
X166.776Y-166.37
X167.371Y-118.23
X167.525Y-165.214
X167.568Y-175.332
X167.64Y-68.58
X167.64Y-71.12
X167.64Y-73.66
X167.64Y-81.28
X167.64Y-82.55
X167.64Y-83.82
X168.275Y-164.465
X168.275Y-173.355
X168.275Y-174.625
X168.275Y-186.69
X168.82Y-139.065
X168.82Y-145.415
X168.91Y-81.28
X168.91Y-82.55
X168.91Y-83.82
X168.91Y-116.84
X168.91Y-123.19
X168.91Y-124.46
X168.91Y-125.73
X169.545Y-137.885
X169.545Y-180.975
X169.545Y-184.785
X170.18Y-81.28
X170.18Y-82.55
X170.18Y-83.82
X170.18Y-109.22
X170.18Y-110.49
X170.18Y-111.76
X170.18Y-123.19
X170.18Y-124.46
X170.18Y-125.73
X170.18Y-161.925
X171.45Y-81.28
X171.45Y-82.55
X171.45Y-83.82
X171.45Y-109.22
X171.45Y-110.49
X171.45Y-111.76
X171.45Y-123.19
X171.45Y-124.46
X171.45Y-125.73
X172.72Y-81.28
X172.72Y-82.55
X172.72Y-83.82
X172.72Y-109.22
X172.72Y-110.49
X172.72Y-111.76
X172.72Y-115.57
X172.72Y-116.84
X173.99Y-81.28
X173.99Y-82.55
X173.99Y-83.82
X173.99Y-115.57
X173.99Y-116.84
X175.348Y-153.581
X175.895Y-137.795
X175.895Y-167.73
X175.895Y-168.739
X176.53Y-148.59
X176.53Y-154.305
X177.165Y-183.515
X177.254Y-149.297
X177.254Y-153.035
X178.435Y-121.285
X179.07Y-165.735
X179.705Y-159.93
X180.25Y-162.649
X180.975Y-151.13
X180.975Y-184.785
X181.61Y-115.57
X181.61Y-116.84
X181.61Y-142.24
X181.61Y-143.51
X182.245Y-151.13
X182.245Y-180.975
X182.88Y-68.58
X182.88Y-71.12
X182.88Y-73.66
X182.88Y-109.22
X182.88Y-110.49
X182.88Y-111.76
X182.88Y-115.57
X182.88Y-116.84
X182.88Y-142.24
X182.88Y-143.51
X183.515Y-151.765
X183.515Y-178.435
X184.15Y-109.22
X184.15Y-110.49
X184.15Y-111.76
X184.785Y-152.4
X184.785Y-178.435
X185.42Y-68.58
X185.42Y-71.12
X185.42Y-73.66
X185.42Y-77.47
X185.42Y-78.74
X185.42Y-80.01
X185.42Y-109.22
X185.42Y-110.49
X185.42Y-111.76
X185.51Y-154.305
X186.055Y-186.245
X186.275Y-152.304
X186.69Y-77.47
X186.69Y-78.74
X186.69Y-80.01
X186.69Y-146.685
X187.96Y-71.12
X187.96Y-73.66
X187.96Y-77.47
X187.96Y-78.74
X187.96Y-80.01
X187.96Y-145.415
X188.595Y-61.595
X188.595Y-62.865
X188.595Y-64.135
X188.595Y-65.405
X188.595Y-66.675
X188.595Y-67.945
X189.23Y-146.685
X189.23Y-153.76
X189.23Y-160.655
X189.865Y-61.595
X189.865Y-62.865
X189.865Y-64.135
X189.865Y-65.405
X189.865Y-66.675
X189.865Y-67.945
X191.135Y-61.595
X191.135Y-62.865
X191.135Y-64.135
X191.135Y-65.405
X191.135Y-66.675
X191.135Y-67.945
X192.405Y-61.595
X192.405Y-62.865
X192.405Y-64.135
X192.405Y-65.405
X192.405Y-66.675
X192.405Y-67.945
X193.04Y-156.21
X193.04Y-176.53
X193.04Y-179.07
X193.675Y-61.595
X193.675Y-62.865
X193.675Y-64.135
X193.675Y-65.405
X193.675Y-66.675
X193.675Y-67.945
X194.31Y-113.03
X194.31Y-114.3
X194.31Y-115.57
X194.31Y-156.21
X194.31Y-176.53
X194.31Y-177.8
X194.31Y-179.07
X194.855Y-166.199
X194.945Y-61.595
X194.945Y-62.865
X194.945Y-64.135
X194.945Y-65.405
X194.945Y-66.675
X194.945Y-67.945
X194.945Y-172.606
X195.58Y-113.03
X195.58Y-114.3
X195.58Y-115.57
X195.58Y-156.21
X195.58Y-162.649
X195.58Y-176.53
X195.58Y-179.07
X196.215Y-61.595
X196.215Y-62.865
X196.215Y-64.135
X196.215Y-65.405
X196.215Y-66.675
X196.215Y-67.945
X196.215Y-172.085
X196.85Y-113.03
X196.85Y-114.3
X196.85Y-115.57
X196.85Y-176.53
X196.85Y-177.8
X196.85Y-179.07
X197.485Y-61.595
X197.485Y-62.865
X197.485Y-64.135
X197.485Y-65.405
X197.485Y-66.675
X197.485Y-67.945
X197.485Y-165.271
X198.12Y-137.795
X198.12Y-176.53
X198.12Y-179.07
X198.755Y-61.595
X198.755Y-62.865
X198.755Y-64.135
X198.755Y-65.405
X198.755Y-66.675
X198.755Y-67.945
X202.475Y-137.249
X202.565Y-152.304
X203.2Y-148.184
X205.016Y-116.84
X205.74Y-148.184
X206.375Y-159.385
X206.375Y-163.83
X206.375Y-173.355
X206.895Y-179.705
X207.01Y-115.57
X207.01Y-148.184
X207.645Y-171.45
X207.645Y-180.57
X208.28Y-156.21
X208.28Y-169.545
X208.915Y-179.07
X209.55Y-135.8
X209.55Y-154.94
X209.665Y-170.18
X209.665Y-177.8
X210.82Y-68.58
X210.82Y-71.12
X210.82Y-73.66
X210.82Y-77.47
X210.82Y-78.74
X210.82Y-80.01
X210.82Y-81.28
X210.82Y-82.55
X210.82Y-83.82
X211.455Y-169.545
X211.455Y-176.53
X211.582Y-112.522
X212.09Y-77.47
X212.09Y-78.74
X212.09Y-80.01
X212.09Y-81.28
X212.09Y-82.55
X212.09Y-83.82
X212.09Y-114.3
X212.09Y-136.525
X212.09Y-154.94
X212.09Y-185.42
X213.36Y-68.58
X213.36Y-71.12
X213.36Y-73.66
X213.36Y-77.47
X213.36Y-78.74
X213.36Y-80.01
X213.36Y-81.28
X213.36Y-82.55
X213.36Y-83.82
X213.36Y-149.225
X214.63Y-77.47
X214.63Y-78.74
X214.63Y-80.01
X214.63Y-81.28
X214.63Y-82.55
X214.63Y-83.82
X214.63Y-146.05
X214.63Y-149.225
X214.63Y-152.4
X214.63Y-184.543
X215.9Y-68.58
X215.9Y-71.12
X215.9Y-73.66
X215.9Y-77.47
X215.9Y-78.74
X215.9Y-80.01
X215.9Y-81.28
X215.9Y-82.55
X215.9Y-83.82
X215.9Y-113.03
X215.9Y-116.205
X215.9Y-157.48
X215.927Y-153.145
X217.17Y-77.47
X217.17Y-78.74
X217.17Y-80.01
X217.17Y-81.28
X217.17Y-82.55
X217.17Y-83.82
X217.17Y-145.415
X217.17Y-153.754
X217.17Y-158.115
X217.17Y-183.775
X217.7Y-168.423
X217.715Y-171.45
X217.932Y-106.426
X217.932Y-108.966
X217.932Y-111.506
X218.44Y-77.47
X218.44Y-78.74
X218.44Y-80.01
X218.44Y-81.28
X218.44Y-82.55
X218.44Y-83.82
X218.44Y-157.48
X218.44Y-161.925
X218.44Y-167.698
X218.44Y-172.72
X219.202Y-116.332
X219.71Y-77.47
X219.71Y-78.74
X219.71Y-80.01
X219.71Y-81.28
X219.71Y-82.55
X219.71Y-83.82
X219.71Y-144.145
X219.71Y-166.37
X219.71Y-172.085
X220.472Y-106.426
X220.472Y-108.966
X220.472Y-111.506
X220.98Y-77.47
X220.98Y-78.74
X220.98Y-80.01
X220.98Y-81.28
X220.98Y-82.55
X220.98Y-83.82
X222.25Y-77.47
X222.25Y-78.74
X222.25Y-80.01
X222.25Y-143.51
X223.012Y-106.426
X223.012Y-108.966
X223.012Y-111.506
X223.52Y-77.47
X223.52Y-78.74
X223.52Y-80.01
X224.155Y-137.16
X224.79Y-77.47
X224.79Y-78.74
X224.79Y-80.01
X224.79Y-162.56
X224.79Y-163.83
X225.425Y-174.714
X226.06Y-162.56
X226.06Y-163.83
X226.695Y-129.54
X226.695Y-135.89
X227.665Y-151.855
X227.965Y-173.99
X228.6Y-128.905
X228.6Y-135.165
X228.6Y-137.795
X229.235Y-174.625
X229.87Y-151.765
X230.505Y-128.27
X231.14Y-68.58
X231.14Y-71.12
X231.14Y-73.66
X232.156Y-106.426
X232.156Y-108.966
X232.156Y-111.506
X232.41Y-77.47
X232.41Y-78.74
X232.41Y-80.01
X232.41Y-130.175
X232.41Y-151.13
X233.045Y-168.275
X233.68Y-68.58
X233.68Y-71.12
X233.68Y-73.66
X233.68Y-77.47
X233.68Y-78.74
X233.68Y-80.01
X233.68Y-129.54
X233.68Y-135.89
X234.696Y-106.426
X234.696Y-108.966
X234.696Y-111.506
X234.95Y-77.47
X234.95Y-78.74
X234.95Y-80.01
X234.95Y-151.13
X236.22Y-68.58
X236.22Y-71.12
X236.22Y-73.66
X236.22Y-135.255
X236.22Y-162.56
X236.22Y-163.83
X237.236Y-106.426
X237.236Y-108.966
X237.236Y-111.506
X237.49Y-162.56
X237.49Y-163.83
X238.76Y-138.43
X240.03Y-60.325
X240.03Y-61.595
X240.03Y-62.865
X240.03Y-64.135
X240.03Y-65.405
X240.03Y-66.675
X240.67Y-163.2
X241.3Y-60.325
X241.3Y-61.595
X241.3Y-62.865
X241.3Y-64.135
X241.3Y-65.405
X241.3Y-66.675
X241.3Y-113.335
X241.3Y-116.205
X241.3Y-152.489
X242.57Y-60.325
X242.57Y-61.595
X242.57Y-62.865
X242.57Y-64.135
X242.57Y-65.405
X242.57Y-66.675
X243.205Y-153.67
X243.205Y-162.451
X243.84Y-60.325
X243.84Y-61.595
X243.84Y-62.865
X243.84Y-64.135
X243.84Y-65.405
X243.84Y-66.675
X245.11Y-60.325
X245.11Y-61.595
X245.11Y-62.865
X245.11Y-64.135
X245.11Y-65.405
X245.11Y-66.675
X245.745Y-158.75
X245.745Y-161.81
X246.38Y-60.325
X246.38Y-61.595
X246.38Y-62.865
X246.38Y-64.135
X246.38Y-65.405
X246.38Y-66.675
X247.015Y-135.89
X247.65Y-60.325
X247.65Y-61.595
X247.65Y-62.865
X247.65Y-64.135
X247.65Y-65.405
X247.65Y-66.675
X247.65Y-113.03
X247.65Y-114.3
X247.65Y-115.57
X248.285Y-159.385
X248.285Y-161.175
X248.92Y-60.325
X248.92Y-61.595
X248.92Y-62.865
X248.92Y-64.135
X248.92Y-65.405
X248.92Y-66.675
X248.92Y-113.03
X248.92Y-114.3
X248.92Y-115.57
X249.555Y-136.704
X250.19Y-60.325
X250.19Y-61.595
X250.19Y-62.865
X250.19Y-64.135
X250.19Y-65.405
X250.19Y-66.675
X250.19Y-113.03
X250.19Y-114.3
X250.19Y-115.57
X250.825Y-160.02
X251.206Y-165.862
X251.206Y-167.132
X252.476Y-165.862
X252.476Y-167.132
X253.365Y-160.54
X254.0Y-77.47
X254.0Y-78.74
X254.0Y-80.01
X254.0Y-165.1
X254.0Y-166.37
X254.0Y-167.64
X254.635Y-149.225
X255.27Y-77.47
X255.27Y-78.74
X255.27Y-80.01
X255.27Y-165.1
X255.27Y-166.37
X255.27Y-167.64
X256.54Y-77.47
X256.54Y-78.74
X256.54Y-80.01
X256.54Y-151.219
X256.54Y-165.1
X256.54Y-166.37
X256.54Y-167.64
X257.175Y-135.255
X257.302Y-117.348
X257.556Y-115.57
X257.81Y-77.47
X257.81Y-78.74
X257.81Y-80.01
X257.81Y-165.1
X257.81Y-166.37
X257.81Y-167.64
X259.08Y-77.47
X259.08Y-78.74
X259.08Y-80.01
X259.08Y-165.1
X259.08Y-166.37
X259.08Y-167.64
X260.35Y-77.47
X260.35Y-78.74
X260.35Y-80.01
X260.35Y-165.1
X260.35Y-166.37
X260.35Y-167.64
X261.62Y-77.47
X261.62Y-78.74
X261.62Y-80.01
X261.62Y-165.1
X261.62Y-166.37
X261.62Y-167.64
X262.89Y-77.47
X262.89Y-78.74
X262.89Y-80.01
X262.89Y-165.1
X262.89Y-166.37
X262.89Y-167.64
X263.443Y-114.83
X264.16Y-68.58
X264.16Y-71.12
X264.16Y-73.66
X264.16Y-77.47
X264.16Y-78.74
X264.16Y-80.01
X264.16Y-165.1
X264.16Y-166.37
X264.16Y-167.64
X264.795Y-116.84
X264.795Y-120.65
X264.795Y-149.86
X264.922Y-113.03
X265.43Y-77.47
X265.43Y-78.74
X265.43Y-80.01
X266.065Y-151.13
X266.192Y-165.608
X266.192Y-166.878
X266.7Y-68.58
X266.7Y-71.12
X266.7Y-73.66
X266.7Y-77.47
X266.7Y-78.74
X266.7Y-80.01
X266.7Y-135.98
X266.954Y-118.364
X267.208Y-113.284
X267.462Y-165.608
X267.462Y-166.878
X267.97Y-77.47
X267.97Y-78.74
X267.97Y-80.01
X268.986Y-118.11
X269.24Y-68.58
X269.24Y-71.12
X269.24Y-73.66
X273.05Y-107.95
X273.05Y-109.22
X273.05Y-110.49
X274.32Y-107.95
X274.32Y-109.22
X274.32Y-110.49
X274.32Y-146.139
X274.32Y-147.32
X274.955Y-135.255
X275.5Y-145.505
X275.59Y-107.95
X275.59Y-109.22
X275.59Y-110.49
X275.59Y-170.815
X276.225Y-144.234
X276.225Y-168.275
X277.495Y-142.24
X277.495Y-169.545
X278.219Y-143.51
X278.765Y-169.268
X279.4Y-136.704
X280.035Y-120.015
X281.305Y-120.015
X281.305Y-137.795
X281.305Y-150.319
X281.94Y-60.325
X282.575Y-120.015
X283.21Y-61.595
X283.845Y-137.795
X283.845Y-149.569
X285.496Y-109.22
X286.258Y-174.752
X286.385Y-148.82
X287.02Y-114.046
X287.655Y-150.495
X288.925Y-148.044
X289.56Y-68.58
X289.56Y-71.12
X289.56Y-73.66
X289.56Y-144.145
X290.195Y-148.044
X290.83Y-109.22
X290.83Y-110.49
X292.1Y-68.58
X292.1Y-71.12
X292.1Y-73.66
X292.1Y-109.22
X292.1Y-110.49
X292.1Y-111.76
X292.735Y-146.595
X292.735Y-151.13
X293.37Y-109.22
X293.37Y-110.49
X293.37Y-111.76
X294.64Y-68.58
X294.64Y-71.12
X294.64Y-73.66
X296.545Y-68.58
X296.545Y-69.85
X296.545Y-71.12
X296.545Y-72.39
X296.545Y-73.66
X296.545Y-74.93
X296.545Y-137.795
X297.815Y-68.58
X297.815Y-69.85
X297.815Y-71.12
X297.815Y-72.39
X297.815Y-73.66
X297.815Y-74.93
X298.45Y-116.84
X298.45Y-139.065
X298.45Y-148.044
X299.085Y-68.58
X299.085Y-69.85
X299.085Y-71.12
X299.085Y-72.39
X299.085Y-73.66
X299.085Y-74.93
X300.355Y-68.58
X300.355Y-69.85
X300.355Y-71.12
X300.355Y-72.39
X300.355Y-73.66
X300.355Y-74.93
X300.482Y-114.554
X301.625Y-68.58
X301.625Y-69.85
X301.625Y-71.12
X301.625Y-72.39
X301.625Y-73.66
X301.625Y-74.93
X302.895Y-68.58
X302.895Y-69.85
X302.895Y-71.12
X302.895Y-72.39
X302.895Y-73.66
X302.895Y-74.93
X303.276Y-117.348
X304.165Y-68.58
X304.165Y-69.85
X304.165Y-71.12
X304.165Y-72.39
X304.165Y-73.66
X304.165Y-74.93
X304.784Y-184.524
X304.8Y-114.808
X304.8Y-116.84
X305.424Y-185.292
X305.435Y-68.58
X305.435Y-69.85
X305.435Y-71.12
X305.435Y-72.39
X305.435Y-73.66
X305.435Y-74.93
X305.785Y-183.775
X306.07Y-134.62
X306.07Y-186.055
X306.705Y-68.58
X306.705Y-69.85
X306.705Y-71.12
X306.705Y-72.39
X306.705Y-73.66
X306.705Y-74.93
X307.34Y-114.3
X307.34Y-118.834
X307.975Y-142.24
X308.61Y-118.11
X308.61Y-145.415
X311.785Y-118.11
X312.42Y-111.76
X312.42Y-113.03
X312.42Y-114.3
X313.69Y-111.76
X313.69Y-113.03
X313.69Y-114.3
X314.96Y-111.76
X314.96Y-113.03
X314.96Y-114.3
X316.23Y-157.48
X317.5Y-158.115
X320.04Y-82.55
X320.04Y-83.82
X320.04Y-85.09
X320.548Y-115.824
X321.31Y-82.55
X321.31Y-83.82
X321.31Y-85.09
X322.58Y-82.55
X322.58Y-83.82
X322.58Y-85.09
X323.85Y-82.55
X323.85Y-83.82
X323.85Y-85.09
X325.12Y-76.2
X325.12Y-78.74
X325.12Y-81.28
X325.12Y-82.55
X325.12Y-83.82
X325.12Y-85.09
X325.628Y-105.664
X326.39Y-82.55
X326.39Y-83.82
X326.39Y-85.09
X327.025Y-154.94
X327.025Y-170.815
X327.152Y-116.84
X327.66Y-76.2
X327.66Y-78.74
X327.66Y-81.28
X327.66Y-82.55
X327.66Y-83.82
X327.66Y-85.09
X328.295Y-160.02
X328.295Y-168.275
X328.676Y-115.824
X328.93Y-82.55
X328.93Y-83.82
X328.93Y-85.09
X328.93Y-139.065
X328.93Y-140.335
X328.93Y-141.605
X329.565Y-165.1
X329.565Y-169.268
X329.946Y-156.718
X330.2Y-76.2
X330.2Y-78.74
X330.2Y-81.28
X330.2Y-82.55
X330.2Y-83.82
X330.2Y-85.09
X330.2Y-139.065
X330.2Y-140.335
X330.2Y-141.605
X330.708Y-161.29
X331.216Y-166.37
X331.47Y-60.325
X331.47Y-139.065
X331.47Y-140.335
X331.47Y-141.605
X331.724Y-161.29
X331.978Y-150.876
X332.232Y-166.37
X332.74Y-139.065
X332.74Y-140.335
X332.74Y-141.605
X332.74Y-161.29
X333.248Y-166.37
X334.01Y-139.065
X334.01Y-140.335
X334.01Y-141.605
X335.28Y-139.065
X335.28Y-140.335
X335.28Y-141.605
X336.55Y-139.065
X336.55Y-140.335
X336.55Y-141.605
X337.82Y-139.065
X337.82Y-140.335
X337.82Y-141.605
X339.09Y-139.065
X339.09Y-140.335
X339.09Y-141.605
X340.36Y-133.35
X340.36Y-134.62
X340.36Y-135.89
X341.63Y-133.35
X341.63Y-134.62
X341.63Y-135.89
X342.265Y-60.96
X342.9Y-133.35
X342.9Y-134.62
X342.9Y-135.89
X353.06Y-171.97
X354.33Y-173.469
X355.6Y-172.72
X360.045Y-179.82
X360.965Y-179.239
X361.95Y-178.571
X361.95Y-83.185
X361.95Y-84.455
X361.95Y-85.725
X361.95Y-86.995
X361.95Y-88.265
X361.95Y-89.535
X361.95Y-90.805
X361.95Y-92.075
X361.95Y-93.345
X361.95Y-94.615
X361.95Y-95.885
X361.95Y-97.155
X361.95Y-98.425
X361.95Y-99.695
X361.95Y-100.965
X361.95Y-102.235
X361.95Y-103.505
X361.95Y-104.775
X362.585Y-177.8
X363.22Y-76.2
X363.22Y-78.74
X363.22Y-81.28
X363.22Y-83.185
X363.22Y-84.455
X363.22Y-85.725
X363.22Y-86.995
X363.22Y-88.265
X363.22Y-89.535
X363.22Y-90.805
X363.22Y-92.075
X363.22Y-93.345
X363.22Y-94.615
X363.22Y-95.885
X363.22Y-97.155
X363.22Y-98.425
X363.22Y-99.695
X363.22Y-100.965
X363.22Y-102.235
X363.22Y-103.505
X363.22Y-104.775
X364.49Y-83.185
X364.49Y-84.455
X364.49Y-85.725
X364.49Y-86.995
X364.49Y-88.265
X364.49Y-89.535
X364.49Y-90.805
X364.49Y-92.075
X364.49Y-93.345
X364.49Y-94.615
X364.49Y-95.885
X364.49Y-97.155
X364.49Y-98.425
X364.49Y-99.695
X364.49Y-100.965
X364.49Y-102.235
X364.49Y-103.505
X364.49Y-104.775
X365.76Y-76.2
X365.76Y-78.74
X365.76Y-81.28
X365.76Y-83.185
X365.76Y-84.455
X365.76Y-85.725
X365.76Y-86.995
X365.76Y-88.265
X365.76Y-89.535
X365.76Y-90.805
X365.76Y-92.075
X365.76Y-93.345
X365.76Y-94.615
X365.76Y-95.885
X365.76Y-97.155
X365.76Y-98.425
X365.76Y-99.695
X365.76Y-100.965
X365.76Y-102.235
X365.76Y-103.505
X365.76Y-104.775
X367.03Y-83.185
X367.03Y-84.455
X367.03Y-85.725
X367.03Y-86.995
X367.03Y-88.265
X367.03Y-89.535
X367.03Y-90.805
X367.03Y-92.075
X367.03Y-93.345
X367.03Y-94.615
X367.03Y-95.885
X367.03Y-97.155
X367.03Y-98.425
X367.03Y-99.695
X367.03Y-100.965
X367.03Y-102.235
X367.03Y-103.505
X367.03Y-104.775
X368.3Y-76.2
X368.3Y-78.74
X368.3Y-81.28
X368.3Y-83.185
X368.3Y-84.455
X368.3Y-85.725
X368.3Y-86.995
X368.3Y-88.265
X368.3Y-89.535
X368.3Y-90.805
X368.3Y-92.075
X368.3Y-93.345
X368.3Y-94.615
X368.3Y-95.885
X368.3Y-97.155
X368.3Y-98.425
X368.3Y-99.695
X368.3Y-100.965
X368.3Y-102.235
X368.3Y-103.505
X368.3Y-104.775
X369.57Y-83.185
X369.57Y-84.455
X369.57Y-85.725
X369.57Y-86.995
X369.57Y-88.265
X369.57Y-89.535
X369.57Y-90.805
X369.57Y-92.075
X369.57Y-93.345
X369.57Y-94.615
X369.57Y-95.885
X369.57Y-97.155
X369.57Y-98.425
X369.57Y-99.695
X369.57Y-100.965
X369.57Y-102.235
X369.57Y-103.505
X369.57Y-104.775
X370.84Y-83.185
X370.84Y-84.455
X370.84Y-85.725
X370.84Y-86.995
X370.84Y-88.265
X370.84Y-89.535
X370.84Y-90.805
X370.84Y-92.075
X370.84Y-93.345
X370.84Y-94.615
X370.84Y-95.885
X370.84Y-97.155
X370.84Y-98.425
X370.84Y-99.695
X370.84Y-100.965
X370.84Y-102.235
X370.84Y-103.505
X370.84Y-104.775
X372.11Y-83.185
X372.11Y-84.455
X372.11Y-85.725
X372.11Y-86.995
X372.11Y-88.265
X372.11Y-89.535
X372.11Y-90.805
X372.11Y-92.075
X372.11Y-93.345
X372.11Y-94.615
X372.11Y-95.885
X372.11Y-97.155
X372.11Y-98.425
X372.11Y-99.695
X372.11Y-100.965
X372.11Y-102.235
X372.11Y-103.505
X372.11Y-104.775
T3
X77.24Y-93.98
X77.24Y-99.06
X77.24Y-104.14
X77.24Y-109.22
X77.24Y-114.3
X77.24Y-119.38
X96.555Y-130.58
X101.635Y-130.58
X106.715Y-130.58
X111.795Y-130.58
X116.875Y-130.58
X121.955Y-130.58
X147.655Y-130.58
X152.735Y-130.58
X157.815Y-130.58
X162.895Y-130.58
X167.975Y-130.58
X173.055Y-130.58
X198.755Y-130.58
X203.835Y-130.58
X208.915Y-130.58
X213.995Y-130.58
X219.075Y-130.58
X224.155Y-130.58
X249.855Y-130.58
X254.935Y-130.58
X260.015Y-130.58
X265.095Y-130.58
X270.175Y-130.58
X275.255Y-130.58
X300.955Y-130.58
X306.035Y-130.58
X311.115Y-130.58
X316.195Y-130.58
X321.275Y-130.58
X326.355Y-130.58
X347.44Y-63.5
X347.44Y-68.58
X347.44Y-73.66
X347.44Y-78.74
X347.44Y-83.82
X347.44Y-88.9
T4
X99.06Y-142.24
X99.06Y-144.78
X99.06Y-147.32
X99.06Y-149.86
X99.06Y-160.02
X99.06Y-162.56
X99.06Y-165.1
X99.06Y-167.64
X101.6Y-142.24
X101.6Y-144.78
X101.6Y-147.32
X101.6Y-149.86
X101.6Y-160.02
X101.6Y-162.56
X101.6Y-165.1
X101.6Y-167.64
X103.505Y-183.515
X106.045Y-183.515
X112.395Y-183.515
X114.935Y-183.515
X120.015Y-142.24
X120.015Y-144.78
X120.015Y-147.32
X120.015Y-149.86
X120.015Y-152.4
X120.015Y-154.94
X120.015Y-157.48
X122.555Y-142.24
X122.555Y-144.78
X122.555Y-147.32
X122.555Y-149.86
X122.555Y-152.4
X122.555Y-154.94
X122.555Y-157.48
X122.555Y-183.515
X125.095Y-183.515
X135.89Y-182.245
X135.89Y-184.785
X135.89Y-187.325
X138.43Y-182.245
X138.43Y-184.785
X138.43Y-187.325
X139.7Y-142.875
X139.7Y-145.415
X139.7Y-147.955
X140.985Y-170.185
X140.985Y-172.725
X142.24Y-142.875
X142.24Y-145.415
X142.24Y-147.955
X143.525Y-170.185
X143.525Y-172.725
X146.065Y-170.185
X146.065Y-172.725
X147.34Y-184.15
X154.94Y-184.15
X159.385Y-142.875
X159.385Y-145.415
X159.385Y-147.955
X160.02Y-169.545
X160.02Y-172.085
X161.925Y-142.875
X161.925Y-145.415
X161.925Y-147.955
X162.56Y-169.545
X162.56Y-172.085
X281.305Y-145.415
X281.315Y-153.04
X281.315Y-155.58
X281.315Y-163.2
X281.315Y-165.74
X281.32Y-140.97
X283.845Y-145.415
X283.855Y-153.04
X283.855Y-155.58
X283.855Y-163.2
X283.855Y-165.74
X283.86Y-140.97
X286.385Y-145.415
X286.395Y-153.04
X286.395Y-155.58
X286.395Y-163.2
X286.395Y-165.74
X286.4Y-140.97
X288.935Y-153.04
X288.935Y-155.58
X288.935Y-163.2
X288.935Y-165.74
X297.825Y-153.04
X297.825Y-155.58
X297.825Y-163.2
X297.825Y-165.74
X299.735Y-142.875
X299.735Y-145.415
X300.365Y-153.04
X300.365Y-155.58
X300.365Y-163.2
X300.365Y-165.74
X302.275Y-142.875
X302.275Y-145.415
X302.905Y-153.04
X302.905Y-155.58
X302.905Y-163.2
X302.905Y-165.74
X305.445Y-153.04
X305.445Y-155.58
X305.445Y-163.2
X305.445Y-165.74
T5
X171.45Y-140.335
X171.45Y-142.875
X171.45Y-145.415
X171.45Y-147.955
X171.45Y-150.495
X171.45Y-153.035
X171.45Y-155.575
X171.45Y-158.115
X171.45Y-160.655
X171.45Y-163.195
X171.45Y-165.735
X171.45Y-168.275
X171.45Y-170.815
X171.45Y-173.355
X171.45Y-175.895
X171.45Y-178.435
X171.45Y-180.975
X171.45Y-183.515
X173.99Y-140.335
X173.99Y-142.875
X173.99Y-145.415
X173.99Y-147.955
X173.99Y-150.495
X173.99Y-153.035
X173.99Y-155.575
X173.99Y-158.115
X173.99Y-160.655
X173.99Y-163.195
X173.99Y-165.735
X173.99Y-168.275
X173.99Y-170.815
X173.99Y-173.355
X173.99Y-175.895
X173.99Y-178.435
X173.99Y-180.975
X173.99Y-183.515
X176.53Y-188.595
X179.07Y-188.595
X181.61Y-140.335
X181.61Y-188.595
X184.15Y-140.335
X184.15Y-188.595
X186.69Y-140.335
X186.69Y-188.595
X189.23Y-140.335
X189.23Y-188.595
X191.77Y-140.335
X191.77Y-188.595
X194.31Y-140.335
X194.31Y-188.595
X196.85Y-140.335
X199.39Y-140.335
X199.39Y-188.595
X201.803Y-160.655
X201.803Y-163.195
X201.803Y-165.735
X201.93Y-188.595
X204.343Y-160.655
X204.343Y-163.195
X204.343Y-165.735
X204.47Y-140.335
X204.47Y-188.595
X207.01Y-140.335
X207.01Y-188.595
X209.55Y-140.335
X209.55Y-188.595
X212.09Y-140.335
X212.09Y-188.595
X214.63Y-140.335
X214.63Y-188.595
X217.17Y-140.335
X217.17Y-188.595
X219.71Y-140.335
X222.25Y-140.335
X222.25Y-188.595
X224.79Y-188.595
X225.425Y-155.575
X225.425Y-170.815
X226.314Y-140.335
X227.33Y-188.595
X227.965Y-155.575
X227.965Y-170.815
X228.854Y-140.335
X229.87Y-188.595
X230.505Y-155.575
X230.505Y-170.815
X231.394Y-140.335
X232.41Y-188.595
X233.045Y-155.575
X233.045Y-170.815
X233.934Y-140.335
X234.95Y-188.595
X235.585Y-155.575
X235.585Y-170.815
X236.474Y-140.335
X237.49Y-188.595
X238.125Y-155.575
X238.125Y-170.815
X239.014Y-140.335
X240.03Y-188.595
X240.665Y-155.575
X240.665Y-170.815
X241.554Y-140.335
X243.205Y-155.575
X243.205Y-170.815
X244.094Y-140.335
X245.745Y-155.575
X245.745Y-170.815
X246.634Y-140.335
X248.285Y-155.575
X248.285Y-170.815
X249.174Y-140.335
X250.825Y-155.575
X250.825Y-170.815
X253.365Y-155.575
X253.365Y-170.815
X255.905Y-155.575
X255.905Y-170.815
X258.445Y-155.575
X258.445Y-170.815
X260.985Y-155.575
X260.985Y-170.815
T6
X364.415Y-143.455
X364.415Y-147.955
X364.415Y-152.4
X364.415Y-156.9
X364.415Y-161.29
X364.415Y-165.79
X364.415Y-170.18
X364.415Y-174.68
X370.915Y-143.455
X370.915Y-147.955
X370.915Y-152.4
X370.915Y-156.9
X370.915Y-161.29
X370.915Y-165.79
X370.915Y-170.18
X370.915Y-174.68
T7
X53.34Y-149.86
X53.34Y-154.94
X55.88Y-167.64
X55.88Y-172.72
X71.12Y-149.86
X71.12Y-154.94
X71.12Y-175.26
X71.12Y-180.34
X77.47Y-45.72
X82.55Y-45.72
X86.36Y-149.86
X86.36Y-154.94
X86.36Y-162.56
X86.36Y-167.64
X86.36Y-175.26
X86.36Y-180.34
X127.0Y-45.72
X132.08Y-45.72
X178.435Y-45.72
X183.515Y-45.72
X229.235Y-45.72
X234.315Y-45.72
X280.035Y-45.72
X285.115Y-45.72
X331.47Y-45.72
X336.55Y-45.72
X342.9Y-45.72
X347.98Y-45.72
T8
X78.74Y-63.5
X78.74Y-68.58
X78.74Y-73.66
X78.74Y-78.74
X78.74Y-83.82
X78.74Y-88.9
X78.74Y-93.98
X78.74Y-99.06
X78.74Y-104.14
X78.74Y-109.22
X78.74Y-114.3
X78.74Y-119.38
X96.555Y-45.72
X96.555Y-132.08
X101.635Y-45.72
X101.635Y-132.08
X106.715Y-45.72
X106.715Y-132.08
X111.795Y-45.72
X111.795Y-132.08
X116.875Y-45.72
X116.875Y-132.08
X121.955Y-45.72
X121.955Y-132.08
X147.655Y-45.72
X147.655Y-132.08
X152.735Y-45.72
X152.735Y-132.08
X157.815Y-45.72
X157.815Y-132.08
X162.895Y-45.72
X162.895Y-132.08
X167.975Y-45.72
X167.975Y-132.08
X173.055Y-45.72
X173.055Y-132.08
X198.755Y-45.72
X198.755Y-132.08
X203.835Y-45.72
X203.835Y-132.08
X208.915Y-45.72
X208.915Y-132.08
X213.995Y-45.72
X213.995Y-132.08
X219.075Y-45.72
X219.075Y-132.08
X224.155Y-45.72
X224.155Y-132.08
X249.855Y-45.72
X249.855Y-132.08
X254.935Y-45.72
X254.935Y-132.08
X260.015Y-45.72
X260.015Y-132.08
X265.095Y-45.72
X265.095Y-132.08
X270.175Y-45.72
X270.175Y-132.08
X275.255Y-45.72
X275.255Y-132.08
X300.955Y-45.72
X300.955Y-132.08
X306.035Y-45.72
X306.035Y-132.08
X311.115Y-45.72
X311.115Y-132.08
X316.195Y-45.72
X316.195Y-132.08
X321.275Y-45.72
X321.275Y-132.08
X326.355Y-45.72
X326.355Y-132.08
X345.94Y-63.5
X345.94Y-68.58
X345.94Y-73.66
X345.94Y-78.74
X345.94Y-83.82
X345.94Y-88.9
X345.94Y-93.98
X345.94Y-99.06
X345.94Y-104.14
X345.94Y-109.22
X345.94Y-114.3
X345.94Y-119.38
T0
M30
