G04 #@! TF.GenerationSoftware,KiCad,Pcbnew,7.0.1*
G04 #@! TF.CreationDate,2023-03-21T23:46:41-06:00*
G04 #@! TF.ProjectId,Arm_PCB,41726d5f-5043-4422-9e6b-696361645f70,rev?*
G04 #@! TF.SameCoordinates,Original*
G04 #@! TF.FileFunction,Legend,Bot*
G04 #@! TF.FilePolarity,Positive*
%FSLAX46Y46*%
G04 Gerber Fmt 4.6, Leading zero omitted, Abs format (unit mm)*
G04 Created by KiCad (PCBNEW 7.0.1) date 2023-03-21 23:46:41*
%MOMM*%
%LPD*%
G01*
G04 APERTURE LIST*
%ADD10C,0.075000*%
%ADD11C,0.150000*%
%ADD12C,4.300000*%
%ADD13R,3.000000X3.000000*%
%ADD14C,3.000000*%
%ADD15C,5.000000*%
%ADD16C,1.500000*%
%ADD17R,1.700000X1.700000*%
%ADD18O,1.700000X1.700000*%
%ADD19C,2.000000*%
%ADD20C,5.500000*%
%ADD21C,1.800000*%
%ADD22C,1.727200*%
%ADD23R,1.727200X1.727200*%
%ADD24R,2.000000X2.000000*%
%ADD25C,3.200000*%
%ADD26O,1.727200X1.727200*%
G04 APERTURE END LIST*
D10*
X228334047Y-169141309D02*
X228334047Y-168641309D01*
X228334047Y-168641309D02*
X228214999Y-168641309D01*
X228214999Y-168641309D02*
X228143571Y-168665119D01*
X228143571Y-168665119D02*
X228095952Y-168712738D01*
X228095952Y-168712738D02*
X228072142Y-168760357D01*
X228072142Y-168760357D02*
X228048333Y-168855595D01*
X228048333Y-168855595D02*
X228048333Y-168927023D01*
X228048333Y-168927023D02*
X228072142Y-169022261D01*
X228072142Y-169022261D02*
X228095952Y-169069880D01*
X228095952Y-169069880D02*
X228143571Y-169117500D01*
X228143571Y-169117500D02*
X228214999Y-169141309D01*
X228214999Y-169141309D02*
X228334047Y-169141309D01*
X227738809Y-168641309D02*
X227691190Y-168641309D01*
X227691190Y-168641309D02*
X227643571Y-168665119D01*
X227643571Y-168665119D02*
X227619761Y-168688928D01*
X227619761Y-168688928D02*
X227595952Y-168736547D01*
X227595952Y-168736547D02*
X227572142Y-168831785D01*
X227572142Y-168831785D02*
X227572142Y-168950833D01*
X227572142Y-168950833D02*
X227595952Y-169046071D01*
X227595952Y-169046071D02*
X227619761Y-169093690D01*
X227619761Y-169093690D02*
X227643571Y-169117500D01*
X227643571Y-169117500D02*
X227691190Y-169141309D01*
X227691190Y-169141309D02*
X227738809Y-169141309D01*
X227738809Y-169141309D02*
X227786428Y-169117500D01*
X227786428Y-169117500D02*
X227810237Y-169093690D01*
X227810237Y-169093690D02*
X227834047Y-169046071D01*
X227834047Y-169046071D02*
X227857856Y-168950833D01*
X227857856Y-168950833D02*
X227857856Y-168831785D01*
X227857856Y-168831785D02*
X227834047Y-168736547D01*
X227834047Y-168736547D02*
X227810237Y-168688928D01*
X227810237Y-168688928D02*
X227786428Y-168665119D01*
X227786428Y-168665119D02*
X227738809Y-168641309D01*
X204839047Y-142471309D02*
X204839047Y-141971309D01*
X204839047Y-141971309D02*
X204719999Y-141971309D01*
X204719999Y-141971309D02*
X204648571Y-141995119D01*
X204648571Y-141995119D02*
X204600952Y-142042738D01*
X204600952Y-142042738D02*
X204577142Y-142090357D01*
X204577142Y-142090357D02*
X204553333Y-142185595D01*
X204553333Y-142185595D02*
X204553333Y-142257023D01*
X204553333Y-142257023D02*
X204577142Y-142352261D01*
X204577142Y-142352261D02*
X204600952Y-142399880D01*
X204600952Y-142399880D02*
X204648571Y-142447500D01*
X204648571Y-142447500D02*
X204719999Y-142471309D01*
X204719999Y-142471309D02*
X204839047Y-142471309D01*
X204243809Y-141971309D02*
X204196190Y-141971309D01*
X204196190Y-141971309D02*
X204148571Y-141995119D01*
X204148571Y-141995119D02*
X204124761Y-142018928D01*
X204124761Y-142018928D02*
X204100952Y-142066547D01*
X204100952Y-142066547D02*
X204077142Y-142161785D01*
X204077142Y-142161785D02*
X204077142Y-142280833D01*
X204077142Y-142280833D02*
X204100952Y-142376071D01*
X204100952Y-142376071D02*
X204124761Y-142423690D01*
X204124761Y-142423690D02*
X204148571Y-142447500D01*
X204148571Y-142447500D02*
X204196190Y-142471309D01*
X204196190Y-142471309D02*
X204243809Y-142471309D01*
X204243809Y-142471309D02*
X204291428Y-142447500D01*
X204291428Y-142447500D02*
X204315237Y-142423690D01*
X204315237Y-142423690D02*
X204339047Y-142376071D01*
X204339047Y-142376071D02*
X204362856Y-142280833D01*
X204362856Y-142280833D02*
X204362856Y-142161785D01*
X204362856Y-142161785D02*
X204339047Y-142066547D01*
X204339047Y-142066547D02*
X204315237Y-142018928D01*
X204315237Y-142018928D02*
X204291428Y-141995119D01*
X204291428Y-141995119D02*
X204243809Y-141971309D01*
D11*
X205485999Y-159498380D02*
X205438380Y-159546000D01*
X205438380Y-159546000D02*
X205485999Y-159593619D01*
X205485999Y-159593619D02*
X205533618Y-159546000D01*
X205533618Y-159546000D02*
X205485999Y-159498380D01*
X205485999Y-159498380D02*
X205485999Y-159593619D01*
%LPC*%
D12*
X54610000Y-182880000D03*
D13*
X183515000Y-45720000D03*
D14*
X178435000Y-45720000D03*
D15*
X241055000Y-54400000D03*
X241055000Y-123400000D03*
X284055000Y-54400000D03*
X284055000Y-123400000D03*
D13*
X275255000Y-45720000D03*
X270175000Y-45720000D03*
D16*
X254935000Y-130580000D03*
D13*
X254935000Y-132080000D03*
D16*
X249855000Y-130580000D03*
D13*
X249855000Y-132080000D03*
D16*
X275255000Y-130580000D03*
D13*
X275255000Y-132080000D03*
D16*
X270175000Y-130580000D03*
D13*
X270175000Y-132080000D03*
D16*
X265095000Y-130580000D03*
D13*
X265095000Y-132080000D03*
D16*
X260015000Y-130580000D03*
D13*
X260015000Y-132080000D03*
X265095000Y-45720000D03*
X260015000Y-45720000D03*
X254935000Y-45720000D03*
X249855000Y-45720000D03*
D12*
X368300000Y-58420000D03*
D15*
X292155000Y-54400000D03*
X292155000Y-123400000D03*
X335155000Y-54400000D03*
X335155000Y-123400000D03*
D13*
X326355000Y-45720000D03*
X321275000Y-45720000D03*
D16*
X306035000Y-130580000D03*
D13*
X306035000Y-132080000D03*
D16*
X300955000Y-130580000D03*
D13*
X300955000Y-132080000D03*
D16*
X326355000Y-130580000D03*
D13*
X326355000Y-132080000D03*
D16*
X321275000Y-130580000D03*
D13*
X321275000Y-132080000D03*
D16*
X316195000Y-130580000D03*
D13*
X316195000Y-132080000D03*
D16*
X311115000Y-130580000D03*
D13*
X311115000Y-132080000D03*
X316195000Y-45720000D03*
X311115000Y-45720000D03*
X306035000Y-45720000D03*
X300955000Y-45720000D03*
D12*
X370840000Y-186690000D03*
X142240000Y-91440000D03*
D17*
X281315000Y-165740000D03*
D18*
X281315000Y-163200000D03*
X283855000Y-165740000D03*
X283855000Y-163200000D03*
X286395000Y-165740000D03*
X286395000Y-163200000D03*
X288935000Y-165740000D03*
X288935000Y-163200000D03*
D17*
X297825000Y-165740000D03*
D18*
X297825000Y-163200000D03*
X300365000Y-165740000D03*
X300365000Y-163200000D03*
X302905000Y-165740000D03*
X302905000Y-163200000D03*
X305445000Y-165740000D03*
X305445000Y-163200000D03*
D17*
X103505000Y-183515000D03*
D18*
X106045000Y-183515000D03*
D13*
X285115000Y-45720000D03*
D14*
X280035000Y-45720000D03*
D19*
X364415000Y-170180000D03*
X370915000Y-170180000D03*
X364415000Y-174680000D03*
X370915000Y-174680000D03*
D17*
X99060000Y-160020000D03*
D18*
X101600000Y-160020000D03*
X99060000Y-162560000D03*
X101600000Y-162560000D03*
X99060000Y-165100000D03*
X101600000Y-165100000D03*
X99060000Y-167640000D03*
X101600000Y-167640000D03*
D15*
X189955000Y-54400000D03*
X189955000Y-123400000D03*
X232955000Y-54400000D03*
X232955000Y-123400000D03*
D13*
X224155000Y-45720000D03*
X219075000Y-45720000D03*
D16*
X203835000Y-130580000D03*
D13*
X203835000Y-132080000D03*
D16*
X198755000Y-130580000D03*
D13*
X198755000Y-132080000D03*
D16*
X224155000Y-130580000D03*
D13*
X224155000Y-132080000D03*
D16*
X219075000Y-130580000D03*
D13*
X219075000Y-132080000D03*
D16*
X213995000Y-130580000D03*
D13*
X213995000Y-132080000D03*
D16*
X208915000Y-130580000D03*
D13*
X208915000Y-132080000D03*
X213995000Y-45720000D03*
X208915000Y-45720000D03*
X203835000Y-45720000D03*
X198755000Y-45720000D03*
D12*
X218440000Y-92710000D03*
D13*
X86360000Y-167640000D03*
D14*
X86360000Y-162560000D03*
D17*
X160020000Y-172085000D03*
D18*
X160020000Y-169545000D03*
X162560000Y-172085000D03*
X162560000Y-169545000D03*
D19*
X364415000Y-152400000D03*
X370915000Y-152400000D03*
X364415000Y-156900000D03*
X370915000Y-156900000D03*
X364415000Y-143455000D03*
X370915000Y-143455000D03*
X364415000Y-147955000D03*
X370915000Y-147955000D03*
D17*
X135890000Y-182245000D03*
D18*
X138430000Y-182245000D03*
X135890000Y-184785000D03*
X138430000Y-184785000D03*
X135890000Y-187325000D03*
X138430000Y-187325000D03*
D13*
X86360000Y-180340000D03*
D14*
X86360000Y-175260000D03*
D13*
X71120000Y-180340000D03*
D14*
X71120000Y-175260000D03*
D13*
X234315000Y-45720000D03*
D14*
X229235000Y-45720000D03*
D13*
X86360000Y-154940000D03*
D14*
X86360000Y-149860000D03*
D15*
X138855000Y-54400000D03*
X138855000Y-123400000D03*
X181855000Y-54400000D03*
X181855000Y-123400000D03*
D13*
X173055000Y-45720000D03*
X167975000Y-45720000D03*
D16*
X152735000Y-130580000D03*
D13*
X152735000Y-132080000D03*
D16*
X147655000Y-130580000D03*
D13*
X147655000Y-132080000D03*
D16*
X173055000Y-130580000D03*
D13*
X173055000Y-132080000D03*
D16*
X167975000Y-130580000D03*
D13*
X167975000Y-132080000D03*
D16*
X162895000Y-130580000D03*
D13*
X162895000Y-132080000D03*
D16*
X157815000Y-130580000D03*
D13*
X157815000Y-132080000D03*
X162895000Y-45720000D03*
X157815000Y-45720000D03*
X152735000Y-45720000D03*
X147655000Y-45720000D03*
X347980000Y-45720000D03*
D14*
X342900000Y-45720000D03*
D12*
X330200000Y-92710000D03*
D20*
X363220000Y-134940000D03*
X363220000Y-47940000D03*
D13*
X345940000Y-119380000D03*
X345940000Y-114300000D03*
D16*
X347440000Y-68580000D03*
D13*
X345940000Y-68580000D03*
D16*
X347440000Y-63500000D03*
D13*
X345940000Y-63500000D03*
D16*
X347440000Y-88900000D03*
D13*
X345940000Y-88900000D03*
D16*
X347440000Y-83820000D03*
D13*
X345940000Y-83820000D03*
D16*
X347440000Y-78740000D03*
D13*
X345940000Y-78740000D03*
D16*
X347440000Y-73660000D03*
D13*
X345940000Y-73660000D03*
X345940000Y-109220000D03*
X345940000Y-104140000D03*
X345940000Y-99060000D03*
X345940000Y-93980000D03*
D17*
X139700000Y-142875000D03*
D18*
X142240000Y-142875000D03*
X139700000Y-145415000D03*
X142240000Y-145415000D03*
X139700000Y-147955000D03*
X142240000Y-147955000D03*
D17*
X140985000Y-172725000D03*
D18*
X140985000Y-170185000D03*
X143525000Y-172725000D03*
X143525000Y-170185000D03*
X146065000Y-172725000D03*
X146065000Y-170185000D03*
D17*
X281305000Y-145415000D03*
D18*
X283845000Y-145415000D03*
X286385000Y-145415000D03*
D15*
X87755000Y-54400000D03*
X87755000Y-123400000D03*
X130755000Y-54400000D03*
X130755000Y-123400000D03*
D13*
X121955000Y-45720000D03*
X116875000Y-45720000D03*
D16*
X101635000Y-130580000D03*
D13*
X101635000Y-132080000D03*
D16*
X96555000Y-130580000D03*
D13*
X96555000Y-132080000D03*
D16*
X121955000Y-130580000D03*
D13*
X121955000Y-132080000D03*
D16*
X116875000Y-130580000D03*
D13*
X116875000Y-132080000D03*
D16*
X111795000Y-130580000D03*
D13*
X111795000Y-132080000D03*
D16*
X106715000Y-130580000D03*
D13*
X106715000Y-132080000D03*
X111795000Y-45720000D03*
X106715000Y-45720000D03*
X101635000Y-45720000D03*
X96555000Y-45720000D03*
D12*
X191770000Y-46990000D03*
D13*
X55880000Y-172720000D03*
D14*
X55880000Y-167640000D03*
D17*
X299735000Y-142875000D03*
D18*
X302275000Y-142875000D03*
X299735000Y-145415000D03*
X302275000Y-145415000D03*
D12*
X293370000Y-46990000D03*
D17*
X281320000Y-140970000D03*
D18*
X283860000Y-140970000D03*
X286400000Y-140970000D03*
D17*
X112395000Y-183515000D03*
D18*
X114935000Y-183515000D03*
D12*
X90170000Y-46990000D03*
D21*
X222885000Y-170815000D03*
X263525000Y-170815000D03*
X222885000Y-155575000D03*
X263525000Y-155575000D03*
D22*
X258445000Y-155575000D03*
X233045000Y-155575000D03*
X253365000Y-155575000D03*
X250825000Y-155575000D03*
X248285000Y-155575000D03*
X245745000Y-155575000D03*
X243205000Y-155575000D03*
X240665000Y-155575000D03*
X238125000Y-155575000D03*
X235585000Y-155575000D03*
X255905000Y-155575000D03*
X227965000Y-170815000D03*
X225425000Y-170815000D03*
X235585000Y-170815000D03*
X238125000Y-170815000D03*
X240665000Y-170815000D03*
X243205000Y-170815000D03*
X245745000Y-170815000D03*
X248285000Y-170815000D03*
X250825000Y-170815000D03*
X253365000Y-170815000D03*
X255905000Y-170815000D03*
X258445000Y-170815000D03*
X260985000Y-170815000D03*
X260985000Y-155575000D03*
D23*
X233045000Y-170815000D03*
X227965000Y-155575000D03*
D22*
X230505000Y-170815000D03*
X230505000Y-155575000D03*
X225425000Y-155575000D03*
D17*
X281315000Y-155580000D03*
D18*
X281315000Y-153040000D03*
X283855000Y-155580000D03*
X283855000Y-153040000D03*
X286395000Y-155580000D03*
X286395000Y-153040000D03*
X288935000Y-155580000D03*
X288935000Y-153040000D03*
D13*
X336550000Y-45720000D03*
D14*
X331470000Y-45720000D03*
D13*
X82550000Y-45720000D03*
D14*
X77470000Y-45720000D03*
D13*
X53340000Y-154940000D03*
D14*
X53340000Y-149860000D03*
D24*
X147340000Y-184150000D03*
D19*
X154940000Y-184150000D03*
D13*
X132080000Y-45720000D03*
D14*
X127000000Y-45720000D03*
D17*
X120015000Y-142240000D03*
D18*
X122555000Y-142240000D03*
X120015000Y-144780000D03*
X122555000Y-144780000D03*
X120015000Y-147320000D03*
X122555000Y-147320000D03*
X120015000Y-149860000D03*
X122555000Y-149860000D03*
X120015000Y-152400000D03*
X122555000Y-152400000D03*
X120015000Y-154940000D03*
X122555000Y-154940000D03*
X120015000Y-157480000D03*
X122555000Y-157480000D03*
D17*
X297825000Y-155580000D03*
D18*
X297825000Y-153040000D03*
X300365000Y-155580000D03*
X300365000Y-153040000D03*
X302905000Y-155580000D03*
X302905000Y-153040000D03*
X305445000Y-155580000D03*
X305445000Y-153040000D03*
D20*
X61460000Y-47940000D03*
X61460000Y-134940000D03*
D13*
X78740000Y-63500000D03*
X78740000Y-68580000D03*
D16*
X77240000Y-114300000D03*
D13*
X78740000Y-114300000D03*
D16*
X77240000Y-119380000D03*
D13*
X78740000Y-119380000D03*
D16*
X77240000Y-93980000D03*
D13*
X78740000Y-93980000D03*
D16*
X77240000Y-99060000D03*
D13*
X78740000Y-99060000D03*
D16*
X77240000Y-104140000D03*
D13*
X78740000Y-104140000D03*
D16*
X77240000Y-109220000D03*
D13*
X78740000Y-109220000D03*
X78740000Y-73660000D03*
X78740000Y-78740000D03*
X78740000Y-83820000D03*
X78740000Y-88900000D03*
D17*
X159385000Y-142875000D03*
D18*
X161925000Y-142875000D03*
X159385000Y-145415000D03*
X161925000Y-145415000D03*
X159385000Y-147955000D03*
X161925000Y-147955000D03*
D17*
X99060000Y-142240000D03*
D18*
X101600000Y-142240000D03*
X99060000Y-144780000D03*
X101600000Y-144780000D03*
X99060000Y-147320000D03*
X101600000Y-147320000D03*
X99060000Y-149860000D03*
X101600000Y-149860000D03*
D19*
X364415000Y-161290000D03*
X370915000Y-161290000D03*
X364415000Y-165790000D03*
X370915000Y-165790000D03*
D17*
X122555000Y-183515000D03*
D18*
X125095000Y-183515000D03*
D13*
X71120000Y-154940000D03*
D14*
X71120000Y-149860000D03*
D25*
X254000000Y-188595000D03*
X252730000Y-140335000D03*
D26*
X240030000Y-188595000D03*
D25*
X201930000Y-183515000D03*
X201930000Y-155575000D03*
X177800000Y-140335000D03*
X171450000Y-188595000D03*
D26*
X232410000Y-188595000D03*
X229870000Y-188595000D03*
X201803000Y-160655000D03*
X173990000Y-140335000D03*
X171450000Y-140335000D03*
X217170000Y-188595000D03*
X214630000Y-188595000D03*
X212090000Y-188595000D03*
X209550000Y-188595000D03*
X207010000Y-188595000D03*
X204470000Y-188595000D03*
X201930000Y-188595000D03*
X199390000Y-188595000D03*
X194310000Y-188595000D03*
X191770000Y-188595000D03*
X189230000Y-188595000D03*
X186690000Y-188595000D03*
X184150000Y-188595000D03*
X181610000Y-188595000D03*
X179070000Y-188595000D03*
X176530000Y-188595000D03*
X244094000Y-140335000D03*
X204470000Y-140335000D03*
X207010000Y-140335000D03*
X209550000Y-140335000D03*
X212090000Y-140335000D03*
X214630000Y-140335000D03*
X217170000Y-140335000D03*
X219710000Y-140335000D03*
X222250000Y-140335000D03*
X226314000Y-140335000D03*
X228854000Y-140335000D03*
X231394000Y-140335000D03*
X233934000Y-140335000D03*
X236474000Y-140335000D03*
X239014000Y-140335000D03*
X199390000Y-140335000D03*
X196850000Y-140335000D03*
X194310000Y-140335000D03*
X191770000Y-140335000D03*
X189230000Y-140335000D03*
X186690000Y-140335000D03*
X184150000Y-140335000D03*
X181610000Y-140335000D03*
X173990000Y-142875000D03*
X171450000Y-142875000D03*
X173990000Y-145415000D03*
X171450000Y-145415000D03*
X173990000Y-147955000D03*
X171450000Y-147955000D03*
X173990000Y-150495000D03*
X171450000Y-150495000D03*
X173990000Y-153035000D03*
X171450000Y-153035000D03*
X173990000Y-155575000D03*
X171450000Y-155575000D03*
X173990000Y-158115000D03*
X171450000Y-158115000D03*
X173990000Y-160655000D03*
X171450000Y-160655000D03*
X173990000Y-163195000D03*
X171450000Y-163195000D03*
X173990000Y-165735000D03*
X171450000Y-165735000D03*
X173990000Y-168275000D03*
X171450000Y-168275000D03*
X173990000Y-170815000D03*
X171450000Y-170815000D03*
X173990000Y-173355000D03*
X171450000Y-173355000D03*
X173990000Y-175895000D03*
X171450000Y-175895000D03*
X173990000Y-178435000D03*
X171450000Y-178435000D03*
X173990000Y-180975000D03*
X171450000Y-180975000D03*
D23*
X241554000Y-140335000D03*
X227330000Y-188595000D03*
X224790000Y-188595000D03*
X201803000Y-165735000D03*
X173990000Y-183515000D03*
X171450000Y-183515000D03*
D26*
X237490000Y-188595000D03*
X204343000Y-160655000D03*
X201803000Y-163195000D03*
X234950000Y-188595000D03*
X204343000Y-165735000D03*
X204343000Y-163195000D03*
X249174000Y-140335000D03*
X246634000Y-140335000D03*
X222250000Y-188595000D03*
M02*
