%TF.GenerationSoftware,KiCad,Pcbnew,7.0.1*%
%TF.CreationDate,2023-03-21T23:46:57-06:00*%
%TF.ProjectId,Arm_PCB,41726d5f-5043-4422-9e6b-696361645f70,rev?*%
%TF.SameCoordinates,Original*%
%TF.FileFunction,Drillmap*%
%TF.FilePolarity,Positive*%
%FSLAX45Y45*%
G04 Gerber Fmt 4.5, Leading zero omitted, Abs format (unit mm)*
G04 Created by KiCad (PCBNEW 7.0.1) date 2023-03-21 23:46:57*
%MOMM*%
%LPD*%
G01*
G04 APERTURE LIST*
%ADD10C,0.100000*%
%ADD11C,0.200000*%
%ADD12C,0.180000*%
%ADD13C,0.320000*%
%ADD14C,0.350000*%
%ADD15C,0.430000*%
%ADD16C,0.450000*%
G04 APERTURE END LIST*
D10*
X4445000Y-4318000D02*
X37719000Y-4318000D01*
X37719000Y-19304000D01*
X4445000Y-19304000D01*
X4445000Y-4318000D01*
D11*
D12*
X22198500Y-15467500D02*
X22378500Y-15647500D01*
X22378500Y-15467500D02*
X22198500Y-15647500D01*
X22198500Y-16991500D02*
X22378500Y-17171500D01*
X22378500Y-16991500D02*
X22198500Y-17171500D01*
X26262500Y-15467500D02*
X26442500Y-15647500D01*
X26442500Y-15467500D02*
X26262500Y-15647500D01*
X26262500Y-16991500D02*
X26442500Y-17171500D01*
X26442500Y-16991500D02*
X26262500Y-17171500D01*
D13*
X17305000Y-18859500D02*
G75*
G03*
X17305000Y-18859500I-160000J0D01*
G01*
X17940000Y-14033500D02*
G75*
G03*
X17940000Y-14033500I-160000J0D01*
G01*
X20353000Y-15557500D02*
G75*
G03*
X20353000Y-15557500I-160000J0D01*
G01*
X20353000Y-18351500D02*
G75*
G03*
X20353000Y-18351500I-160000J0D01*
G01*
X25433000Y-14033500D02*
G75*
G03*
X25433000Y-14033500I-160000J0D01*
G01*
X25560000Y-18859500D02*
G75*
G03*
X25560000Y-18859500I-160000J0D01*
G01*
D14*
X8775500Y-5265000D02*
X8775500Y-5615000D01*
X8600500Y-5440000D02*
X8950500Y-5440000D01*
X8775500Y-12165000D02*
X8775500Y-12515000D01*
X8600500Y-12340000D02*
X8950500Y-12340000D01*
X13075500Y-5265000D02*
X13075500Y-5615000D01*
X12900500Y-5440000D02*
X13250500Y-5440000D01*
X13075500Y-12165000D02*
X13075500Y-12515000D01*
X12900500Y-12340000D02*
X13250500Y-12340000D01*
X13885500Y-5265000D02*
X13885500Y-5615000D01*
X13710500Y-5440000D02*
X14060500Y-5440000D01*
X13885500Y-12165000D02*
X13885500Y-12515000D01*
X13710500Y-12340000D02*
X14060500Y-12340000D01*
X18185500Y-5265000D02*
X18185500Y-5615000D01*
X18010500Y-5440000D02*
X18360500Y-5440000D01*
X18185500Y-12165000D02*
X18185500Y-12515000D01*
X18010500Y-12340000D02*
X18360500Y-12340000D01*
X18995500Y-5265000D02*
X18995500Y-5615000D01*
X18820500Y-5440000D02*
X19170500Y-5440000D01*
X18995500Y-12165000D02*
X18995500Y-12515000D01*
X18820500Y-12340000D02*
X19170500Y-12340000D01*
X23295500Y-5265000D02*
X23295500Y-5615000D01*
X23120500Y-5440000D02*
X23470500Y-5440000D01*
X23295500Y-12165000D02*
X23295500Y-12515000D01*
X23120500Y-12340000D02*
X23470500Y-12340000D01*
X24105500Y-5265000D02*
X24105500Y-5615000D01*
X23930500Y-5440000D02*
X24280500Y-5440000D01*
X24105500Y-12165000D02*
X24105500Y-12515000D01*
X23930500Y-12340000D02*
X24280500Y-12340000D01*
X28405500Y-5265000D02*
X28405500Y-5615000D01*
X28230500Y-5440000D02*
X28580500Y-5440000D01*
X28405500Y-12165000D02*
X28405500Y-12515000D01*
X28230500Y-12340000D02*
X28580500Y-12340000D01*
X29215500Y-5265000D02*
X29215500Y-5615000D01*
X29040500Y-5440000D02*
X29390500Y-5440000D01*
X29215500Y-12165000D02*
X29215500Y-12515000D01*
X29040500Y-12340000D02*
X29390500Y-12340000D01*
X33515500Y-5265000D02*
X33515500Y-5615000D01*
X33340500Y-5440000D02*
X33690500Y-5440000D01*
X33515500Y-12165000D02*
X33515500Y-12515000D01*
X33340500Y-12340000D02*
X33690500Y-12340000D01*
D15*
X5613029Y-18440029D02*
X5613029Y-18135971D01*
X5308971Y-18135971D01*
X5308971Y-18440029D01*
X5613029Y-18440029D01*
X9169029Y-4851029D02*
X9169029Y-4546971D01*
X8864971Y-4546971D01*
X8864971Y-4851029D01*
X9169029Y-4851029D01*
X14376029Y-9296029D02*
X14376029Y-8991971D01*
X14071971Y-8991971D01*
X14071971Y-9296029D01*
X14376029Y-9296029D01*
X19329029Y-4851029D02*
X19329029Y-4546971D01*
X19024971Y-4546971D01*
X19024971Y-4851029D01*
X19329029Y-4851029D01*
X21996029Y-9423029D02*
X21996029Y-9118971D01*
X21691971Y-9118971D01*
X21691971Y-9423029D01*
X21996029Y-9423029D01*
X29489029Y-4851029D02*
X29489029Y-4546971D01*
X29184971Y-4546971D01*
X29184971Y-4851029D01*
X29489029Y-4851029D01*
X33172029Y-9423029D02*
X33172029Y-9118971D01*
X32867971Y-9118971D01*
X32867971Y-9423029D01*
X33172029Y-9423029D01*
X36982029Y-5994029D02*
X36982029Y-5689971D01*
X36677971Y-5689971D01*
X36677971Y-5994029D01*
X36982029Y-5994029D01*
X37236029Y-18821029D02*
X37236029Y-18516971D01*
X36931971Y-18516971D01*
X36931971Y-18821029D01*
X37236029Y-18821029D01*
D16*
X6146000Y-5019000D02*
X6371000Y-4794000D01*
X6146000Y-4569000D01*
X5921000Y-4794000D01*
X6146000Y-5019000D01*
X6146000Y-13719000D02*
X6371000Y-13494000D01*
X6146000Y-13269000D01*
X5921000Y-13494000D01*
X6146000Y-13719000D01*
X36322000Y-5019000D02*
X36547000Y-4794000D01*
X36322000Y-4569000D01*
X36097000Y-4794000D01*
X36322000Y-5019000D01*
X36322000Y-13719000D02*
X36547000Y-13494000D01*
X36322000Y-13269000D01*
X36097000Y-13494000D01*
X36322000Y-13719000D01*
D11*
X4687619Y-19621524D02*
X4687619Y-19421524D01*
X4687619Y-19421524D02*
X4735238Y-19421524D01*
X4735238Y-19421524D02*
X4763810Y-19431048D01*
X4763810Y-19431048D02*
X4782857Y-19450095D01*
X4782857Y-19450095D02*
X4792381Y-19469143D01*
X4792381Y-19469143D02*
X4801905Y-19507238D01*
X4801905Y-19507238D02*
X4801905Y-19535810D01*
X4801905Y-19535810D02*
X4792381Y-19573905D01*
X4792381Y-19573905D02*
X4782857Y-19592952D01*
X4782857Y-19592952D02*
X4763810Y-19612000D01*
X4763810Y-19612000D02*
X4735238Y-19621524D01*
X4735238Y-19621524D02*
X4687619Y-19621524D01*
X4887619Y-19621524D02*
X4887619Y-19488190D01*
X4887619Y-19526286D02*
X4897143Y-19507238D01*
X4897143Y-19507238D02*
X4906667Y-19497714D01*
X4906667Y-19497714D02*
X4925714Y-19488190D01*
X4925714Y-19488190D02*
X4944762Y-19488190D01*
X5011429Y-19621524D02*
X5011429Y-19488190D01*
X5011429Y-19421524D02*
X5001905Y-19431048D01*
X5001905Y-19431048D02*
X5011429Y-19440571D01*
X5011429Y-19440571D02*
X5020952Y-19431048D01*
X5020952Y-19431048D02*
X5011429Y-19421524D01*
X5011429Y-19421524D02*
X5011429Y-19440571D01*
X5135238Y-19621524D02*
X5116190Y-19612000D01*
X5116190Y-19612000D02*
X5106667Y-19592952D01*
X5106667Y-19592952D02*
X5106667Y-19421524D01*
X5240000Y-19621524D02*
X5220952Y-19612000D01*
X5220952Y-19612000D02*
X5211429Y-19592952D01*
X5211429Y-19592952D02*
X5211429Y-19421524D01*
X5468571Y-19621524D02*
X5468571Y-19421524D01*
X5468571Y-19421524D02*
X5535238Y-19564381D01*
X5535238Y-19564381D02*
X5601905Y-19421524D01*
X5601905Y-19421524D02*
X5601905Y-19621524D01*
X5782857Y-19621524D02*
X5782857Y-19516762D01*
X5782857Y-19516762D02*
X5773333Y-19497714D01*
X5773333Y-19497714D02*
X5754286Y-19488190D01*
X5754286Y-19488190D02*
X5716190Y-19488190D01*
X5716190Y-19488190D02*
X5697143Y-19497714D01*
X5782857Y-19612000D02*
X5763809Y-19621524D01*
X5763809Y-19621524D02*
X5716190Y-19621524D01*
X5716190Y-19621524D02*
X5697143Y-19612000D01*
X5697143Y-19612000D02*
X5687619Y-19592952D01*
X5687619Y-19592952D02*
X5687619Y-19573905D01*
X5687619Y-19573905D02*
X5697143Y-19554857D01*
X5697143Y-19554857D02*
X5716190Y-19545333D01*
X5716190Y-19545333D02*
X5763809Y-19545333D01*
X5763809Y-19545333D02*
X5782857Y-19535810D01*
X5878095Y-19488190D02*
X5878095Y-19688190D01*
X5878095Y-19497714D02*
X5897143Y-19488190D01*
X5897143Y-19488190D02*
X5935238Y-19488190D01*
X5935238Y-19488190D02*
X5954286Y-19497714D01*
X5954286Y-19497714D02*
X5963809Y-19507238D01*
X5963809Y-19507238D02*
X5973333Y-19526286D01*
X5973333Y-19526286D02*
X5973333Y-19583429D01*
X5973333Y-19583429D02*
X5963809Y-19602476D01*
X5963809Y-19602476D02*
X5954286Y-19612000D01*
X5954286Y-19612000D02*
X5935238Y-19621524D01*
X5935238Y-19621524D02*
X5897143Y-19621524D01*
X5897143Y-19621524D02*
X5878095Y-19612000D01*
X6059048Y-19602476D02*
X6068571Y-19612000D01*
X6068571Y-19612000D02*
X6059048Y-19621524D01*
X6059048Y-19621524D02*
X6049524Y-19612000D01*
X6049524Y-19612000D02*
X6059048Y-19602476D01*
X6059048Y-19602476D02*
X6059048Y-19621524D01*
X6059048Y-19497714D02*
X6068571Y-19507238D01*
X6068571Y-19507238D02*
X6059048Y-19516762D01*
X6059048Y-19516762D02*
X6049524Y-19507238D01*
X6049524Y-19507238D02*
X6059048Y-19497714D01*
X6059048Y-19497714D02*
X6059048Y-19516762D01*
D12*
X4260000Y-19859000D02*
X4440000Y-20039000D01*
X4440000Y-19859000D02*
X4260000Y-20039000D01*
D11*
X4792381Y-20041524D02*
X4678095Y-20041524D01*
X4735238Y-20041524D02*
X4735238Y-19841524D01*
X4735238Y-19841524D02*
X4716190Y-19870095D01*
X4716190Y-19870095D02*
X4697143Y-19889143D01*
X4697143Y-19889143D02*
X4678095Y-19898667D01*
X4878095Y-20022476D02*
X4887619Y-20032000D01*
X4887619Y-20032000D02*
X4878095Y-20041524D01*
X4878095Y-20041524D02*
X4868571Y-20032000D01*
X4868571Y-20032000D02*
X4878095Y-20022476D01*
X4878095Y-20022476D02*
X4878095Y-20041524D01*
X5001905Y-19927238D02*
X4982857Y-19917714D01*
X4982857Y-19917714D02*
X4973333Y-19908190D01*
X4973333Y-19908190D02*
X4963810Y-19889143D01*
X4963810Y-19889143D02*
X4963810Y-19879619D01*
X4963810Y-19879619D02*
X4973333Y-19860571D01*
X4973333Y-19860571D02*
X4982857Y-19851048D01*
X4982857Y-19851048D02*
X5001905Y-19841524D01*
X5001905Y-19841524D02*
X5040000Y-19841524D01*
X5040000Y-19841524D02*
X5059048Y-19851048D01*
X5059048Y-19851048D02*
X5068571Y-19860571D01*
X5068571Y-19860571D02*
X5078095Y-19879619D01*
X5078095Y-19879619D02*
X5078095Y-19889143D01*
X5078095Y-19889143D02*
X5068571Y-19908190D01*
X5068571Y-19908190D02*
X5059048Y-19917714D01*
X5059048Y-19917714D02*
X5040000Y-19927238D01*
X5040000Y-19927238D02*
X5001905Y-19927238D01*
X5001905Y-19927238D02*
X4982857Y-19936762D01*
X4982857Y-19936762D02*
X4973333Y-19946286D01*
X4973333Y-19946286D02*
X4963810Y-19965333D01*
X4963810Y-19965333D02*
X4963810Y-20003429D01*
X4963810Y-20003429D02*
X4973333Y-20022476D01*
X4973333Y-20022476D02*
X4982857Y-20032000D01*
X4982857Y-20032000D02*
X5001905Y-20041524D01*
X5001905Y-20041524D02*
X5040000Y-20041524D01*
X5040000Y-20041524D02*
X5059048Y-20032000D01*
X5059048Y-20032000D02*
X5068571Y-20022476D01*
X5068571Y-20022476D02*
X5078095Y-20003429D01*
X5078095Y-20003429D02*
X5078095Y-19965333D01*
X5078095Y-19965333D02*
X5068571Y-19946286D01*
X5068571Y-19946286D02*
X5059048Y-19936762D01*
X5059048Y-19936762D02*
X5040000Y-19927238D01*
X5201905Y-19841524D02*
X5220952Y-19841524D01*
X5220952Y-19841524D02*
X5240000Y-19851048D01*
X5240000Y-19851048D02*
X5249524Y-19860571D01*
X5249524Y-19860571D02*
X5259048Y-19879619D01*
X5259048Y-19879619D02*
X5268571Y-19917714D01*
X5268571Y-19917714D02*
X5268571Y-19965333D01*
X5268571Y-19965333D02*
X5259048Y-20003429D01*
X5259048Y-20003429D02*
X5249524Y-20022476D01*
X5249524Y-20022476D02*
X5240000Y-20032000D01*
X5240000Y-20032000D02*
X5220952Y-20041524D01*
X5220952Y-20041524D02*
X5201905Y-20041524D01*
X5201905Y-20041524D02*
X5182857Y-20032000D01*
X5182857Y-20032000D02*
X5173333Y-20022476D01*
X5173333Y-20022476D02*
X5163810Y-20003429D01*
X5163810Y-20003429D02*
X5154286Y-19965333D01*
X5154286Y-19965333D02*
X5154286Y-19917714D01*
X5154286Y-19917714D02*
X5163810Y-19879619D01*
X5163810Y-19879619D02*
X5173333Y-19860571D01*
X5173333Y-19860571D02*
X5182857Y-19851048D01*
X5182857Y-19851048D02*
X5201905Y-19841524D01*
X5392381Y-19841524D02*
X5411429Y-19841524D01*
X5411429Y-19841524D02*
X5430476Y-19851048D01*
X5430476Y-19851048D02*
X5440000Y-19860571D01*
X5440000Y-19860571D02*
X5449524Y-19879619D01*
X5449524Y-19879619D02*
X5459048Y-19917714D01*
X5459048Y-19917714D02*
X5459048Y-19965333D01*
X5459048Y-19965333D02*
X5449524Y-20003429D01*
X5449524Y-20003429D02*
X5440000Y-20022476D01*
X5440000Y-20022476D02*
X5430476Y-20032000D01*
X5430476Y-20032000D02*
X5411429Y-20041524D01*
X5411429Y-20041524D02*
X5392381Y-20041524D01*
X5392381Y-20041524D02*
X5373333Y-20032000D01*
X5373333Y-20032000D02*
X5363810Y-20022476D01*
X5363810Y-20022476D02*
X5354286Y-20003429D01*
X5354286Y-20003429D02*
X5344762Y-19965333D01*
X5344762Y-19965333D02*
X5344762Y-19917714D01*
X5344762Y-19917714D02*
X5354286Y-19879619D01*
X5354286Y-19879619D02*
X5363810Y-19860571D01*
X5363810Y-19860571D02*
X5373333Y-19851048D01*
X5373333Y-19851048D02*
X5392381Y-19841524D01*
X5544762Y-20041524D02*
X5544762Y-19908190D01*
X5544762Y-19927238D02*
X5554286Y-19917714D01*
X5554286Y-19917714D02*
X5573333Y-19908190D01*
X5573333Y-19908190D02*
X5601905Y-19908190D01*
X5601905Y-19908190D02*
X5620952Y-19917714D01*
X5620952Y-19917714D02*
X5630476Y-19936762D01*
X5630476Y-19936762D02*
X5630476Y-20041524D01*
X5630476Y-19936762D02*
X5640000Y-19917714D01*
X5640000Y-19917714D02*
X5659048Y-19908190D01*
X5659048Y-19908190D02*
X5687619Y-19908190D01*
X5687619Y-19908190D02*
X5706667Y-19917714D01*
X5706667Y-19917714D02*
X5716190Y-19936762D01*
X5716190Y-19936762D02*
X5716190Y-20041524D01*
X5811429Y-20041524D02*
X5811429Y-19908190D01*
X5811429Y-19927238D02*
X5820952Y-19917714D01*
X5820952Y-19917714D02*
X5840000Y-19908190D01*
X5840000Y-19908190D02*
X5868571Y-19908190D01*
X5868571Y-19908190D02*
X5887619Y-19917714D01*
X5887619Y-19917714D02*
X5897143Y-19936762D01*
X5897143Y-19936762D02*
X5897143Y-20041524D01*
X5897143Y-19936762D02*
X5906667Y-19917714D01*
X5906667Y-19917714D02*
X5925714Y-19908190D01*
X5925714Y-19908190D02*
X5954286Y-19908190D01*
X5954286Y-19908190D02*
X5973333Y-19917714D01*
X5973333Y-19917714D02*
X5982857Y-19936762D01*
X5982857Y-19936762D02*
X5982857Y-20041524D01*
X6373333Y-19832000D02*
X6201905Y-20089143D01*
X6630476Y-19841524D02*
X6649524Y-19841524D01*
X6649524Y-19841524D02*
X6668572Y-19851048D01*
X6668572Y-19851048D02*
X6678095Y-19860571D01*
X6678095Y-19860571D02*
X6687619Y-19879619D01*
X6687619Y-19879619D02*
X6697143Y-19917714D01*
X6697143Y-19917714D02*
X6697143Y-19965333D01*
X6697143Y-19965333D02*
X6687619Y-20003429D01*
X6687619Y-20003429D02*
X6678095Y-20022476D01*
X6678095Y-20022476D02*
X6668572Y-20032000D01*
X6668572Y-20032000D02*
X6649524Y-20041524D01*
X6649524Y-20041524D02*
X6630476Y-20041524D01*
X6630476Y-20041524D02*
X6611429Y-20032000D01*
X6611429Y-20032000D02*
X6601905Y-20022476D01*
X6601905Y-20022476D02*
X6592381Y-20003429D01*
X6592381Y-20003429D02*
X6582857Y-19965333D01*
X6582857Y-19965333D02*
X6582857Y-19917714D01*
X6582857Y-19917714D02*
X6592381Y-19879619D01*
X6592381Y-19879619D02*
X6601905Y-19860571D01*
X6601905Y-19860571D02*
X6611429Y-19851048D01*
X6611429Y-19851048D02*
X6630476Y-19841524D01*
X6782857Y-20022476D02*
X6792381Y-20032000D01*
X6792381Y-20032000D02*
X6782857Y-20041524D01*
X6782857Y-20041524D02*
X6773333Y-20032000D01*
X6773333Y-20032000D02*
X6782857Y-20022476D01*
X6782857Y-20022476D02*
X6782857Y-20041524D01*
X6916191Y-19841524D02*
X6935238Y-19841524D01*
X6935238Y-19841524D02*
X6954286Y-19851048D01*
X6954286Y-19851048D02*
X6963810Y-19860571D01*
X6963810Y-19860571D02*
X6973333Y-19879619D01*
X6973333Y-19879619D02*
X6982857Y-19917714D01*
X6982857Y-19917714D02*
X6982857Y-19965333D01*
X6982857Y-19965333D02*
X6973333Y-20003429D01*
X6973333Y-20003429D02*
X6963810Y-20022476D01*
X6963810Y-20022476D02*
X6954286Y-20032000D01*
X6954286Y-20032000D02*
X6935238Y-20041524D01*
X6935238Y-20041524D02*
X6916191Y-20041524D01*
X6916191Y-20041524D02*
X6897143Y-20032000D01*
X6897143Y-20032000D02*
X6887619Y-20022476D01*
X6887619Y-20022476D02*
X6878095Y-20003429D01*
X6878095Y-20003429D02*
X6868572Y-19965333D01*
X6868572Y-19965333D02*
X6868572Y-19917714D01*
X6868572Y-19917714D02*
X6878095Y-19879619D01*
X6878095Y-19879619D02*
X6887619Y-19860571D01*
X6887619Y-19860571D02*
X6897143Y-19851048D01*
X6897143Y-19851048D02*
X6916191Y-19841524D01*
X7049524Y-19841524D02*
X7182857Y-19841524D01*
X7182857Y-19841524D02*
X7097143Y-20041524D01*
X7297143Y-19841524D02*
X7316191Y-19841524D01*
X7316191Y-19841524D02*
X7335238Y-19851048D01*
X7335238Y-19851048D02*
X7344762Y-19860571D01*
X7344762Y-19860571D02*
X7354286Y-19879619D01*
X7354286Y-19879619D02*
X7363810Y-19917714D01*
X7363810Y-19917714D02*
X7363810Y-19965333D01*
X7363810Y-19965333D02*
X7354286Y-20003429D01*
X7354286Y-20003429D02*
X7344762Y-20022476D01*
X7344762Y-20022476D02*
X7335238Y-20032000D01*
X7335238Y-20032000D02*
X7316191Y-20041524D01*
X7316191Y-20041524D02*
X7297143Y-20041524D01*
X7297143Y-20041524D02*
X7278095Y-20032000D01*
X7278095Y-20032000D02*
X7268572Y-20022476D01*
X7268572Y-20022476D02*
X7259048Y-20003429D01*
X7259048Y-20003429D02*
X7249524Y-19965333D01*
X7249524Y-19965333D02*
X7249524Y-19917714D01*
X7249524Y-19917714D02*
X7259048Y-19879619D01*
X7259048Y-19879619D02*
X7268572Y-19860571D01*
X7268572Y-19860571D02*
X7278095Y-19851048D01*
X7278095Y-19851048D02*
X7297143Y-19841524D01*
X7459048Y-20041524D02*
X7497143Y-20041524D01*
X7497143Y-20041524D02*
X7516191Y-20032000D01*
X7516191Y-20032000D02*
X7525714Y-20022476D01*
X7525714Y-20022476D02*
X7544762Y-19993905D01*
X7544762Y-19993905D02*
X7554286Y-19955810D01*
X7554286Y-19955810D02*
X7554286Y-19879619D01*
X7554286Y-19879619D02*
X7544762Y-19860571D01*
X7544762Y-19860571D02*
X7535238Y-19851048D01*
X7535238Y-19851048D02*
X7516191Y-19841524D01*
X7516191Y-19841524D02*
X7478095Y-19841524D01*
X7478095Y-19841524D02*
X7459048Y-19851048D01*
X7459048Y-19851048D02*
X7449524Y-19860571D01*
X7449524Y-19860571D02*
X7440000Y-19879619D01*
X7440000Y-19879619D02*
X7440000Y-19927238D01*
X7440000Y-19927238D02*
X7449524Y-19946286D01*
X7449524Y-19946286D02*
X7459048Y-19955810D01*
X7459048Y-19955810D02*
X7478095Y-19965333D01*
X7478095Y-19965333D02*
X7516191Y-19965333D01*
X7516191Y-19965333D02*
X7535238Y-19955810D01*
X7535238Y-19955810D02*
X7544762Y-19946286D01*
X7544762Y-19946286D02*
X7554286Y-19927238D01*
X7630476Y-19841524D02*
X7630476Y-19879619D01*
X7706667Y-19841524D02*
X7706667Y-19879619D01*
X8001905Y-20117714D02*
X7992381Y-20108190D01*
X7992381Y-20108190D02*
X7973334Y-20079619D01*
X7973334Y-20079619D02*
X7963810Y-20060571D01*
X7963810Y-20060571D02*
X7954286Y-20032000D01*
X7954286Y-20032000D02*
X7944762Y-19984381D01*
X7944762Y-19984381D02*
X7944762Y-19946286D01*
X7944762Y-19946286D02*
X7954286Y-19898667D01*
X7954286Y-19898667D02*
X7963810Y-19870095D01*
X7963810Y-19870095D02*
X7973334Y-19851048D01*
X7973334Y-19851048D02*
X7992381Y-19822476D01*
X7992381Y-19822476D02*
X8001905Y-19812952D01*
X8163810Y-19908190D02*
X8163810Y-20041524D01*
X8116191Y-19832000D02*
X8068572Y-19974857D01*
X8068572Y-19974857D02*
X8192381Y-19974857D01*
X8420953Y-20041524D02*
X8420953Y-19841524D01*
X8506667Y-20041524D02*
X8506667Y-19936762D01*
X8506667Y-19936762D02*
X8497143Y-19917714D01*
X8497143Y-19917714D02*
X8478096Y-19908190D01*
X8478096Y-19908190D02*
X8449524Y-19908190D01*
X8449524Y-19908190D02*
X8430477Y-19917714D01*
X8430477Y-19917714D02*
X8420953Y-19927238D01*
X8630477Y-20041524D02*
X8611429Y-20032000D01*
X8611429Y-20032000D02*
X8601905Y-20022476D01*
X8601905Y-20022476D02*
X8592381Y-20003429D01*
X8592381Y-20003429D02*
X8592381Y-19946286D01*
X8592381Y-19946286D02*
X8601905Y-19927238D01*
X8601905Y-19927238D02*
X8611429Y-19917714D01*
X8611429Y-19917714D02*
X8630477Y-19908190D01*
X8630477Y-19908190D02*
X8659048Y-19908190D01*
X8659048Y-19908190D02*
X8678096Y-19917714D01*
X8678096Y-19917714D02*
X8687619Y-19927238D01*
X8687619Y-19927238D02*
X8697143Y-19946286D01*
X8697143Y-19946286D02*
X8697143Y-20003429D01*
X8697143Y-20003429D02*
X8687619Y-20022476D01*
X8687619Y-20022476D02*
X8678096Y-20032000D01*
X8678096Y-20032000D02*
X8659048Y-20041524D01*
X8659048Y-20041524D02*
X8630477Y-20041524D01*
X8811429Y-20041524D02*
X8792381Y-20032000D01*
X8792381Y-20032000D02*
X8782858Y-20012952D01*
X8782858Y-20012952D02*
X8782858Y-19841524D01*
X8963810Y-20032000D02*
X8944762Y-20041524D01*
X8944762Y-20041524D02*
X8906667Y-20041524D01*
X8906667Y-20041524D02*
X8887619Y-20032000D01*
X8887619Y-20032000D02*
X8878096Y-20012952D01*
X8878096Y-20012952D02*
X8878096Y-19936762D01*
X8878096Y-19936762D02*
X8887619Y-19917714D01*
X8887619Y-19917714D02*
X8906667Y-19908190D01*
X8906667Y-19908190D02*
X8944762Y-19908190D01*
X8944762Y-19908190D02*
X8963810Y-19917714D01*
X8963810Y-19917714D02*
X8973334Y-19936762D01*
X8973334Y-19936762D02*
X8973334Y-19955810D01*
X8973334Y-19955810D02*
X8878096Y-19974857D01*
X9049524Y-20032000D02*
X9068572Y-20041524D01*
X9068572Y-20041524D02*
X9106667Y-20041524D01*
X9106667Y-20041524D02*
X9125715Y-20032000D01*
X9125715Y-20032000D02*
X9135239Y-20012952D01*
X9135239Y-20012952D02*
X9135239Y-20003429D01*
X9135239Y-20003429D02*
X9125715Y-19984381D01*
X9125715Y-19984381D02*
X9106667Y-19974857D01*
X9106667Y-19974857D02*
X9078096Y-19974857D01*
X9078096Y-19974857D02*
X9059048Y-19965333D01*
X9059048Y-19965333D02*
X9049524Y-19946286D01*
X9049524Y-19946286D02*
X9049524Y-19936762D01*
X9049524Y-19936762D02*
X9059048Y-19917714D01*
X9059048Y-19917714D02*
X9078096Y-19908190D01*
X9078096Y-19908190D02*
X9106667Y-19908190D01*
X9106667Y-19908190D02*
X9125715Y-19917714D01*
X9201905Y-20117714D02*
X9211429Y-20108190D01*
X9211429Y-20108190D02*
X9230477Y-20079619D01*
X9230477Y-20079619D02*
X9240000Y-20060571D01*
X9240000Y-20060571D02*
X9249524Y-20032000D01*
X9249524Y-20032000D02*
X9259048Y-19984381D01*
X9259048Y-19984381D02*
X9259048Y-19946286D01*
X9259048Y-19946286D02*
X9249524Y-19898667D01*
X9249524Y-19898667D02*
X9240000Y-19870095D01*
X9240000Y-19870095D02*
X9230477Y-19851048D01*
X9230477Y-19851048D02*
X9211429Y-19822476D01*
X9211429Y-19822476D02*
X9201905Y-19812952D01*
X9563810Y-20117714D02*
X9554286Y-20108190D01*
X9554286Y-20108190D02*
X9535239Y-20079619D01*
X9535239Y-20079619D02*
X9525715Y-20060571D01*
X9525715Y-20060571D02*
X9516191Y-20032000D01*
X9516191Y-20032000D02*
X9506667Y-19984381D01*
X9506667Y-19984381D02*
X9506667Y-19946286D01*
X9506667Y-19946286D02*
X9516191Y-19898667D01*
X9516191Y-19898667D02*
X9525715Y-19870095D01*
X9525715Y-19870095D02*
X9535239Y-19851048D01*
X9535239Y-19851048D02*
X9554286Y-19822476D01*
X9554286Y-19822476D02*
X9563810Y-19812952D01*
X9640000Y-19908190D02*
X9640000Y-20041524D01*
X9640000Y-19927238D02*
X9649524Y-19917714D01*
X9649524Y-19917714D02*
X9668572Y-19908190D01*
X9668572Y-19908190D02*
X9697143Y-19908190D01*
X9697143Y-19908190D02*
X9716191Y-19917714D01*
X9716191Y-19917714D02*
X9725715Y-19936762D01*
X9725715Y-19936762D02*
X9725715Y-20041524D01*
X9849524Y-20041524D02*
X9830477Y-20032000D01*
X9830477Y-20032000D02*
X9820953Y-20022476D01*
X9820953Y-20022476D02*
X9811429Y-20003429D01*
X9811429Y-20003429D02*
X9811429Y-19946286D01*
X9811429Y-19946286D02*
X9820953Y-19927238D01*
X9820953Y-19927238D02*
X9830477Y-19917714D01*
X9830477Y-19917714D02*
X9849524Y-19908190D01*
X9849524Y-19908190D02*
X9878096Y-19908190D01*
X9878096Y-19908190D02*
X9897143Y-19917714D01*
X9897143Y-19917714D02*
X9906667Y-19927238D01*
X9906667Y-19927238D02*
X9916191Y-19946286D01*
X9916191Y-19946286D02*
X9916191Y-20003429D01*
X9916191Y-20003429D02*
X9906667Y-20022476D01*
X9906667Y-20022476D02*
X9897143Y-20032000D01*
X9897143Y-20032000D02*
X9878096Y-20041524D01*
X9878096Y-20041524D02*
X9849524Y-20041524D01*
X9973334Y-19908190D02*
X10049524Y-19908190D01*
X10001905Y-19841524D02*
X10001905Y-20012952D01*
X10001905Y-20012952D02*
X10011429Y-20032000D01*
X10011429Y-20032000D02*
X10030477Y-20041524D01*
X10030477Y-20041524D02*
X10049524Y-20041524D01*
X10268572Y-19908190D02*
X10268572Y-20108190D01*
X10268572Y-19917714D02*
X10287620Y-19908190D01*
X10287620Y-19908190D02*
X10325715Y-19908190D01*
X10325715Y-19908190D02*
X10344762Y-19917714D01*
X10344762Y-19917714D02*
X10354286Y-19927238D01*
X10354286Y-19927238D02*
X10363810Y-19946286D01*
X10363810Y-19946286D02*
X10363810Y-20003429D01*
X10363810Y-20003429D02*
X10354286Y-20022476D01*
X10354286Y-20022476D02*
X10344762Y-20032000D01*
X10344762Y-20032000D02*
X10325715Y-20041524D01*
X10325715Y-20041524D02*
X10287620Y-20041524D01*
X10287620Y-20041524D02*
X10268572Y-20032000D01*
X10478096Y-20041524D02*
X10459048Y-20032000D01*
X10459048Y-20032000D02*
X10449524Y-20012952D01*
X10449524Y-20012952D02*
X10449524Y-19841524D01*
X10640001Y-20041524D02*
X10640001Y-19936762D01*
X10640001Y-19936762D02*
X10630477Y-19917714D01*
X10630477Y-19917714D02*
X10611429Y-19908190D01*
X10611429Y-19908190D02*
X10573334Y-19908190D01*
X10573334Y-19908190D02*
X10554286Y-19917714D01*
X10640001Y-20032000D02*
X10620953Y-20041524D01*
X10620953Y-20041524D02*
X10573334Y-20041524D01*
X10573334Y-20041524D02*
X10554286Y-20032000D01*
X10554286Y-20032000D02*
X10544762Y-20012952D01*
X10544762Y-20012952D02*
X10544762Y-19993905D01*
X10544762Y-19993905D02*
X10554286Y-19974857D01*
X10554286Y-19974857D02*
X10573334Y-19965333D01*
X10573334Y-19965333D02*
X10620953Y-19965333D01*
X10620953Y-19965333D02*
X10640001Y-19955810D01*
X10706667Y-19908190D02*
X10782858Y-19908190D01*
X10735239Y-19841524D02*
X10735239Y-20012952D01*
X10735239Y-20012952D02*
X10744762Y-20032000D01*
X10744762Y-20032000D02*
X10763810Y-20041524D01*
X10763810Y-20041524D02*
X10782858Y-20041524D01*
X10925715Y-20032000D02*
X10906667Y-20041524D01*
X10906667Y-20041524D02*
X10868572Y-20041524D01*
X10868572Y-20041524D02*
X10849524Y-20032000D01*
X10849524Y-20032000D02*
X10840001Y-20012952D01*
X10840001Y-20012952D02*
X10840001Y-19936762D01*
X10840001Y-19936762D02*
X10849524Y-19917714D01*
X10849524Y-19917714D02*
X10868572Y-19908190D01*
X10868572Y-19908190D02*
X10906667Y-19908190D01*
X10906667Y-19908190D02*
X10925715Y-19917714D01*
X10925715Y-19917714D02*
X10935239Y-19936762D01*
X10935239Y-19936762D02*
X10935239Y-19955810D01*
X10935239Y-19955810D02*
X10840001Y-19974857D01*
X11106667Y-20041524D02*
X11106667Y-19841524D01*
X11106667Y-20032000D02*
X11087620Y-20041524D01*
X11087620Y-20041524D02*
X11049524Y-20041524D01*
X11049524Y-20041524D02*
X11030477Y-20032000D01*
X11030477Y-20032000D02*
X11020953Y-20022476D01*
X11020953Y-20022476D02*
X11011429Y-20003429D01*
X11011429Y-20003429D02*
X11011429Y-19946286D01*
X11011429Y-19946286D02*
X11020953Y-19927238D01*
X11020953Y-19927238D02*
X11030477Y-19917714D01*
X11030477Y-19917714D02*
X11049524Y-19908190D01*
X11049524Y-19908190D02*
X11087620Y-19908190D01*
X11087620Y-19908190D02*
X11106667Y-19917714D01*
X11182858Y-20117714D02*
X11192381Y-20108190D01*
X11192381Y-20108190D02*
X11211429Y-20079619D01*
X11211429Y-20079619D02*
X11220953Y-20060571D01*
X11220953Y-20060571D02*
X11230477Y-20032000D01*
X11230477Y-20032000D02*
X11240000Y-19984381D01*
X11240000Y-19984381D02*
X11240000Y-19946286D01*
X11240000Y-19946286D02*
X11230477Y-19898667D01*
X11230477Y-19898667D02*
X11220953Y-19870095D01*
X11220953Y-19870095D02*
X11211429Y-19851048D01*
X11211429Y-19851048D02*
X11192381Y-19822476D01*
X11192381Y-19822476D02*
X11182858Y-19812952D01*
X4440000Y-20249000D02*
G75*
G03*
X4440000Y-20249000I-100000J0D01*
G01*
X4668571Y-20141524D02*
X4792381Y-20141524D01*
X4792381Y-20141524D02*
X4725714Y-20217714D01*
X4725714Y-20217714D02*
X4754286Y-20217714D01*
X4754286Y-20217714D02*
X4773333Y-20227238D01*
X4773333Y-20227238D02*
X4782857Y-20236762D01*
X4782857Y-20236762D02*
X4792381Y-20255810D01*
X4792381Y-20255810D02*
X4792381Y-20303429D01*
X4792381Y-20303429D02*
X4782857Y-20322476D01*
X4782857Y-20322476D02*
X4773333Y-20332000D01*
X4773333Y-20332000D02*
X4754286Y-20341524D01*
X4754286Y-20341524D02*
X4697143Y-20341524D01*
X4697143Y-20341524D02*
X4678095Y-20332000D01*
X4678095Y-20332000D02*
X4668571Y-20322476D01*
X4878095Y-20322476D02*
X4887619Y-20332000D01*
X4887619Y-20332000D02*
X4878095Y-20341524D01*
X4878095Y-20341524D02*
X4868571Y-20332000D01*
X4868571Y-20332000D02*
X4878095Y-20322476D01*
X4878095Y-20322476D02*
X4878095Y-20341524D01*
X4963810Y-20160571D02*
X4973333Y-20151048D01*
X4973333Y-20151048D02*
X4992381Y-20141524D01*
X4992381Y-20141524D02*
X5040000Y-20141524D01*
X5040000Y-20141524D02*
X5059048Y-20151048D01*
X5059048Y-20151048D02*
X5068571Y-20160571D01*
X5068571Y-20160571D02*
X5078095Y-20179619D01*
X5078095Y-20179619D02*
X5078095Y-20198667D01*
X5078095Y-20198667D02*
X5068571Y-20227238D01*
X5068571Y-20227238D02*
X4954286Y-20341524D01*
X4954286Y-20341524D02*
X5078095Y-20341524D01*
X5201905Y-20141524D02*
X5220952Y-20141524D01*
X5220952Y-20141524D02*
X5240000Y-20151048D01*
X5240000Y-20151048D02*
X5249524Y-20160571D01*
X5249524Y-20160571D02*
X5259048Y-20179619D01*
X5259048Y-20179619D02*
X5268571Y-20217714D01*
X5268571Y-20217714D02*
X5268571Y-20265333D01*
X5268571Y-20265333D02*
X5259048Y-20303429D01*
X5259048Y-20303429D02*
X5249524Y-20322476D01*
X5249524Y-20322476D02*
X5240000Y-20332000D01*
X5240000Y-20332000D02*
X5220952Y-20341524D01*
X5220952Y-20341524D02*
X5201905Y-20341524D01*
X5201905Y-20341524D02*
X5182857Y-20332000D01*
X5182857Y-20332000D02*
X5173333Y-20322476D01*
X5173333Y-20322476D02*
X5163810Y-20303429D01*
X5163810Y-20303429D02*
X5154286Y-20265333D01*
X5154286Y-20265333D02*
X5154286Y-20217714D01*
X5154286Y-20217714D02*
X5163810Y-20179619D01*
X5163810Y-20179619D02*
X5173333Y-20160571D01*
X5173333Y-20160571D02*
X5182857Y-20151048D01*
X5182857Y-20151048D02*
X5201905Y-20141524D01*
X5392381Y-20141524D02*
X5411429Y-20141524D01*
X5411429Y-20141524D02*
X5430476Y-20151048D01*
X5430476Y-20151048D02*
X5440000Y-20160571D01*
X5440000Y-20160571D02*
X5449524Y-20179619D01*
X5449524Y-20179619D02*
X5459048Y-20217714D01*
X5459048Y-20217714D02*
X5459048Y-20265333D01*
X5459048Y-20265333D02*
X5449524Y-20303429D01*
X5449524Y-20303429D02*
X5440000Y-20322476D01*
X5440000Y-20322476D02*
X5430476Y-20332000D01*
X5430476Y-20332000D02*
X5411429Y-20341524D01*
X5411429Y-20341524D02*
X5392381Y-20341524D01*
X5392381Y-20341524D02*
X5373333Y-20332000D01*
X5373333Y-20332000D02*
X5363810Y-20322476D01*
X5363810Y-20322476D02*
X5354286Y-20303429D01*
X5354286Y-20303429D02*
X5344762Y-20265333D01*
X5344762Y-20265333D02*
X5344762Y-20217714D01*
X5344762Y-20217714D02*
X5354286Y-20179619D01*
X5354286Y-20179619D02*
X5363810Y-20160571D01*
X5363810Y-20160571D02*
X5373333Y-20151048D01*
X5373333Y-20151048D02*
X5392381Y-20141524D01*
X5544762Y-20341524D02*
X5544762Y-20208190D01*
X5544762Y-20227238D02*
X5554286Y-20217714D01*
X5554286Y-20217714D02*
X5573333Y-20208190D01*
X5573333Y-20208190D02*
X5601905Y-20208190D01*
X5601905Y-20208190D02*
X5620952Y-20217714D01*
X5620952Y-20217714D02*
X5630476Y-20236762D01*
X5630476Y-20236762D02*
X5630476Y-20341524D01*
X5630476Y-20236762D02*
X5640000Y-20217714D01*
X5640000Y-20217714D02*
X5659048Y-20208190D01*
X5659048Y-20208190D02*
X5687619Y-20208190D01*
X5687619Y-20208190D02*
X5706667Y-20217714D01*
X5706667Y-20217714D02*
X5716190Y-20236762D01*
X5716190Y-20236762D02*
X5716190Y-20341524D01*
X5811429Y-20341524D02*
X5811429Y-20208190D01*
X5811429Y-20227238D02*
X5820952Y-20217714D01*
X5820952Y-20217714D02*
X5840000Y-20208190D01*
X5840000Y-20208190D02*
X5868571Y-20208190D01*
X5868571Y-20208190D02*
X5887619Y-20217714D01*
X5887619Y-20217714D02*
X5897143Y-20236762D01*
X5897143Y-20236762D02*
X5897143Y-20341524D01*
X5897143Y-20236762D02*
X5906667Y-20217714D01*
X5906667Y-20217714D02*
X5925714Y-20208190D01*
X5925714Y-20208190D02*
X5954286Y-20208190D01*
X5954286Y-20208190D02*
X5973333Y-20217714D01*
X5973333Y-20217714D02*
X5982857Y-20236762D01*
X5982857Y-20236762D02*
X5982857Y-20341524D01*
X6373333Y-20132000D02*
X6201905Y-20389143D01*
X6630476Y-20141524D02*
X6649524Y-20141524D01*
X6649524Y-20141524D02*
X6668572Y-20151048D01*
X6668572Y-20151048D02*
X6678095Y-20160571D01*
X6678095Y-20160571D02*
X6687619Y-20179619D01*
X6687619Y-20179619D02*
X6697143Y-20217714D01*
X6697143Y-20217714D02*
X6697143Y-20265333D01*
X6697143Y-20265333D02*
X6687619Y-20303429D01*
X6687619Y-20303429D02*
X6678095Y-20322476D01*
X6678095Y-20322476D02*
X6668572Y-20332000D01*
X6668572Y-20332000D02*
X6649524Y-20341524D01*
X6649524Y-20341524D02*
X6630476Y-20341524D01*
X6630476Y-20341524D02*
X6611429Y-20332000D01*
X6611429Y-20332000D02*
X6601905Y-20322476D01*
X6601905Y-20322476D02*
X6592381Y-20303429D01*
X6592381Y-20303429D02*
X6582857Y-20265333D01*
X6582857Y-20265333D02*
X6582857Y-20217714D01*
X6582857Y-20217714D02*
X6592381Y-20179619D01*
X6592381Y-20179619D02*
X6601905Y-20160571D01*
X6601905Y-20160571D02*
X6611429Y-20151048D01*
X6611429Y-20151048D02*
X6630476Y-20141524D01*
X6782857Y-20322476D02*
X6792381Y-20332000D01*
X6792381Y-20332000D02*
X6782857Y-20341524D01*
X6782857Y-20341524D02*
X6773333Y-20332000D01*
X6773333Y-20332000D02*
X6782857Y-20322476D01*
X6782857Y-20322476D02*
X6782857Y-20341524D01*
X6982857Y-20341524D02*
X6868572Y-20341524D01*
X6925714Y-20341524D02*
X6925714Y-20141524D01*
X6925714Y-20141524D02*
X6906667Y-20170095D01*
X6906667Y-20170095D02*
X6887619Y-20189143D01*
X6887619Y-20189143D02*
X6868572Y-20198667D01*
X7059048Y-20160571D02*
X7068572Y-20151048D01*
X7068572Y-20151048D02*
X7087619Y-20141524D01*
X7087619Y-20141524D02*
X7135238Y-20141524D01*
X7135238Y-20141524D02*
X7154286Y-20151048D01*
X7154286Y-20151048D02*
X7163810Y-20160571D01*
X7163810Y-20160571D02*
X7173333Y-20179619D01*
X7173333Y-20179619D02*
X7173333Y-20198667D01*
X7173333Y-20198667D02*
X7163810Y-20227238D01*
X7163810Y-20227238D02*
X7049524Y-20341524D01*
X7049524Y-20341524D02*
X7173333Y-20341524D01*
X7344762Y-20141524D02*
X7306667Y-20141524D01*
X7306667Y-20141524D02*
X7287619Y-20151048D01*
X7287619Y-20151048D02*
X7278095Y-20160571D01*
X7278095Y-20160571D02*
X7259048Y-20189143D01*
X7259048Y-20189143D02*
X7249524Y-20227238D01*
X7249524Y-20227238D02*
X7249524Y-20303429D01*
X7249524Y-20303429D02*
X7259048Y-20322476D01*
X7259048Y-20322476D02*
X7268572Y-20332000D01*
X7268572Y-20332000D02*
X7287619Y-20341524D01*
X7287619Y-20341524D02*
X7325714Y-20341524D01*
X7325714Y-20341524D02*
X7344762Y-20332000D01*
X7344762Y-20332000D02*
X7354286Y-20322476D01*
X7354286Y-20322476D02*
X7363810Y-20303429D01*
X7363810Y-20303429D02*
X7363810Y-20255810D01*
X7363810Y-20255810D02*
X7354286Y-20236762D01*
X7354286Y-20236762D02*
X7344762Y-20227238D01*
X7344762Y-20227238D02*
X7325714Y-20217714D01*
X7325714Y-20217714D02*
X7287619Y-20217714D01*
X7287619Y-20217714D02*
X7268572Y-20227238D01*
X7268572Y-20227238D02*
X7259048Y-20236762D01*
X7259048Y-20236762D02*
X7249524Y-20255810D01*
X7487619Y-20141524D02*
X7506667Y-20141524D01*
X7506667Y-20141524D02*
X7525714Y-20151048D01*
X7525714Y-20151048D02*
X7535238Y-20160571D01*
X7535238Y-20160571D02*
X7544762Y-20179619D01*
X7544762Y-20179619D02*
X7554286Y-20217714D01*
X7554286Y-20217714D02*
X7554286Y-20265333D01*
X7554286Y-20265333D02*
X7544762Y-20303429D01*
X7544762Y-20303429D02*
X7535238Y-20322476D01*
X7535238Y-20322476D02*
X7525714Y-20332000D01*
X7525714Y-20332000D02*
X7506667Y-20341524D01*
X7506667Y-20341524D02*
X7487619Y-20341524D01*
X7487619Y-20341524D02*
X7468572Y-20332000D01*
X7468572Y-20332000D02*
X7459048Y-20322476D01*
X7459048Y-20322476D02*
X7449524Y-20303429D01*
X7449524Y-20303429D02*
X7440000Y-20265333D01*
X7440000Y-20265333D02*
X7440000Y-20217714D01*
X7440000Y-20217714D02*
X7449524Y-20179619D01*
X7449524Y-20179619D02*
X7459048Y-20160571D01*
X7459048Y-20160571D02*
X7468572Y-20151048D01*
X7468572Y-20151048D02*
X7487619Y-20141524D01*
X7630476Y-20141524D02*
X7630476Y-20179619D01*
X7706667Y-20141524D02*
X7706667Y-20179619D01*
X8001905Y-20417714D02*
X7992381Y-20408190D01*
X7992381Y-20408190D02*
X7973334Y-20379619D01*
X7973334Y-20379619D02*
X7963810Y-20360571D01*
X7963810Y-20360571D02*
X7954286Y-20332000D01*
X7954286Y-20332000D02*
X7944762Y-20284381D01*
X7944762Y-20284381D02*
X7944762Y-20246286D01*
X7944762Y-20246286D02*
X7954286Y-20198667D01*
X7954286Y-20198667D02*
X7963810Y-20170095D01*
X7963810Y-20170095D02*
X7973334Y-20151048D01*
X7973334Y-20151048D02*
X7992381Y-20122476D01*
X7992381Y-20122476D02*
X8001905Y-20112952D01*
X8163810Y-20141524D02*
X8125714Y-20141524D01*
X8125714Y-20141524D02*
X8106667Y-20151048D01*
X8106667Y-20151048D02*
X8097143Y-20160571D01*
X8097143Y-20160571D02*
X8078095Y-20189143D01*
X8078095Y-20189143D02*
X8068572Y-20227238D01*
X8068572Y-20227238D02*
X8068572Y-20303429D01*
X8068572Y-20303429D02*
X8078095Y-20322476D01*
X8078095Y-20322476D02*
X8087619Y-20332000D01*
X8087619Y-20332000D02*
X8106667Y-20341524D01*
X8106667Y-20341524D02*
X8144762Y-20341524D01*
X8144762Y-20341524D02*
X8163810Y-20332000D01*
X8163810Y-20332000D02*
X8173334Y-20322476D01*
X8173334Y-20322476D02*
X8182857Y-20303429D01*
X8182857Y-20303429D02*
X8182857Y-20255810D01*
X8182857Y-20255810D02*
X8173334Y-20236762D01*
X8173334Y-20236762D02*
X8163810Y-20227238D01*
X8163810Y-20227238D02*
X8144762Y-20217714D01*
X8144762Y-20217714D02*
X8106667Y-20217714D01*
X8106667Y-20217714D02*
X8087619Y-20227238D01*
X8087619Y-20227238D02*
X8078095Y-20236762D01*
X8078095Y-20236762D02*
X8068572Y-20255810D01*
X8420953Y-20341524D02*
X8420953Y-20141524D01*
X8506667Y-20341524D02*
X8506667Y-20236762D01*
X8506667Y-20236762D02*
X8497143Y-20217714D01*
X8497143Y-20217714D02*
X8478096Y-20208190D01*
X8478096Y-20208190D02*
X8449524Y-20208190D01*
X8449524Y-20208190D02*
X8430477Y-20217714D01*
X8430477Y-20217714D02*
X8420953Y-20227238D01*
X8630477Y-20341524D02*
X8611429Y-20332000D01*
X8611429Y-20332000D02*
X8601905Y-20322476D01*
X8601905Y-20322476D02*
X8592381Y-20303429D01*
X8592381Y-20303429D02*
X8592381Y-20246286D01*
X8592381Y-20246286D02*
X8601905Y-20227238D01*
X8601905Y-20227238D02*
X8611429Y-20217714D01*
X8611429Y-20217714D02*
X8630477Y-20208190D01*
X8630477Y-20208190D02*
X8659048Y-20208190D01*
X8659048Y-20208190D02*
X8678096Y-20217714D01*
X8678096Y-20217714D02*
X8687619Y-20227238D01*
X8687619Y-20227238D02*
X8697143Y-20246286D01*
X8697143Y-20246286D02*
X8697143Y-20303429D01*
X8697143Y-20303429D02*
X8687619Y-20322476D01*
X8687619Y-20322476D02*
X8678096Y-20332000D01*
X8678096Y-20332000D02*
X8659048Y-20341524D01*
X8659048Y-20341524D02*
X8630477Y-20341524D01*
X8811429Y-20341524D02*
X8792381Y-20332000D01*
X8792381Y-20332000D02*
X8782858Y-20312952D01*
X8782858Y-20312952D02*
X8782858Y-20141524D01*
X8963810Y-20332000D02*
X8944762Y-20341524D01*
X8944762Y-20341524D02*
X8906667Y-20341524D01*
X8906667Y-20341524D02*
X8887619Y-20332000D01*
X8887619Y-20332000D02*
X8878096Y-20312952D01*
X8878096Y-20312952D02*
X8878096Y-20236762D01*
X8878096Y-20236762D02*
X8887619Y-20217714D01*
X8887619Y-20217714D02*
X8906667Y-20208190D01*
X8906667Y-20208190D02*
X8944762Y-20208190D01*
X8944762Y-20208190D02*
X8963810Y-20217714D01*
X8963810Y-20217714D02*
X8973334Y-20236762D01*
X8973334Y-20236762D02*
X8973334Y-20255810D01*
X8973334Y-20255810D02*
X8878096Y-20274857D01*
X9049524Y-20332000D02*
X9068572Y-20341524D01*
X9068572Y-20341524D02*
X9106667Y-20341524D01*
X9106667Y-20341524D02*
X9125715Y-20332000D01*
X9125715Y-20332000D02*
X9135239Y-20312952D01*
X9135239Y-20312952D02*
X9135239Y-20303429D01*
X9135239Y-20303429D02*
X9125715Y-20284381D01*
X9125715Y-20284381D02*
X9106667Y-20274857D01*
X9106667Y-20274857D02*
X9078096Y-20274857D01*
X9078096Y-20274857D02*
X9059048Y-20265333D01*
X9059048Y-20265333D02*
X9049524Y-20246286D01*
X9049524Y-20246286D02*
X9049524Y-20236762D01*
X9049524Y-20236762D02*
X9059048Y-20217714D01*
X9059048Y-20217714D02*
X9078096Y-20208190D01*
X9078096Y-20208190D02*
X9106667Y-20208190D01*
X9106667Y-20208190D02*
X9125715Y-20217714D01*
X9201905Y-20417714D02*
X9211429Y-20408190D01*
X9211429Y-20408190D02*
X9230477Y-20379619D01*
X9230477Y-20379619D02*
X9240000Y-20360571D01*
X9240000Y-20360571D02*
X9249524Y-20332000D01*
X9249524Y-20332000D02*
X9259048Y-20284381D01*
X9259048Y-20284381D02*
X9259048Y-20246286D01*
X9259048Y-20246286D02*
X9249524Y-20198667D01*
X9249524Y-20198667D02*
X9240000Y-20170095D01*
X9240000Y-20170095D02*
X9230477Y-20151048D01*
X9230477Y-20151048D02*
X9211429Y-20122476D01*
X9211429Y-20122476D02*
X9201905Y-20112952D01*
X9563810Y-20417714D02*
X9554286Y-20408190D01*
X9554286Y-20408190D02*
X9535239Y-20379619D01*
X9535239Y-20379619D02*
X9525715Y-20360571D01*
X9525715Y-20360571D02*
X9516191Y-20332000D01*
X9516191Y-20332000D02*
X9506667Y-20284381D01*
X9506667Y-20284381D02*
X9506667Y-20246286D01*
X9506667Y-20246286D02*
X9516191Y-20198667D01*
X9516191Y-20198667D02*
X9525715Y-20170095D01*
X9525715Y-20170095D02*
X9535239Y-20151048D01*
X9535239Y-20151048D02*
X9554286Y-20122476D01*
X9554286Y-20122476D02*
X9563810Y-20112952D01*
X9640000Y-20208190D02*
X9640000Y-20341524D01*
X9640000Y-20227238D02*
X9649524Y-20217714D01*
X9649524Y-20217714D02*
X9668572Y-20208190D01*
X9668572Y-20208190D02*
X9697143Y-20208190D01*
X9697143Y-20208190D02*
X9716191Y-20217714D01*
X9716191Y-20217714D02*
X9725715Y-20236762D01*
X9725715Y-20236762D02*
X9725715Y-20341524D01*
X9849524Y-20341524D02*
X9830477Y-20332000D01*
X9830477Y-20332000D02*
X9820953Y-20322476D01*
X9820953Y-20322476D02*
X9811429Y-20303429D01*
X9811429Y-20303429D02*
X9811429Y-20246286D01*
X9811429Y-20246286D02*
X9820953Y-20227238D01*
X9820953Y-20227238D02*
X9830477Y-20217714D01*
X9830477Y-20217714D02*
X9849524Y-20208190D01*
X9849524Y-20208190D02*
X9878096Y-20208190D01*
X9878096Y-20208190D02*
X9897143Y-20217714D01*
X9897143Y-20217714D02*
X9906667Y-20227238D01*
X9906667Y-20227238D02*
X9916191Y-20246286D01*
X9916191Y-20246286D02*
X9916191Y-20303429D01*
X9916191Y-20303429D02*
X9906667Y-20322476D01*
X9906667Y-20322476D02*
X9897143Y-20332000D01*
X9897143Y-20332000D02*
X9878096Y-20341524D01*
X9878096Y-20341524D02*
X9849524Y-20341524D01*
X9973334Y-20208190D02*
X10049524Y-20208190D01*
X10001905Y-20141524D02*
X10001905Y-20312952D01*
X10001905Y-20312952D02*
X10011429Y-20332000D01*
X10011429Y-20332000D02*
X10030477Y-20341524D01*
X10030477Y-20341524D02*
X10049524Y-20341524D01*
X10268572Y-20208190D02*
X10268572Y-20408190D01*
X10268572Y-20217714D02*
X10287620Y-20208190D01*
X10287620Y-20208190D02*
X10325715Y-20208190D01*
X10325715Y-20208190D02*
X10344762Y-20217714D01*
X10344762Y-20217714D02*
X10354286Y-20227238D01*
X10354286Y-20227238D02*
X10363810Y-20246286D01*
X10363810Y-20246286D02*
X10363810Y-20303429D01*
X10363810Y-20303429D02*
X10354286Y-20322476D01*
X10354286Y-20322476D02*
X10344762Y-20332000D01*
X10344762Y-20332000D02*
X10325715Y-20341524D01*
X10325715Y-20341524D02*
X10287620Y-20341524D01*
X10287620Y-20341524D02*
X10268572Y-20332000D01*
X10478096Y-20341524D02*
X10459048Y-20332000D01*
X10459048Y-20332000D02*
X10449524Y-20312952D01*
X10449524Y-20312952D02*
X10449524Y-20141524D01*
X10640001Y-20341524D02*
X10640001Y-20236762D01*
X10640001Y-20236762D02*
X10630477Y-20217714D01*
X10630477Y-20217714D02*
X10611429Y-20208190D01*
X10611429Y-20208190D02*
X10573334Y-20208190D01*
X10573334Y-20208190D02*
X10554286Y-20217714D01*
X10640001Y-20332000D02*
X10620953Y-20341524D01*
X10620953Y-20341524D02*
X10573334Y-20341524D01*
X10573334Y-20341524D02*
X10554286Y-20332000D01*
X10554286Y-20332000D02*
X10544762Y-20312952D01*
X10544762Y-20312952D02*
X10544762Y-20293905D01*
X10544762Y-20293905D02*
X10554286Y-20274857D01*
X10554286Y-20274857D02*
X10573334Y-20265333D01*
X10573334Y-20265333D02*
X10620953Y-20265333D01*
X10620953Y-20265333D02*
X10640001Y-20255810D01*
X10706667Y-20208190D02*
X10782858Y-20208190D01*
X10735239Y-20141524D02*
X10735239Y-20312952D01*
X10735239Y-20312952D02*
X10744762Y-20332000D01*
X10744762Y-20332000D02*
X10763810Y-20341524D01*
X10763810Y-20341524D02*
X10782858Y-20341524D01*
X10925715Y-20332000D02*
X10906667Y-20341524D01*
X10906667Y-20341524D02*
X10868572Y-20341524D01*
X10868572Y-20341524D02*
X10849524Y-20332000D01*
X10849524Y-20332000D02*
X10840001Y-20312952D01*
X10840001Y-20312952D02*
X10840001Y-20236762D01*
X10840001Y-20236762D02*
X10849524Y-20217714D01*
X10849524Y-20217714D02*
X10868572Y-20208190D01*
X10868572Y-20208190D02*
X10906667Y-20208190D01*
X10906667Y-20208190D02*
X10925715Y-20217714D01*
X10925715Y-20217714D02*
X10935239Y-20236762D01*
X10935239Y-20236762D02*
X10935239Y-20255810D01*
X10935239Y-20255810D02*
X10840001Y-20274857D01*
X11106667Y-20341524D02*
X11106667Y-20141524D01*
X11106667Y-20332000D02*
X11087620Y-20341524D01*
X11087620Y-20341524D02*
X11049524Y-20341524D01*
X11049524Y-20341524D02*
X11030477Y-20332000D01*
X11030477Y-20332000D02*
X11020953Y-20322476D01*
X11020953Y-20322476D02*
X11011429Y-20303429D01*
X11011429Y-20303429D02*
X11011429Y-20246286D01*
X11011429Y-20246286D02*
X11020953Y-20227238D01*
X11020953Y-20227238D02*
X11030477Y-20217714D01*
X11030477Y-20217714D02*
X11049524Y-20208190D01*
X11049524Y-20208190D02*
X11087620Y-20208190D01*
X11087620Y-20208190D02*
X11106667Y-20217714D01*
X11182858Y-20417714D02*
X11192381Y-20408190D01*
X11192381Y-20408190D02*
X11211429Y-20379619D01*
X11211429Y-20379619D02*
X11220953Y-20360571D01*
X11220953Y-20360571D02*
X11230477Y-20332000D01*
X11230477Y-20332000D02*
X11240000Y-20284381D01*
X11240000Y-20284381D02*
X11240000Y-20246286D01*
X11240000Y-20246286D02*
X11230477Y-20198667D01*
X11230477Y-20198667D02*
X11220953Y-20170095D01*
X11220953Y-20170095D02*
X11211429Y-20151048D01*
X11211429Y-20151048D02*
X11192381Y-20122476D01*
X11192381Y-20122476D02*
X11182858Y-20112952D01*
X4340000Y-20469000D02*
X4340000Y-20669000D01*
X4240000Y-20569000D02*
X4440000Y-20569000D01*
X4668571Y-20461524D02*
X4792381Y-20461524D01*
X4792381Y-20461524D02*
X4725714Y-20537714D01*
X4725714Y-20537714D02*
X4754286Y-20537714D01*
X4754286Y-20537714D02*
X4773333Y-20547238D01*
X4773333Y-20547238D02*
X4782857Y-20556762D01*
X4782857Y-20556762D02*
X4792381Y-20575810D01*
X4792381Y-20575810D02*
X4792381Y-20623429D01*
X4792381Y-20623429D02*
X4782857Y-20642476D01*
X4782857Y-20642476D02*
X4773333Y-20652000D01*
X4773333Y-20652000D02*
X4754286Y-20661524D01*
X4754286Y-20661524D02*
X4697143Y-20661524D01*
X4697143Y-20661524D02*
X4678095Y-20652000D01*
X4678095Y-20652000D02*
X4668571Y-20642476D01*
X4878095Y-20642476D02*
X4887619Y-20652000D01*
X4887619Y-20652000D02*
X4878095Y-20661524D01*
X4878095Y-20661524D02*
X4868571Y-20652000D01*
X4868571Y-20652000D02*
X4878095Y-20642476D01*
X4878095Y-20642476D02*
X4878095Y-20661524D01*
X5068571Y-20461524D02*
X4973333Y-20461524D01*
X4973333Y-20461524D02*
X4963810Y-20556762D01*
X4963810Y-20556762D02*
X4973333Y-20547238D01*
X4973333Y-20547238D02*
X4992381Y-20537714D01*
X4992381Y-20537714D02*
X5040000Y-20537714D01*
X5040000Y-20537714D02*
X5059048Y-20547238D01*
X5059048Y-20547238D02*
X5068571Y-20556762D01*
X5068571Y-20556762D02*
X5078095Y-20575810D01*
X5078095Y-20575810D02*
X5078095Y-20623429D01*
X5078095Y-20623429D02*
X5068571Y-20642476D01*
X5068571Y-20642476D02*
X5059048Y-20652000D01*
X5059048Y-20652000D02*
X5040000Y-20661524D01*
X5040000Y-20661524D02*
X4992381Y-20661524D01*
X4992381Y-20661524D02*
X4973333Y-20652000D01*
X4973333Y-20652000D02*
X4963810Y-20642476D01*
X5201905Y-20461524D02*
X5220952Y-20461524D01*
X5220952Y-20461524D02*
X5240000Y-20471048D01*
X5240000Y-20471048D02*
X5249524Y-20480571D01*
X5249524Y-20480571D02*
X5259048Y-20499619D01*
X5259048Y-20499619D02*
X5268571Y-20537714D01*
X5268571Y-20537714D02*
X5268571Y-20585333D01*
X5268571Y-20585333D02*
X5259048Y-20623429D01*
X5259048Y-20623429D02*
X5249524Y-20642476D01*
X5249524Y-20642476D02*
X5240000Y-20652000D01*
X5240000Y-20652000D02*
X5220952Y-20661524D01*
X5220952Y-20661524D02*
X5201905Y-20661524D01*
X5201905Y-20661524D02*
X5182857Y-20652000D01*
X5182857Y-20652000D02*
X5173333Y-20642476D01*
X5173333Y-20642476D02*
X5163810Y-20623429D01*
X5163810Y-20623429D02*
X5154286Y-20585333D01*
X5154286Y-20585333D02*
X5154286Y-20537714D01*
X5154286Y-20537714D02*
X5163810Y-20499619D01*
X5163810Y-20499619D02*
X5173333Y-20480571D01*
X5173333Y-20480571D02*
X5182857Y-20471048D01*
X5182857Y-20471048D02*
X5201905Y-20461524D01*
X5392381Y-20461524D02*
X5411429Y-20461524D01*
X5411429Y-20461524D02*
X5430476Y-20471048D01*
X5430476Y-20471048D02*
X5440000Y-20480571D01*
X5440000Y-20480571D02*
X5449524Y-20499619D01*
X5449524Y-20499619D02*
X5459048Y-20537714D01*
X5459048Y-20537714D02*
X5459048Y-20585333D01*
X5459048Y-20585333D02*
X5449524Y-20623429D01*
X5449524Y-20623429D02*
X5440000Y-20642476D01*
X5440000Y-20642476D02*
X5430476Y-20652000D01*
X5430476Y-20652000D02*
X5411429Y-20661524D01*
X5411429Y-20661524D02*
X5392381Y-20661524D01*
X5392381Y-20661524D02*
X5373333Y-20652000D01*
X5373333Y-20652000D02*
X5363810Y-20642476D01*
X5363810Y-20642476D02*
X5354286Y-20623429D01*
X5354286Y-20623429D02*
X5344762Y-20585333D01*
X5344762Y-20585333D02*
X5344762Y-20537714D01*
X5344762Y-20537714D02*
X5354286Y-20499619D01*
X5354286Y-20499619D02*
X5363810Y-20480571D01*
X5363810Y-20480571D02*
X5373333Y-20471048D01*
X5373333Y-20471048D02*
X5392381Y-20461524D01*
X5544762Y-20661524D02*
X5544762Y-20528190D01*
X5544762Y-20547238D02*
X5554286Y-20537714D01*
X5554286Y-20537714D02*
X5573333Y-20528190D01*
X5573333Y-20528190D02*
X5601905Y-20528190D01*
X5601905Y-20528190D02*
X5620952Y-20537714D01*
X5620952Y-20537714D02*
X5630476Y-20556762D01*
X5630476Y-20556762D02*
X5630476Y-20661524D01*
X5630476Y-20556762D02*
X5640000Y-20537714D01*
X5640000Y-20537714D02*
X5659048Y-20528190D01*
X5659048Y-20528190D02*
X5687619Y-20528190D01*
X5687619Y-20528190D02*
X5706667Y-20537714D01*
X5706667Y-20537714D02*
X5716190Y-20556762D01*
X5716190Y-20556762D02*
X5716190Y-20661524D01*
X5811429Y-20661524D02*
X5811429Y-20528190D01*
X5811429Y-20547238D02*
X5820952Y-20537714D01*
X5820952Y-20537714D02*
X5840000Y-20528190D01*
X5840000Y-20528190D02*
X5868571Y-20528190D01*
X5868571Y-20528190D02*
X5887619Y-20537714D01*
X5887619Y-20537714D02*
X5897143Y-20556762D01*
X5897143Y-20556762D02*
X5897143Y-20661524D01*
X5897143Y-20556762D02*
X5906667Y-20537714D01*
X5906667Y-20537714D02*
X5925714Y-20528190D01*
X5925714Y-20528190D02*
X5954286Y-20528190D01*
X5954286Y-20528190D02*
X5973333Y-20537714D01*
X5973333Y-20537714D02*
X5982857Y-20556762D01*
X5982857Y-20556762D02*
X5982857Y-20661524D01*
X6373333Y-20452000D02*
X6201905Y-20709143D01*
X6630476Y-20461524D02*
X6649524Y-20461524D01*
X6649524Y-20461524D02*
X6668572Y-20471048D01*
X6668572Y-20471048D02*
X6678095Y-20480571D01*
X6678095Y-20480571D02*
X6687619Y-20499619D01*
X6687619Y-20499619D02*
X6697143Y-20537714D01*
X6697143Y-20537714D02*
X6697143Y-20585333D01*
X6697143Y-20585333D02*
X6687619Y-20623429D01*
X6687619Y-20623429D02*
X6678095Y-20642476D01*
X6678095Y-20642476D02*
X6668572Y-20652000D01*
X6668572Y-20652000D02*
X6649524Y-20661524D01*
X6649524Y-20661524D02*
X6630476Y-20661524D01*
X6630476Y-20661524D02*
X6611429Y-20652000D01*
X6611429Y-20652000D02*
X6601905Y-20642476D01*
X6601905Y-20642476D02*
X6592381Y-20623429D01*
X6592381Y-20623429D02*
X6582857Y-20585333D01*
X6582857Y-20585333D02*
X6582857Y-20537714D01*
X6582857Y-20537714D02*
X6592381Y-20499619D01*
X6592381Y-20499619D02*
X6601905Y-20480571D01*
X6601905Y-20480571D02*
X6611429Y-20471048D01*
X6611429Y-20471048D02*
X6630476Y-20461524D01*
X6782857Y-20642476D02*
X6792381Y-20652000D01*
X6792381Y-20652000D02*
X6782857Y-20661524D01*
X6782857Y-20661524D02*
X6773333Y-20652000D01*
X6773333Y-20652000D02*
X6782857Y-20642476D01*
X6782857Y-20642476D02*
X6782857Y-20661524D01*
X6982857Y-20661524D02*
X6868572Y-20661524D01*
X6925714Y-20661524D02*
X6925714Y-20461524D01*
X6925714Y-20461524D02*
X6906667Y-20490095D01*
X6906667Y-20490095D02*
X6887619Y-20509143D01*
X6887619Y-20509143D02*
X6868572Y-20518667D01*
X7049524Y-20461524D02*
X7173333Y-20461524D01*
X7173333Y-20461524D02*
X7106667Y-20537714D01*
X7106667Y-20537714D02*
X7135238Y-20537714D01*
X7135238Y-20537714D02*
X7154286Y-20547238D01*
X7154286Y-20547238D02*
X7163810Y-20556762D01*
X7163810Y-20556762D02*
X7173333Y-20575810D01*
X7173333Y-20575810D02*
X7173333Y-20623429D01*
X7173333Y-20623429D02*
X7163810Y-20642476D01*
X7163810Y-20642476D02*
X7154286Y-20652000D01*
X7154286Y-20652000D02*
X7135238Y-20661524D01*
X7135238Y-20661524D02*
X7078095Y-20661524D01*
X7078095Y-20661524D02*
X7059048Y-20652000D01*
X7059048Y-20652000D02*
X7049524Y-20642476D01*
X7240000Y-20461524D02*
X7373333Y-20461524D01*
X7373333Y-20461524D02*
X7287619Y-20661524D01*
X7478095Y-20547238D02*
X7459048Y-20537714D01*
X7459048Y-20537714D02*
X7449524Y-20528190D01*
X7449524Y-20528190D02*
X7440000Y-20509143D01*
X7440000Y-20509143D02*
X7440000Y-20499619D01*
X7440000Y-20499619D02*
X7449524Y-20480571D01*
X7449524Y-20480571D02*
X7459048Y-20471048D01*
X7459048Y-20471048D02*
X7478095Y-20461524D01*
X7478095Y-20461524D02*
X7516191Y-20461524D01*
X7516191Y-20461524D02*
X7535238Y-20471048D01*
X7535238Y-20471048D02*
X7544762Y-20480571D01*
X7544762Y-20480571D02*
X7554286Y-20499619D01*
X7554286Y-20499619D02*
X7554286Y-20509143D01*
X7554286Y-20509143D02*
X7544762Y-20528190D01*
X7544762Y-20528190D02*
X7535238Y-20537714D01*
X7535238Y-20537714D02*
X7516191Y-20547238D01*
X7516191Y-20547238D02*
X7478095Y-20547238D01*
X7478095Y-20547238D02*
X7459048Y-20556762D01*
X7459048Y-20556762D02*
X7449524Y-20566286D01*
X7449524Y-20566286D02*
X7440000Y-20585333D01*
X7440000Y-20585333D02*
X7440000Y-20623429D01*
X7440000Y-20623429D02*
X7449524Y-20642476D01*
X7449524Y-20642476D02*
X7459048Y-20652000D01*
X7459048Y-20652000D02*
X7478095Y-20661524D01*
X7478095Y-20661524D02*
X7516191Y-20661524D01*
X7516191Y-20661524D02*
X7535238Y-20652000D01*
X7535238Y-20652000D02*
X7544762Y-20642476D01*
X7544762Y-20642476D02*
X7554286Y-20623429D01*
X7554286Y-20623429D02*
X7554286Y-20585333D01*
X7554286Y-20585333D02*
X7544762Y-20566286D01*
X7544762Y-20566286D02*
X7535238Y-20556762D01*
X7535238Y-20556762D02*
X7516191Y-20547238D01*
X7630476Y-20461524D02*
X7630476Y-20499619D01*
X7706667Y-20461524D02*
X7706667Y-20499619D01*
X8001905Y-20737714D02*
X7992381Y-20728190D01*
X7992381Y-20728190D02*
X7973334Y-20699619D01*
X7973334Y-20699619D02*
X7963810Y-20680571D01*
X7963810Y-20680571D02*
X7954286Y-20652000D01*
X7954286Y-20652000D02*
X7944762Y-20604381D01*
X7944762Y-20604381D02*
X7944762Y-20566286D01*
X7944762Y-20566286D02*
X7954286Y-20518667D01*
X7954286Y-20518667D02*
X7963810Y-20490095D01*
X7963810Y-20490095D02*
X7973334Y-20471048D01*
X7973334Y-20471048D02*
X7992381Y-20442476D01*
X7992381Y-20442476D02*
X8001905Y-20432952D01*
X8068572Y-20480571D02*
X8078095Y-20471048D01*
X8078095Y-20471048D02*
X8097143Y-20461524D01*
X8097143Y-20461524D02*
X8144762Y-20461524D01*
X8144762Y-20461524D02*
X8163810Y-20471048D01*
X8163810Y-20471048D02*
X8173334Y-20480571D01*
X8173334Y-20480571D02*
X8182857Y-20499619D01*
X8182857Y-20499619D02*
X8182857Y-20518667D01*
X8182857Y-20518667D02*
X8173334Y-20547238D01*
X8173334Y-20547238D02*
X8059048Y-20661524D01*
X8059048Y-20661524D02*
X8182857Y-20661524D01*
X8306667Y-20461524D02*
X8325715Y-20461524D01*
X8325715Y-20461524D02*
X8344762Y-20471048D01*
X8344762Y-20471048D02*
X8354286Y-20480571D01*
X8354286Y-20480571D02*
X8363810Y-20499619D01*
X8363810Y-20499619D02*
X8373334Y-20537714D01*
X8373334Y-20537714D02*
X8373334Y-20585333D01*
X8373334Y-20585333D02*
X8363810Y-20623429D01*
X8363810Y-20623429D02*
X8354286Y-20642476D01*
X8354286Y-20642476D02*
X8344762Y-20652000D01*
X8344762Y-20652000D02*
X8325715Y-20661524D01*
X8325715Y-20661524D02*
X8306667Y-20661524D01*
X8306667Y-20661524D02*
X8287619Y-20652000D01*
X8287619Y-20652000D02*
X8278095Y-20642476D01*
X8278095Y-20642476D02*
X8268572Y-20623429D01*
X8268572Y-20623429D02*
X8259048Y-20585333D01*
X8259048Y-20585333D02*
X8259048Y-20537714D01*
X8259048Y-20537714D02*
X8268572Y-20499619D01*
X8268572Y-20499619D02*
X8278095Y-20480571D01*
X8278095Y-20480571D02*
X8287619Y-20471048D01*
X8287619Y-20471048D02*
X8306667Y-20461524D01*
X8611429Y-20661524D02*
X8611429Y-20461524D01*
X8697143Y-20661524D02*
X8697143Y-20556762D01*
X8697143Y-20556762D02*
X8687619Y-20537714D01*
X8687619Y-20537714D02*
X8668572Y-20528190D01*
X8668572Y-20528190D02*
X8640000Y-20528190D01*
X8640000Y-20528190D02*
X8620953Y-20537714D01*
X8620953Y-20537714D02*
X8611429Y-20547238D01*
X8820953Y-20661524D02*
X8801905Y-20652000D01*
X8801905Y-20652000D02*
X8792381Y-20642476D01*
X8792381Y-20642476D02*
X8782858Y-20623429D01*
X8782858Y-20623429D02*
X8782858Y-20566286D01*
X8782858Y-20566286D02*
X8792381Y-20547238D01*
X8792381Y-20547238D02*
X8801905Y-20537714D01*
X8801905Y-20537714D02*
X8820953Y-20528190D01*
X8820953Y-20528190D02*
X8849524Y-20528190D01*
X8849524Y-20528190D02*
X8868572Y-20537714D01*
X8868572Y-20537714D02*
X8878096Y-20547238D01*
X8878096Y-20547238D02*
X8887619Y-20566286D01*
X8887619Y-20566286D02*
X8887619Y-20623429D01*
X8887619Y-20623429D02*
X8878096Y-20642476D01*
X8878096Y-20642476D02*
X8868572Y-20652000D01*
X8868572Y-20652000D02*
X8849524Y-20661524D01*
X8849524Y-20661524D02*
X8820953Y-20661524D01*
X9001905Y-20661524D02*
X8982858Y-20652000D01*
X8982858Y-20652000D02*
X8973334Y-20632952D01*
X8973334Y-20632952D02*
X8973334Y-20461524D01*
X9154286Y-20652000D02*
X9135239Y-20661524D01*
X9135239Y-20661524D02*
X9097143Y-20661524D01*
X9097143Y-20661524D02*
X9078096Y-20652000D01*
X9078096Y-20652000D02*
X9068572Y-20632952D01*
X9068572Y-20632952D02*
X9068572Y-20556762D01*
X9068572Y-20556762D02*
X9078096Y-20537714D01*
X9078096Y-20537714D02*
X9097143Y-20528190D01*
X9097143Y-20528190D02*
X9135239Y-20528190D01*
X9135239Y-20528190D02*
X9154286Y-20537714D01*
X9154286Y-20537714D02*
X9163810Y-20556762D01*
X9163810Y-20556762D02*
X9163810Y-20575810D01*
X9163810Y-20575810D02*
X9068572Y-20594857D01*
X9240000Y-20652000D02*
X9259048Y-20661524D01*
X9259048Y-20661524D02*
X9297143Y-20661524D01*
X9297143Y-20661524D02*
X9316191Y-20652000D01*
X9316191Y-20652000D02*
X9325715Y-20632952D01*
X9325715Y-20632952D02*
X9325715Y-20623429D01*
X9325715Y-20623429D02*
X9316191Y-20604381D01*
X9316191Y-20604381D02*
X9297143Y-20594857D01*
X9297143Y-20594857D02*
X9268572Y-20594857D01*
X9268572Y-20594857D02*
X9249524Y-20585333D01*
X9249524Y-20585333D02*
X9240000Y-20566286D01*
X9240000Y-20566286D02*
X9240000Y-20556762D01*
X9240000Y-20556762D02*
X9249524Y-20537714D01*
X9249524Y-20537714D02*
X9268572Y-20528190D01*
X9268572Y-20528190D02*
X9297143Y-20528190D01*
X9297143Y-20528190D02*
X9316191Y-20537714D01*
X9392381Y-20737714D02*
X9401905Y-20728190D01*
X9401905Y-20728190D02*
X9420953Y-20699619D01*
X9420953Y-20699619D02*
X9430477Y-20680571D01*
X9430477Y-20680571D02*
X9440000Y-20652000D01*
X9440000Y-20652000D02*
X9449524Y-20604381D01*
X9449524Y-20604381D02*
X9449524Y-20566286D01*
X9449524Y-20566286D02*
X9440000Y-20518667D01*
X9440000Y-20518667D02*
X9430477Y-20490095D01*
X9430477Y-20490095D02*
X9420953Y-20471048D01*
X9420953Y-20471048D02*
X9401905Y-20442476D01*
X9401905Y-20442476D02*
X9392381Y-20432952D01*
X9754286Y-20737714D02*
X9744762Y-20728190D01*
X9744762Y-20728190D02*
X9725715Y-20699619D01*
X9725715Y-20699619D02*
X9716191Y-20680571D01*
X9716191Y-20680571D02*
X9706667Y-20652000D01*
X9706667Y-20652000D02*
X9697143Y-20604381D01*
X9697143Y-20604381D02*
X9697143Y-20566286D01*
X9697143Y-20566286D02*
X9706667Y-20518667D01*
X9706667Y-20518667D02*
X9716191Y-20490095D01*
X9716191Y-20490095D02*
X9725715Y-20471048D01*
X9725715Y-20471048D02*
X9744762Y-20442476D01*
X9744762Y-20442476D02*
X9754286Y-20432952D01*
X9830477Y-20528190D02*
X9830477Y-20661524D01*
X9830477Y-20547238D02*
X9840000Y-20537714D01*
X9840000Y-20537714D02*
X9859048Y-20528190D01*
X9859048Y-20528190D02*
X9887620Y-20528190D01*
X9887620Y-20528190D02*
X9906667Y-20537714D01*
X9906667Y-20537714D02*
X9916191Y-20556762D01*
X9916191Y-20556762D02*
X9916191Y-20661524D01*
X10040000Y-20661524D02*
X10020953Y-20652000D01*
X10020953Y-20652000D02*
X10011429Y-20642476D01*
X10011429Y-20642476D02*
X10001905Y-20623429D01*
X10001905Y-20623429D02*
X10001905Y-20566286D01*
X10001905Y-20566286D02*
X10011429Y-20547238D01*
X10011429Y-20547238D02*
X10020953Y-20537714D01*
X10020953Y-20537714D02*
X10040000Y-20528190D01*
X10040000Y-20528190D02*
X10068572Y-20528190D01*
X10068572Y-20528190D02*
X10087620Y-20537714D01*
X10087620Y-20537714D02*
X10097143Y-20547238D01*
X10097143Y-20547238D02*
X10106667Y-20566286D01*
X10106667Y-20566286D02*
X10106667Y-20623429D01*
X10106667Y-20623429D02*
X10097143Y-20642476D01*
X10097143Y-20642476D02*
X10087620Y-20652000D01*
X10087620Y-20652000D02*
X10068572Y-20661524D01*
X10068572Y-20661524D02*
X10040000Y-20661524D01*
X10163810Y-20528190D02*
X10240000Y-20528190D01*
X10192381Y-20461524D02*
X10192381Y-20632952D01*
X10192381Y-20632952D02*
X10201905Y-20652000D01*
X10201905Y-20652000D02*
X10220953Y-20661524D01*
X10220953Y-20661524D02*
X10240000Y-20661524D01*
X10459048Y-20528190D02*
X10459048Y-20728190D01*
X10459048Y-20537714D02*
X10478096Y-20528190D01*
X10478096Y-20528190D02*
X10516191Y-20528190D01*
X10516191Y-20528190D02*
X10535239Y-20537714D01*
X10535239Y-20537714D02*
X10544762Y-20547238D01*
X10544762Y-20547238D02*
X10554286Y-20566286D01*
X10554286Y-20566286D02*
X10554286Y-20623429D01*
X10554286Y-20623429D02*
X10544762Y-20642476D01*
X10544762Y-20642476D02*
X10535239Y-20652000D01*
X10535239Y-20652000D02*
X10516191Y-20661524D01*
X10516191Y-20661524D02*
X10478096Y-20661524D01*
X10478096Y-20661524D02*
X10459048Y-20652000D01*
X10668572Y-20661524D02*
X10649524Y-20652000D01*
X10649524Y-20652000D02*
X10640001Y-20632952D01*
X10640001Y-20632952D02*
X10640001Y-20461524D01*
X10830477Y-20661524D02*
X10830477Y-20556762D01*
X10830477Y-20556762D02*
X10820953Y-20537714D01*
X10820953Y-20537714D02*
X10801905Y-20528190D01*
X10801905Y-20528190D02*
X10763810Y-20528190D01*
X10763810Y-20528190D02*
X10744762Y-20537714D01*
X10830477Y-20652000D02*
X10811429Y-20661524D01*
X10811429Y-20661524D02*
X10763810Y-20661524D01*
X10763810Y-20661524D02*
X10744762Y-20652000D01*
X10744762Y-20652000D02*
X10735239Y-20632952D01*
X10735239Y-20632952D02*
X10735239Y-20613905D01*
X10735239Y-20613905D02*
X10744762Y-20594857D01*
X10744762Y-20594857D02*
X10763810Y-20585333D01*
X10763810Y-20585333D02*
X10811429Y-20585333D01*
X10811429Y-20585333D02*
X10830477Y-20575810D01*
X10897143Y-20528190D02*
X10973334Y-20528190D01*
X10925715Y-20461524D02*
X10925715Y-20632952D01*
X10925715Y-20632952D02*
X10935239Y-20652000D01*
X10935239Y-20652000D02*
X10954286Y-20661524D01*
X10954286Y-20661524D02*
X10973334Y-20661524D01*
X11116191Y-20652000D02*
X11097143Y-20661524D01*
X11097143Y-20661524D02*
X11059048Y-20661524D01*
X11059048Y-20661524D02*
X11040001Y-20652000D01*
X11040001Y-20652000D02*
X11030477Y-20632952D01*
X11030477Y-20632952D02*
X11030477Y-20556762D01*
X11030477Y-20556762D02*
X11040001Y-20537714D01*
X11040001Y-20537714D02*
X11059048Y-20528190D01*
X11059048Y-20528190D02*
X11097143Y-20528190D01*
X11097143Y-20528190D02*
X11116191Y-20537714D01*
X11116191Y-20537714D02*
X11125715Y-20556762D01*
X11125715Y-20556762D02*
X11125715Y-20575810D01*
X11125715Y-20575810D02*
X11030477Y-20594857D01*
X11297143Y-20661524D02*
X11297143Y-20461524D01*
X11297143Y-20652000D02*
X11278096Y-20661524D01*
X11278096Y-20661524D02*
X11240000Y-20661524D01*
X11240000Y-20661524D02*
X11220953Y-20652000D01*
X11220953Y-20652000D02*
X11211429Y-20642476D01*
X11211429Y-20642476D02*
X11201905Y-20623429D01*
X11201905Y-20623429D02*
X11201905Y-20566286D01*
X11201905Y-20566286D02*
X11211429Y-20547238D01*
X11211429Y-20547238D02*
X11220953Y-20537714D01*
X11220953Y-20537714D02*
X11240000Y-20528190D01*
X11240000Y-20528190D02*
X11278096Y-20528190D01*
X11278096Y-20528190D02*
X11297143Y-20537714D01*
X11373334Y-20737714D02*
X11382858Y-20728190D01*
X11382858Y-20728190D02*
X11401905Y-20699619D01*
X11401905Y-20699619D02*
X11411429Y-20680571D01*
X11411429Y-20680571D02*
X11420953Y-20652000D01*
X11420953Y-20652000D02*
X11430477Y-20604381D01*
X11430477Y-20604381D02*
X11430477Y-20566286D01*
X11430477Y-20566286D02*
X11420953Y-20518667D01*
X11420953Y-20518667D02*
X11411429Y-20490095D01*
X11411429Y-20490095D02*
X11401905Y-20471048D01*
X11401905Y-20471048D02*
X11382858Y-20442476D01*
X11382858Y-20442476D02*
X11373334Y-20432952D01*
X4410711Y-20959711D02*
X4410711Y-20818289D01*
X4269289Y-20818289D01*
X4269289Y-20959711D01*
X4410711Y-20959711D01*
X4773333Y-20848190D02*
X4773333Y-20981524D01*
X4725714Y-20772000D02*
X4678095Y-20914857D01*
X4678095Y-20914857D02*
X4801905Y-20914857D01*
X4878095Y-20962476D02*
X4887619Y-20972000D01*
X4887619Y-20972000D02*
X4878095Y-20981524D01*
X4878095Y-20981524D02*
X4868571Y-20972000D01*
X4868571Y-20972000D02*
X4878095Y-20962476D01*
X4878095Y-20962476D02*
X4878095Y-20981524D01*
X4954286Y-20781524D02*
X5078095Y-20781524D01*
X5078095Y-20781524D02*
X5011429Y-20857714D01*
X5011429Y-20857714D02*
X5040000Y-20857714D01*
X5040000Y-20857714D02*
X5059048Y-20867238D01*
X5059048Y-20867238D02*
X5068571Y-20876762D01*
X5068571Y-20876762D02*
X5078095Y-20895810D01*
X5078095Y-20895810D02*
X5078095Y-20943429D01*
X5078095Y-20943429D02*
X5068571Y-20962476D01*
X5068571Y-20962476D02*
X5059048Y-20972000D01*
X5059048Y-20972000D02*
X5040000Y-20981524D01*
X5040000Y-20981524D02*
X4982857Y-20981524D01*
X4982857Y-20981524D02*
X4963810Y-20972000D01*
X4963810Y-20972000D02*
X4954286Y-20962476D01*
X5201905Y-20781524D02*
X5220952Y-20781524D01*
X5220952Y-20781524D02*
X5240000Y-20791048D01*
X5240000Y-20791048D02*
X5249524Y-20800571D01*
X5249524Y-20800571D02*
X5259048Y-20819619D01*
X5259048Y-20819619D02*
X5268571Y-20857714D01*
X5268571Y-20857714D02*
X5268571Y-20905333D01*
X5268571Y-20905333D02*
X5259048Y-20943429D01*
X5259048Y-20943429D02*
X5249524Y-20962476D01*
X5249524Y-20962476D02*
X5240000Y-20972000D01*
X5240000Y-20972000D02*
X5220952Y-20981524D01*
X5220952Y-20981524D02*
X5201905Y-20981524D01*
X5201905Y-20981524D02*
X5182857Y-20972000D01*
X5182857Y-20972000D02*
X5173333Y-20962476D01*
X5173333Y-20962476D02*
X5163810Y-20943429D01*
X5163810Y-20943429D02*
X5154286Y-20905333D01*
X5154286Y-20905333D02*
X5154286Y-20857714D01*
X5154286Y-20857714D02*
X5163810Y-20819619D01*
X5163810Y-20819619D02*
X5173333Y-20800571D01*
X5173333Y-20800571D02*
X5182857Y-20791048D01*
X5182857Y-20791048D02*
X5201905Y-20781524D01*
X5392381Y-20781524D02*
X5411429Y-20781524D01*
X5411429Y-20781524D02*
X5430476Y-20791048D01*
X5430476Y-20791048D02*
X5440000Y-20800571D01*
X5440000Y-20800571D02*
X5449524Y-20819619D01*
X5449524Y-20819619D02*
X5459048Y-20857714D01*
X5459048Y-20857714D02*
X5459048Y-20905333D01*
X5459048Y-20905333D02*
X5449524Y-20943429D01*
X5449524Y-20943429D02*
X5440000Y-20962476D01*
X5440000Y-20962476D02*
X5430476Y-20972000D01*
X5430476Y-20972000D02*
X5411429Y-20981524D01*
X5411429Y-20981524D02*
X5392381Y-20981524D01*
X5392381Y-20981524D02*
X5373333Y-20972000D01*
X5373333Y-20972000D02*
X5363810Y-20962476D01*
X5363810Y-20962476D02*
X5354286Y-20943429D01*
X5354286Y-20943429D02*
X5344762Y-20905333D01*
X5344762Y-20905333D02*
X5344762Y-20857714D01*
X5344762Y-20857714D02*
X5354286Y-20819619D01*
X5354286Y-20819619D02*
X5363810Y-20800571D01*
X5363810Y-20800571D02*
X5373333Y-20791048D01*
X5373333Y-20791048D02*
X5392381Y-20781524D01*
X5544762Y-20981524D02*
X5544762Y-20848190D01*
X5544762Y-20867238D02*
X5554286Y-20857714D01*
X5554286Y-20857714D02*
X5573333Y-20848190D01*
X5573333Y-20848190D02*
X5601905Y-20848190D01*
X5601905Y-20848190D02*
X5620952Y-20857714D01*
X5620952Y-20857714D02*
X5630476Y-20876762D01*
X5630476Y-20876762D02*
X5630476Y-20981524D01*
X5630476Y-20876762D02*
X5640000Y-20857714D01*
X5640000Y-20857714D02*
X5659048Y-20848190D01*
X5659048Y-20848190D02*
X5687619Y-20848190D01*
X5687619Y-20848190D02*
X5706667Y-20857714D01*
X5706667Y-20857714D02*
X5716190Y-20876762D01*
X5716190Y-20876762D02*
X5716190Y-20981524D01*
X5811429Y-20981524D02*
X5811429Y-20848190D01*
X5811429Y-20867238D02*
X5820952Y-20857714D01*
X5820952Y-20857714D02*
X5840000Y-20848190D01*
X5840000Y-20848190D02*
X5868571Y-20848190D01*
X5868571Y-20848190D02*
X5887619Y-20857714D01*
X5887619Y-20857714D02*
X5897143Y-20876762D01*
X5897143Y-20876762D02*
X5897143Y-20981524D01*
X5897143Y-20876762D02*
X5906667Y-20857714D01*
X5906667Y-20857714D02*
X5925714Y-20848190D01*
X5925714Y-20848190D02*
X5954286Y-20848190D01*
X5954286Y-20848190D02*
X5973333Y-20857714D01*
X5973333Y-20857714D02*
X5982857Y-20876762D01*
X5982857Y-20876762D02*
X5982857Y-20981524D01*
X6373333Y-20772000D02*
X6201905Y-21029143D01*
X6630476Y-20781524D02*
X6649524Y-20781524D01*
X6649524Y-20781524D02*
X6668572Y-20791048D01*
X6668572Y-20791048D02*
X6678095Y-20800571D01*
X6678095Y-20800571D02*
X6687619Y-20819619D01*
X6687619Y-20819619D02*
X6697143Y-20857714D01*
X6697143Y-20857714D02*
X6697143Y-20905333D01*
X6697143Y-20905333D02*
X6687619Y-20943429D01*
X6687619Y-20943429D02*
X6678095Y-20962476D01*
X6678095Y-20962476D02*
X6668572Y-20972000D01*
X6668572Y-20972000D02*
X6649524Y-20981524D01*
X6649524Y-20981524D02*
X6630476Y-20981524D01*
X6630476Y-20981524D02*
X6611429Y-20972000D01*
X6611429Y-20972000D02*
X6601905Y-20962476D01*
X6601905Y-20962476D02*
X6592381Y-20943429D01*
X6592381Y-20943429D02*
X6582857Y-20905333D01*
X6582857Y-20905333D02*
X6582857Y-20857714D01*
X6582857Y-20857714D02*
X6592381Y-20819619D01*
X6592381Y-20819619D02*
X6601905Y-20800571D01*
X6601905Y-20800571D02*
X6611429Y-20791048D01*
X6611429Y-20791048D02*
X6630476Y-20781524D01*
X6782857Y-20962476D02*
X6792381Y-20972000D01*
X6792381Y-20972000D02*
X6782857Y-20981524D01*
X6782857Y-20981524D02*
X6773333Y-20972000D01*
X6773333Y-20972000D02*
X6782857Y-20962476D01*
X6782857Y-20962476D02*
X6782857Y-20981524D01*
X6982857Y-20981524D02*
X6868572Y-20981524D01*
X6925714Y-20981524D02*
X6925714Y-20781524D01*
X6925714Y-20781524D02*
X6906667Y-20810095D01*
X6906667Y-20810095D02*
X6887619Y-20829143D01*
X6887619Y-20829143D02*
X6868572Y-20838667D01*
X7154286Y-20781524D02*
X7116191Y-20781524D01*
X7116191Y-20781524D02*
X7097143Y-20791048D01*
X7097143Y-20791048D02*
X7087619Y-20800571D01*
X7087619Y-20800571D02*
X7068572Y-20829143D01*
X7068572Y-20829143D02*
X7059048Y-20867238D01*
X7059048Y-20867238D02*
X7059048Y-20943429D01*
X7059048Y-20943429D02*
X7068572Y-20962476D01*
X7068572Y-20962476D02*
X7078095Y-20972000D01*
X7078095Y-20972000D02*
X7097143Y-20981524D01*
X7097143Y-20981524D02*
X7135238Y-20981524D01*
X7135238Y-20981524D02*
X7154286Y-20972000D01*
X7154286Y-20972000D02*
X7163810Y-20962476D01*
X7163810Y-20962476D02*
X7173333Y-20943429D01*
X7173333Y-20943429D02*
X7173333Y-20895810D01*
X7173333Y-20895810D02*
X7163810Y-20876762D01*
X7163810Y-20876762D02*
X7154286Y-20867238D01*
X7154286Y-20867238D02*
X7135238Y-20857714D01*
X7135238Y-20857714D02*
X7097143Y-20857714D01*
X7097143Y-20857714D02*
X7078095Y-20867238D01*
X7078095Y-20867238D02*
X7068572Y-20876762D01*
X7068572Y-20876762D02*
X7059048Y-20895810D01*
X7268572Y-20981524D02*
X7306667Y-20981524D01*
X7306667Y-20981524D02*
X7325714Y-20972000D01*
X7325714Y-20972000D02*
X7335238Y-20962476D01*
X7335238Y-20962476D02*
X7354286Y-20933905D01*
X7354286Y-20933905D02*
X7363810Y-20895810D01*
X7363810Y-20895810D02*
X7363810Y-20819619D01*
X7363810Y-20819619D02*
X7354286Y-20800571D01*
X7354286Y-20800571D02*
X7344762Y-20791048D01*
X7344762Y-20791048D02*
X7325714Y-20781524D01*
X7325714Y-20781524D02*
X7287619Y-20781524D01*
X7287619Y-20781524D02*
X7268572Y-20791048D01*
X7268572Y-20791048D02*
X7259048Y-20800571D01*
X7259048Y-20800571D02*
X7249524Y-20819619D01*
X7249524Y-20819619D02*
X7249524Y-20867238D01*
X7249524Y-20867238D02*
X7259048Y-20886286D01*
X7259048Y-20886286D02*
X7268572Y-20895810D01*
X7268572Y-20895810D02*
X7287619Y-20905333D01*
X7287619Y-20905333D02*
X7325714Y-20905333D01*
X7325714Y-20905333D02*
X7344762Y-20895810D01*
X7344762Y-20895810D02*
X7354286Y-20886286D01*
X7354286Y-20886286D02*
X7363810Y-20867238D01*
X7430476Y-20781524D02*
X7554286Y-20781524D01*
X7554286Y-20781524D02*
X7487619Y-20857714D01*
X7487619Y-20857714D02*
X7516191Y-20857714D01*
X7516191Y-20857714D02*
X7535238Y-20867238D01*
X7535238Y-20867238D02*
X7544762Y-20876762D01*
X7544762Y-20876762D02*
X7554286Y-20895810D01*
X7554286Y-20895810D02*
X7554286Y-20943429D01*
X7554286Y-20943429D02*
X7544762Y-20962476D01*
X7544762Y-20962476D02*
X7535238Y-20972000D01*
X7535238Y-20972000D02*
X7516191Y-20981524D01*
X7516191Y-20981524D02*
X7459048Y-20981524D01*
X7459048Y-20981524D02*
X7440000Y-20972000D01*
X7440000Y-20972000D02*
X7430476Y-20962476D01*
X7630476Y-20781524D02*
X7630476Y-20819619D01*
X7706667Y-20781524D02*
X7706667Y-20819619D01*
X8001905Y-21057714D02*
X7992381Y-21048190D01*
X7992381Y-21048190D02*
X7973334Y-21019619D01*
X7973334Y-21019619D02*
X7963810Y-21000571D01*
X7963810Y-21000571D02*
X7954286Y-20972000D01*
X7954286Y-20972000D02*
X7944762Y-20924381D01*
X7944762Y-20924381D02*
X7944762Y-20886286D01*
X7944762Y-20886286D02*
X7954286Y-20838667D01*
X7954286Y-20838667D02*
X7963810Y-20810095D01*
X7963810Y-20810095D02*
X7973334Y-20791048D01*
X7973334Y-20791048D02*
X7992381Y-20762476D01*
X7992381Y-20762476D02*
X8001905Y-20752952D01*
X8087619Y-20981524D02*
X8125714Y-20981524D01*
X8125714Y-20981524D02*
X8144762Y-20972000D01*
X8144762Y-20972000D02*
X8154286Y-20962476D01*
X8154286Y-20962476D02*
X8173334Y-20933905D01*
X8173334Y-20933905D02*
X8182857Y-20895810D01*
X8182857Y-20895810D02*
X8182857Y-20819619D01*
X8182857Y-20819619D02*
X8173334Y-20800571D01*
X8173334Y-20800571D02*
X8163810Y-20791048D01*
X8163810Y-20791048D02*
X8144762Y-20781524D01*
X8144762Y-20781524D02*
X8106667Y-20781524D01*
X8106667Y-20781524D02*
X8087619Y-20791048D01*
X8087619Y-20791048D02*
X8078095Y-20800571D01*
X8078095Y-20800571D02*
X8068572Y-20819619D01*
X8068572Y-20819619D02*
X8068572Y-20867238D01*
X8068572Y-20867238D02*
X8078095Y-20886286D01*
X8078095Y-20886286D02*
X8087619Y-20895810D01*
X8087619Y-20895810D02*
X8106667Y-20905333D01*
X8106667Y-20905333D02*
X8144762Y-20905333D01*
X8144762Y-20905333D02*
X8163810Y-20895810D01*
X8163810Y-20895810D02*
X8173334Y-20886286D01*
X8173334Y-20886286D02*
X8182857Y-20867238D01*
X8420953Y-20981524D02*
X8420953Y-20781524D01*
X8506667Y-20981524D02*
X8506667Y-20876762D01*
X8506667Y-20876762D02*
X8497143Y-20857714D01*
X8497143Y-20857714D02*
X8478096Y-20848190D01*
X8478096Y-20848190D02*
X8449524Y-20848190D01*
X8449524Y-20848190D02*
X8430477Y-20857714D01*
X8430477Y-20857714D02*
X8420953Y-20867238D01*
X8630477Y-20981524D02*
X8611429Y-20972000D01*
X8611429Y-20972000D02*
X8601905Y-20962476D01*
X8601905Y-20962476D02*
X8592381Y-20943429D01*
X8592381Y-20943429D02*
X8592381Y-20886286D01*
X8592381Y-20886286D02*
X8601905Y-20867238D01*
X8601905Y-20867238D02*
X8611429Y-20857714D01*
X8611429Y-20857714D02*
X8630477Y-20848190D01*
X8630477Y-20848190D02*
X8659048Y-20848190D01*
X8659048Y-20848190D02*
X8678096Y-20857714D01*
X8678096Y-20857714D02*
X8687619Y-20867238D01*
X8687619Y-20867238D02*
X8697143Y-20886286D01*
X8697143Y-20886286D02*
X8697143Y-20943429D01*
X8697143Y-20943429D02*
X8687619Y-20962476D01*
X8687619Y-20962476D02*
X8678096Y-20972000D01*
X8678096Y-20972000D02*
X8659048Y-20981524D01*
X8659048Y-20981524D02*
X8630477Y-20981524D01*
X8811429Y-20981524D02*
X8792381Y-20972000D01*
X8792381Y-20972000D02*
X8782858Y-20952952D01*
X8782858Y-20952952D02*
X8782858Y-20781524D01*
X8963810Y-20972000D02*
X8944762Y-20981524D01*
X8944762Y-20981524D02*
X8906667Y-20981524D01*
X8906667Y-20981524D02*
X8887619Y-20972000D01*
X8887619Y-20972000D02*
X8878096Y-20952952D01*
X8878096Y-20952952D02*
X8878096Y-20876762D01*
X8878096Y-20876762D02*
X8887619Y-20857714D01*
X8887619Y-20857714D02*
X8906667Y-20848190D01*
X8906667Y-20848190D02*
X8944762Y-20848190D01*
X8944762Y-20848190D02*
X8963810Y-20857714D01*
X8963810Y-20857714D02*
X8973334Y-20876762D01*
X8973334Y-20876762D02*
X8973334Y-20895810D01*
X8973334Y-20895810D02*
X8878096Y-20914857D01*
X9049524Y-20972000D02*
X9068572Y-20981524D01*
X9068572Y-20981524D02*
X9106667Y-20981524D01*
X9106667Y-20981524D02*
X9125715Y-20972000D01*
X9125715Y-20972000D02*
X9135239Y-20952952D01*
X9135239Y-20952952D02*
X9135239Y-20943429D01*
X9135239Y-20943429D02*
X9125715Y-20924381D01*
X9125715Y-20924381D02*
X9106667Y-20914857D01*
X9106667Y-20914857D02*
X9078096Y-20914857D01*
X9078096Y-20914857D02*
X9059048Y-20905333D01*
X9059048Y-20905333D02*
X9049524Y-20886286D01*
X9049524Y-20886286D02*
X9049524Y-20876762D01*
X9049524Y-20876762D02*
X9059048Y-20857714D01*
X9059048Y-20857714D02*
X9078096Y-20848190D01*
X9078096Y-20848190D02*
X9106667Y-20848190D01*
X9106667Y-20848190D02*
X9125715Y-20857714D01*
X9201905Y-21057714D02*
X9211429Y-21048190D01*
X9211429Y-21048190D02*
X9230477Y-21019619D01*
X9230477Y-21019619D02*
X9240000Y-21000571D01*
X9240000Y-21000571D02*
X9249524Y-20972000D01*
X9249524Y-20972000D02*
X9259048Y-20924381D01*
X9259048Y-20924381D02*
X9259048Y-20886286D01*
X9259048Y-20886286D02*
X9249524Y-20838667D01*
X9249524Y-20838667D02*
X9240000Y-20810095D01*
X9240000Y-20810095D02*
X9230477Y-20791048D01*
X9230477Y-20791048D02*
X9211429Y-20762476D01*
X9211429Y-20762476D02*
X9201905Y-20752952D01*
X9563810Y-21057714D02*
X9554286Y-21048190D01*
X9554286Y-21048190D02*
X9535239Y-21019619D01*
X9535239Y-21019619D02*
X9525715Y-21000571D01*
X9525715Y-21000571D02*
X9516191Y-20972000D01*
X9516191Y-20972000D02*
X9506667Y-20924381D01*
X9506667Y-20924381D02*
X9506667Y-20886286D01*
X9506667Y-20886286D02*
X9516191Y-20838667D01*
X9516191Y-20838667D02*
X9525715Y-20810095D01*
X9525715Y-20810095D02*
X9535239Y-20791048D01*
X9535239Y-20791048D02*
X9554286Y-20762476D01*
X9554286Y-20762476D02*
X9563810Y-20752952D01*
X9640000Y-20848190D02*
X9640000Y-20981524D01*
X9640000Y-20867238D02*
X9649524Y-20857714D01*
X9649524Y-20857714D02*
X9668572Y-20848190D01*
X9668572Y-20848190D02*
X9697143Y-20848190D01*
X9697143Y-20848190D02*
X9716191Y-20857714D01*
X9716191Y-20857714D02*
X9725715Y-20876762D01*
X9725715Y-20876762D02*
X9725715Y-20981524D01*
X9849524Y-20981524D02*
X9830477Y-20972000D01*
X9830477Y-20972000D02*
X9820953Y-20962476D01*
X9820953Y-20962476D02*
X9811429Y-20943429D01*
X9811429Y-20943429D02*
X9811429Y-20886286D01*
X9811429Y-20886286D02*
X9820953Y-20867238D01*
X9820953Y-20867238D02*
X9830477Y-20857714D01*
X9830477Y-20857714D02*
X9849524Y-20848190D01*
X9849524Y-20848190D02*
X9878096Y-20848190D01*
X9878096Y-20848190D02*
X9897143Y-20857714D01*
X9897143Y-20857714D02*
X9906667Y-20867238D01*
X9906667Y-20867238D02*
X9916191Y-20886286D01*
X9916191Y-20886286D02*
X9916191Y-20943429D01*
X9916191Y-20943429D02*
X9906667Y-20962476D01*
X9906667Y-20962476D02*
X9897143Y-20972000D01*
X9897143Y-20972000D02*
X9878096Y-20981524D01*
X9878096Y-20981524D02*
X9849524Y-20981524D01*
X9973334Y-20848190D02*
X10049524Y-20848190D01*
X10001905Y-20781524D02*
X10001905Y-20952952D01*
X10001905Y-20952952D02*
X10011429Y-20972000D01*
X10011429Y-20972000D02*
X10030477Y-20981524D01*
X10030477Y-20981524D02*
X10049524Y-20981524D01*
X10268572Y-20848190D02*
X10268572Y-21048190D01*
X10268572Y-20857714D02*
X10287620Y-20848190D01*
X10287620Y-20848190D02*
X10325715Y-20848190D01*
X10325715Y-20848190D02*
X10344762Y-20857714D01*
X10344762Y-20857714D02*
X10354286Y-20867238D01*
X10354286Y-20867238D02*
X10363810Y-20886286D01*
X10363810Y-20886286D02*
X10363810Y-20943429D01*
X10363810Y-20943429D02*
X10354286Y-20962476D01*
X10354286Y-20962476D02*
X10344762Y-20972000D01*
X10344762Y-20972000D02*
X10325715Y-20981524D01*
X10325715Y-20981524D02*
X10287620Y-20981524D01*
X10287620Y-20981524D02*
X10268572Y-20972000D01*
X10478096Y-20981524D02*
X10459048Y-20972000D01*
X10459048Y-20972000D02*
X10449524Y-20952952D01*
X10449524Y-20952952D02*
X10449524Y-20781524D01*
X10640001Y-20981524D02*
X10640001Y-20876762D01*
X10640001Y-20876762D02*
X10630477Y-20857714D01*
X10630477Y-20857714D02*
X10611429Y-20848190D01*
X10611429Y-20848190D02*
X10573334Y-20848190D01*
X10573334Y-20848190D02*
X10554286Y-20857714D01*
X10640001Y-20972000D02*
X10620953Y-20981524D01*
X10620953Y-20981524D02*
X10573334Y-20981524D01*
X10573334Y-20981524D02*
X10554286Y-20972000D01*
X10554286Y-20972000D02*
X10544762Y-20952952D01*
X10544762Y-20952952D02*
X10544762Y-20933905D01*
X10544762Y-20933905D02*
X10554286Y-20914857D01*
X10554286Y-20914857D02*
X10573334Y-20905333D01*
X10573334Y-20905333D02*
X10620953Y-20905333D01*
X10620953Y-20905333D02*
X10640001Y-20895810D01*
X10706667Y-20848190D02*
X10782858Y-20848190D01*
X10735239Y-20781524D02*
X10735239Y-20952952D01*
X10735239Y-20952952D02*
X10744762Y-20972000D01*
X10744762Y-20972000D02*
X10763810Y-20981524D01*
X10763810Y-20981524D02*
X10782858Y-20981524D01*
X10925715Y-20972000D02*
X10906667Y-20981524D01*
X10906667Y-20981524D02*
X10868572Y-20981524D01*
X10868572Y-20981524D02*
X10849524Y-20972000D01*
X10849524Y-20972000D02*
X10840001Y-20952952D01*
X10840001Y-20952952D02*
X10840001Y-20876762D01*
X10840001Y-20876762D02*
X10849524Y-20857714D01*
X10849524Y-20857714D02*
X10868572Y-20848190D01*
X10868572Y-20848190D02*
X10906667Y-20848190D01*
X10906667Y-20848190D02*
X10925715Y-20857714D01*
X10925715Y-20857714D02*
X10935239Y-20876762D01*
X10935239Y-20876762D02*
X10935239Y-20895810D01*
X10935239Y-20895810D02*
X10840001Y-20914857D01*
X11106667Y-20981524D02*
X11106667Y-20781524D01*
X11106667Y-20972000D02*
X11087620Y-20981524D01*
X11087620Y-20981524D02*
X11049524Y-20981524D01*
X11049524Y-20981524D02*
X11030477Y-20972000D01*
X11030477Y-20972000D02*
X11020953Y-20962476D01*
X11020953Y-20962476D02*
X11011429Y-20943429D01*
X11011429Y-20943429D02*
X11011429Y-20886286D01*
X11011429Y-20886286D02*
X11020953Y-20867238D01*
X11020953Y-20867238D02*
X11030477Y-20857714D01*
X11030477Y-20857714D02*
X11049524Y-20848190D01*
X11049524Y-20848190D02*
X11087620Y-20848190D01*
X11087620Y-20848190D02*
X11106667Y-20857714D01*
X11182858Y-21057714D02*
X11192381Y-21048190D01*
X11192381Y-21048190D02*
X11211429Y-21019619D01*
X11211429Y-21019619D02*
X11220953Y-21000571D01*
X11220953Y-21000571D02*
X11230477Y-20972000D01*
X11230477Y-20972000D02*
X11240000Y-20924381D01*
X11240000Y-20924381D02*
X11240000Y-20886286D01*
X11240000Y-20886286D02*
X11230477Y-20838667D01*
X11230477Y-20838667D02*
X11220953Y-20810095D01*
X11220953Y-20810095D02*
X11211429Y-20791048D01*
X11211429Y-20791048D02*
X11192381Y-20762476D01*
X11192381Y-20762476D02*
X11182858Y-20752952D01*
X4340000Y-21309000D02*
X4440000Y-21209000D01*
X4340000Y-21109000D01*
X4240000Y-21209000D01*
X4340000Y-21309000D01*
X4773333Y-21168190D02*
X4773333Y-21301524D01*
X4725714Y-21092000D02*
X4678095Y-21234857D01*
X4678095Y-21234857D02*
X4801905Y-21234857D01*
X4878095Y-21282476D02*
X4887619Y-21292000D01*
X4887619Y-21292000D02*
X4878095Y-21301524D01*
X4878095Y-21301524D02*
X4868571Y-21292000D01*
X4868571Y-21292000D02*
X4878095Y-21282476D01*
X4878095Y-21282476D02*
X4878095Y-21301524D01*
X5068571Y-21101524D02*
X4973333Y-21101524D01*
X4973333Y-21101524D02*
X4963810Y-21196762D01*
X4963810Y-21196762D02*
X4973333Y-21187238D01*
X4973333Y-21187238D02*
X4992381Y-21177714D01*
X4992381Y-21177714D02*
X5040000Y-21177714D01*
X5040000Y-21177714D02*
X5059048Y-21187238D01*
X5059048Y-21187238D02*
X5068571Y-21196762D01*
X5068571Y-21196762D02*
X5078095Y-21215810D01*
X5078095Y-21215810D02*
X5078095Y-21263429D01*
X5078095Y-21263429D02*
X5068571Y-21282476D01*
X5068571Y-21282476D02*
X5059048Y-21292000D01*
X5059048Y-21292000D02*
X5040000Y-21301524D01*
X5040000Y-21301524D02*
X4992381Y-21301524D01*
X4992381Y-21301524D02*
X4973333Y-21292000D01*
X4973333Y-21292000D02*
X4963810Y-21282476D01*
X5201905Y-21101524D02*
X5220952Y-21101524D01*
X5220952Y-21101524D02*
X5240000Y-21111048D01*
X5240000Y-21111048D02*
X5249524Y-21120571D01*
X5249524Y-21120571D02*
X5259048Y-21139619D01*
X5259048Y-21139619D02*
X5268571Y-21177714D01*
X5268571Y-21177714D02*
X5268571Y-21225333D01*
X5268571Y-21225333D02*
X5259048Y-21263429D01*
X5259048Y-21263429D02*
X5249524Y-21282476D01*
X5249524Y-21282476D02*
X5240000Y-21292000D01*
X5240000Y-21292000D02*
X5220952Y-21301524D01*
X5220952Y-21301524D02*
X5201905Y-21301524D01*
X5201905Y-21301524D02*
X5182857Y-21292000D01*
X5182857Y-21292000D02*
X5173333Y-21282476D01*
X5173333Y-21282476D02*
X5163810Y-21263429D01*
X5163810Y-21263429D02*
X5154286Y-21225333D01*
X5154286Y-21225333D02*
X5154286Y-21177714D01*
X5154286Y-21177714D02*
X5163810Y-21139619D01*
X5163810Y-21139619D02*
X5173333Y-21120571D01*
X5173333Y-21120571D02*
X5182857Y-21111048D01*
X5182857Y-21111048D02*
X5201905Y-21101524D01*
X5392381Y-21101524D02*
X5411429Y-21101524D01*
X5411429Y-21101524D02*
X5430476Y-21111048D01*
X5430476Y-21111048D02*
X5440000Y-21120571D01*
X5440000Y-21120571D02*
X5449524Y-21139619D01*
X5449524Y-21139619D02*
X5459048Y-21177714D01*
X5459048Y-21177714D02*
X5459048Y-21225333D01*
X5459048Y-21225333D02*
X5449524Y-21263429D01*
X5449524Y-21263429D02*
X5440000Y-21282476D01*
X5440000Y-21282476D02*
X5430476Y-21292000D01*
X5430476Y-21292000D02*
X5411429Y-21301524D01*
X5411429Y-21301524D02*
X5392381Y-21301524D01*
X5392381Y-21301524D02*
X5373333Y-21292000D01*
X5373333Y-21292000D02*
X5363810Y-21282476D01*
X5363810Y-21282476D02*
X5354286Y-21263429D01*
X5354286Y-21263429D02*
X5344762Y-21225333D01*
X5344762Y-21225333D02*
X5344762Y-21177714D01*
X5344762Y-21177714D02*
X5354286Y-21139619D01*
X5354286Y-21139619D02*
X5363810Y-21120571D01*
X5363810Y-21120571D02*
X5373333Y-21111048D01*
X5373333Y-21111048D02*
X5392381Y-21101524D01*
X5544762Y-21301524D02*
X5544762Y-21168190D01*
X5544762Y-21187238D02*
X5554286Y-21177714D01*
X5554286Y-21177714D02*
X5573333Y-21168190D01*
X5573333Y-21168190D02*
X5601905Y-21168190D01*
X5601905Y-21168190D02*
X5620952Y-21177714D01*
X5620952Y-21177714D02*
X5630476Y-21196762D01*
X5630476Y-21196762D02*
X5630476Y-21301524D01*
X5630476Y-21196762D02*
X5640000Y-21177714D01*
X5640000Y-21177714D02*
X5659048Y-21168190D01*
X5659048Y-21168190D02*
X5687619Y-21168190D01*
X5687619Y-21168190D02*
X5706667Y-21177714D01*
X5706667Y-21177714D02*
X5716190Y-21196762D01*
X5716190Y-21196762D02*
X5716190Y-21301524D01*
X5811429Y-21301524D02*
X5811429Y-21168190D01*
X5811429Y-21187238D02*
X5820952Y-21177714D01*
X5820952Y-21177714D02*
X5840000Y-21168190D01*
X5840000Y-21168190D02*
X5868571Y-21168190D01*
X5868571Y-21168190D02*
X5887619Y-21177714D01*
X5887619Y-21177714D02*
X5897143Y-21196762D01*
X5897143Y-21196762D02*
X5897143Y-21301524D01*
X5897143Y-21196762D02*
X5906667Y-21177714D01*
X5906667Y-21177714D02*
X5925714Y-21168190D01*
X5925714Y-21168190D02*
X5954286Y-21168190D01*
X5954286Y-21168190D02*
X5973333Y-21177714D01*
X5973333Y-21177714D02*
X5982857Y-21196762D01*
X5982857Y-21196762D02*
X5982857Y-21301524D01*
X6373333Y-21092000D02*
X6201905Y-21349143D01*
X6630476Y-21101524D02*
X6649524Y-21101524D01*
X6649524Y-21101524D02*
X6668572Y-21111048D01*
X6668572Y-21111048D02*
X6678095Y-21120571D01*
X6678095Y-21120571D02*
X6687619Y-21139619D01*
X6687619Y-21139619D02*
X6697143Y-21177714D01*
X6697143Y-21177714D02*
X6697143Y-21225333D01*
X6697143Y-21225333D02*
X6687619Y-21263429D01*
X6687619Y-21263429D02*
X6678095Y-21282476D01*
X6678095Y-21282476D02*
X6668572Y-21292000D01*
X6668572Y-21292000D02*
X6649524Y-21301524D01*
X6649524Y-21301524D02*
X6630476Y-21301524D01*
X6630476Y-21301524D02*
X6611429Y-21292000D01*
X6611429Y-21292000D02*
X6601905Y-21282476D01*
X6601905Y-21282476D02*
X6592381Y-21263429D01*
X6592381Y-21263429D02*
X6582857Y-21225333D01*
X6582857Y-21225333D02*
X6582857Y-21177714D01*
X6582857Y-21177714D02*
X6592381Y-21139619D01*
X6592381Y-21139619D02*
X6601905Y-21120571D01*
X6601905Y-21120571D02*
X6611429Y-21111048D01*
X6611429Y-21111048D02*
X6630476Y-21101524D01*
X6782857Y-21282476D02*
X6792381Y-21292000D01*
X6792381Y-21292000D02*
X6782857Y-21301524D01*
X6782857Y-21301524D02*
X6773333Y-21292000D01*
X6773333Y-21292000D02*
X6782857Y-21282476D01*
X6782857Y-21282476D02*
X6782857Y-21301524D01*
X6982857Y-21301524D02*
X6868572Y-21301524D01*
X6925714Y-21301524D02*
X6925714Y-21101524D01*
X6925714Y-21101524D02*
X6906667Y-21130095D01*
X6906667Y-21130095D02*
X6887619Y-21149143D01*
X6887619Y-21149143D02*
X6868572Y-21158667D01*
X7049524Y-21101524D02*
X7182857Y-21101524D01*
X7182857Y-21101524D02*
X7097143Y-21301524D01*
X7240000Y-21101524D02*
X7373333Y-21101524D01*
X7373333Y-21101524D02*
X7287619Y-21301524D01*
X7440000Y-21120571D02*
X7449524Y-21111048D01*
X7449524Y-21111048D02*
X7468572Y-21101524D01*
X7468572Y-21101524D02*
X7516191Y-21101524D01*
X7516191Y-21101524D02*
X7535238Y-21111048D01*
X7535238Y-21111048D02*
X7544762Y-21120571D01*
X7544762Y-21120571D02*
X7554286Y-21139619D01*
X7554286Y-21139619D02*
X7554286Y-21158667D01*
X7554286Y-21158667D02*
X7544762Y-21187238D01*
X7544762Y-21187238D02*
X7430476Y-21301524D01*
X7430476Y-21301524D02*
X7554286Y-21301524D01*
X7630476Y-21101524D02*
X7630476Y-21139619D01*
X7706667Y-21101524D02*
X7706667Y-21139619D01*
X8001905Y-21377714D02*
X7992381Y-21368190D01*
X7992381Y-21368190D02*
X7973334Y-21339619D01*
X7973334Y-21339619D02*
X7963810Y-21320571D01*
X7963810Y-21320571D02*
X7954286Y-21292000D01*
X7954286Y-21292000D02*
X7944762Y-21244381D01*
X7944762Y-21244381D02*
X7944762Y-21206286D01*
X7944762Y-21206286D02*
X7954286Y-21158667D01*
X7954286Y-21158667D02*
X7963810Y-21130095D01*
X7963810Y-21130095D02*
X7973334Y-21111048D01*
X7973334Y-21111048D02*
X7992381Y-21082476D01*
X7992381Y-21082476D02*
X8001905Y-21072952D01*
X8163810Y-21168190D02*
X8163810Y-21301524D01*
X8116191Y-21092000D02*
X8068572Y-21234857D01*
X8068572Y-21234857D02*
X8192381Y-21234857D01*
X8420953Y-21301524D02*
X8420953Y-21101524D01*
X8506667Y-21301524D02*
X8506667Y-21196762D01*
X8506667Y-21196762D02*
X8497143Y-21177714D01*
X8497143Y-21177714D02*
X8478096Y-21168190D01*
X8478096Y-21168190D02*
X8449524Y-21168190D01*
X8449524Y-21168190D02*
X8430477Y-21177714D01*
X8430477Y-21177714D02*
X8420953Y-21187238D01*
X8630477Y-21301524D02*
X8611429Y-21292000D01*
X8611429Y-21292000D02*
X8601905Y-21282476D01*
X8601905Y-21282476D02*
X8592381Y-21263429D01*
X8592381Y-21263429D02*
X8592381Y-21206286D01*
X8592381Y-21206286D02*
X8601905Y-21187238D01*
X8601905Y-21187238D02*
X8611429Y-21177714D01*
X8611429Y-21177714D02*
X8630477Y-21168190D01*
X8630477Y-21168190D02*
X8659048Y-21168190D01*
X8659048Y-21168190D02*
X8678096Y-21177714D01*
X8678096Y-21177714D02*
X8687619Y-21187238D01*
X8687619Y-21187238D02*
X8697143Y-21206286D01*
X8697143Y-21206286D02*
X8697143Y-21263429D01*
X8697143Y-21263429D02*
X8687619Y-21282476D01*
X8687619Y-21282476D02*
X8678096Y-21292000D01*
X8678096Y-21292000D02*
X8659048Y-21301524D01*
X8659048Y-21301524D02*
X8630477Y-21301524D01*
X8811429Y-21301524D02*
X8792381Y-21292000D01*
X8792381Y-21292000D02*
X8782858Y-21272952D01*
X8782858Y-21272952D02*
X8782858Y-21101524D01*
X8963810Y-21292000D02*
X8944762Y-21301524D01*
X8944762Y-21301524D02*
X8906667Y-21301524D01*
X8906667Y-21301524D02*
X8887619Y-21292000D01*
X8887619Y-21292000D02*
X8878096Y-21272952D01*
X8878096Y-21272952D02*
X8878096Y-21196762D01*
X8878096Y-21196762D02*
X8887619Y-21177714D01*
X8887619Y-21177714D02*
X8906667Y-21168190D01*
X8906667Y-21168190D02*
X8944762Y-21168190D01*
X8944762Y-21168190D02*
X8963810Y-21177714D01*
X8963810Y-21177714D02*
X8973334Y-21196762D01*
X8973334Y-21196762D02*
X8973334Y-21215810D01*
X8973334Y-21215810D02*
X8878096Y-21234857D01*
X9049524Y-21292000D02*
X9068572Y-21301524D01*
X9068572Y-21301524D02*
X9106667Y-21301524D01*
X9106667Y-21301524D02*
X9125715Y-21292000D01*
X9125715Y-21292000D02*
X9135239Y-21272952D01*
X9135239Y-21272952D02*
X9135239Y-21263429D01*
X9135239Y-21263429D02*
X9125715Y-21244381D01*
X9125715Y-21244381D02*
X9106667Y-21234857D01*
X9106667Y-21234857D02*
X9078096Y-21234857D01*
X9078096Y-21234857D02*
X9059048Y-21225333D01*
X9059048Y-21225333D02*
X9049524Y-21206286D01*
X9049524Y-21206286D02*
X9049524Y-21196762D01*
X9049524Y-21196762D02*
X9059048Y-21177714D01*
X9059048Y-21177714D02*
X9078096Y-21168190D01*
X9078096Y-21168190D02*
X9106667Y-21168190D01*
X9106667Y-21168190D02*
X9125715Y-21177714D01*
X9201905Y-21377714D02*
X9211429Y-21368190D01*
X9211429Y-21368190D02*
X9230477Y-21339619D01*
X9230477Y-21339619D02*
X9240000Y-21320571D01*
X9240000Y-21320571D02*
X9249524Y-21292000D01*
X9249524Y-21292000D02*
X9259048Y-21244381D01*
X9259048Y-21244381D02*
X9259048Y-21206286D01*
X9259048Y-21206286D02*
X9249524Y-21158667D01*
X9249524Y-21158667D02*
X9240000Y-21130095D01*
X9240000Y-21130095D02*
X9230477Y-21111048D01*
X9230477Y-21111048D02*
X9211429Y-21082476D01*
X9211429Y-21082476D02*
X9201905Y-21072952D01*
X9563810Y-21377714D02*
X9554286Y-21368190D01*
X9554286Y-21368190D02*
X9535239Y-21339619D01*
X9535239Y-21339619D02*
X9525715Y-21320571D01*
X9525715Y-21320571D02*
X9516191Y-21292000D01*
X9516191Y-21292000D02*
X9506667Y-21244381D01*
X9506667Y-21244381D02*
X9506667Y-21206286D01*
X9506667Y-21206286D02*
X9516191Y-21158667D01*
X9516191Y-21158667D02*
X9525715Y-21130095D01*
X9525715Y-21130095D02*
X9535239Y-21111048D01*
X9535239Y-21111048D02*
X9554286Y-21082476D01*
X9554286Y-21082476D02*
X9563810Y-21072952D01*
X9640000Y-21168190D02*
X9640000Y-21301524D01*
X9640000Y-21187238D02*
X9649524Y-21177714D01*
X9649524Y-21177714D02*
X9668572Y-21168190D01*
X9668572Y-21168190D02*
X9697143Y-21168190D01*
X9697143Y-21168190D02*
X9716191Y-21177714D01*
X9716191Y-21177714D02*
X9725715Y-21196762D01*
X9725715Y-21196762D02*
X9725715Y-21301524D01*
X9849524Y-21301524D02*
X9830477Y-21292000D01*
X9830477Y-21292000D02*
X9820953Y-21282476D01*
X9820953Y-21282476D02*
X9811429Y-21263429D01*
X9811429Y-21263429D02*
X9811429Y-21206286D01*
X9811429Y-21206286D02*
X9820953Y-21187238D01*
X9820953Y-21187238D02*
X9830477Y-21177714D01*
X9830477Y-21177714D02*
X9849524Y-21168190D01*
X9849524Y-21168190D02*
X9878096Y-21168190D01*
X9878096Y-21168190D02*
X9897143Y-21177714D01*
X9897143Y-21177714D02*
X9906667Y-21187238D01*
X9906667Y-21187238D02*
X9916191Y-21206286D01*
X9916191Y-21206286D02*
X9916191Y-21263429D01*
X9916191Y-21263429D02*
X9906667Y-21282476D01*
X9906667Y-21282476D02*
X9897143Y-21292000D01*
X9897143Y-21292000D02*
X9878096Y-21301524D01*
X9878096Y-21301524D02*
X9849524Y-21301524D01*
X9973334Y-21168190D02*
X10049524Y-21168190D01*
X10001905Y-21101524D02*
X10001905Y-21272952D01*
X10001905Y-21272952D02*
X10011429Y-21292000D01*
X10011429Y-21292000D02*
X10030477Y-21301524D01*
X10030477Y-21301524D02*
X10049524Y-21301524D01*
X10268572Y-21168190D02*
X10268572Y-21368190D01*
X10268572Y-21177714D02*
X10287620Y-21168190D01*
X10287620Y-21168190D02*
X10325715Y-21168190D01*
X10325715Y-21168190D02*
X10344762Y-21177714D01*
X10344762Y-21177714D02*
X10354286Y-21187238D01*
X10354286Y-21187238D02*
X10363810Y-21206286D01*
X10363810Y-21206286D02*
X10363810Y-21263429D01*
X10363810Y-21263429D02*
X10354286Y-21282476D01*
X10354286Y-21282476D02*
X10344762Y-21292000D01*
X10344762Y-21292000D02*
X10325715Y-21301524D01*
X10325715Y-21301524D02*
X10287620Y-21301524D01*
X10287620Y-21301524D02*
X10268572Y-21292000D01*
X10478096Y-21301524D02*
X10459048Y-21292000D01*
X10459048Y-21292000D02*
X10449524Y-21272952D01*
X10449524Y-21272952D02*
X10449524Y-21101524D01*
X10640001Y-21301524D02*
X10640001Y-21196762D01*
X10640001Y-21196762D02*
X10630477Y-21177714D01*
X10630477Y-21177714D02*
X10611429Y-21168190D01*
X10611429Y-21168190D02*
X10573334Y-21168190D01*
X10573334Y-21168190D02*
X10554286Y-21177714D01*
X10640001Y-21292000D02*
X10620953Y-21301524D01*
X10620953Y-21301524D02*
X10573334Y-21301524D01*
X10573334Y-21301524D02*
X10554286Y-21292000D01*
X10554286Y-21292000D02*
X10544762Y-21272952D01*
X10544762Y-21272952D02*
X10544762Y-21253905D01*
X10544762Y-21253905D02*
X10554286Y-21234857D01*
X10554286Y-21234857D02*
X10573334Y-21225333D01*
X10573334Y-21225333D02*
X10620953Y-21225333D01*
X10620953Y-21225333D02*
X10640001Y-21215810D01*
X10706667Y-21168190D02*
X10782858Y-21168190D01*
X10735239Y-21101524D02*
X10735239Y-21272952D01*
X10735239Y-21272952D02*
X10744762Y-21292000D01*
X10744762Y-21292000D02*
X10763810Y-21301524D01*
X10763810Y-21301524D02*
X10782858Y-21301524D01*
X10925715Y-21292000D02*
X10906667Y-21301524D01*
X10906667Y-21301524D02*
X10868572Y-21301524D01*
X10868572Y-21301524D02*
X10849524Y-21292000D01*
X10849524Y-21292000D02*
X10840001Y-21272952D01*
X10840001Y-21272952D02*
X10840001Y-21196762D01*
X10840001Y-21196762D02*
X10849524Y-21177714D01*
X10849524Y-21177714D02*
X10868572Y-21168190D01*
X10868572Y-21168190D02*
X10906667Y-21168190D01*
X10906667Y-21168190D02*
X10925715Y-21177714D01*
X10925715Y-21177714D02*
X10935239Y-21196762D01*
X10935239Y-21196762D02*
X10935239Y-21215810D01*
X10935239Y-21215810D02*
X10840001Y-21234857D01*
X11106667Y-21301524D02*
X11106667Y-21101524D01*
X11106667Y-21292000D02*
X11087620Y-21301524D01*
X11087620Y-21301524D02*
X11049524Y-21301524D01*
X11049524Y-21301524D02*
X11030477Y-21292000D01*
X11030477Y-21292000D02*
X11020953Y-21282476D01*
X11020953Y-21282476D02*
X11011429Y-21263429D01*
X11011429Y-21263429D02*
X11011429Y-21206286D01*
X11011429Y-21206286D02*
X11020953Y-21187238D01*
X11020953Y-21187238D02*
X11030477Y-21177714D01*
X11030477Y-21177714D02*
X11049524Y-21168190D01*
X11049524Y-21168190D02*
X11087620Y-21168190D01*
X11087620Y-21168190D02*
X11106667Y-21177714D01*
X11182858Y-21377714D02*
X11192381Y-21368190D01*
X11192381Y-21368190D02*
X11211429Y-21339619D01*
X11211429Y-21339619D02*
X11220953Y-21320571D01*
X11220953Y-21320571D02*
X11230477Y-21292000D01*
X11230477Y-21292000D02*
X11240000Y-21244381D01*
X11240000Y-21244381D02*
X11240000Y-21206286D01*
X11240000Y-21206286D02*
X11230477Y-21158667D01*
X11230477Y-21158667D02*
X11220953Y-21130095D01*
X11220953Y-21130095D02*
X11211429Y-21111048D01*
X11211429Y-21111048D02*
X11192381Y-21082476D01*
X11192381Y-21082476D02*
X11182858Y-21072952D01*
M02*
