G04 #@! TF.GenerationSoftware,KiCad,Pcbnew,7.0.1*
G04 #@! TF.CreationDate,2023-03-21T23:46:41-06:00*
G04 #@! TF.ProjectId,Arm_PCB,41726d5f-5043-4422-9e6b-696361645f70,rev?*
G04 #@! TF.SameCoordinates,Original*
G04 #@! TF.FileFunction,Soldermask,Top*
G04 #@! TF.FilePolarity,Negative*
%FSLAX46Y46*%
G04 Gerber Fmt 4.6, Leading zero omitted, Abs format (unit mm)*
G04 Created by KiCad (PCBNEW 7.0.1) date 2023-03-21 23:46:41*
%MOMM*%
%LPD*%
G01*
G04 APERTURE LIST*
G04 Aperture macros list*
%AMRoundRect*
0 Rectangle with rounded corners*
0 $1 Rounding radius*
0 $2 $3 $4 $5 $6 $7 $8 $9 X,Y pos of 4 corners*
0 Add a 4 corners polygon primitive as box body*
4,1,4,$2,$3,$4,$5,$6,$7,$8,$9,$2,$3,0*
0 Add four circle primitives for the rounded corners*
1,1,$1+$1,$2,$3*
1,1,$1+$1,$4,$5*
1,1,$1+$1,$6,$7*
1,1,$1+$1,$8,$9*
0 Add four rect primitives between the rounded corners*
20,1,$1+$1,$2,$3,$4,$5,0*
20,1,$1+$1,$4,$5,$6,$7,0*
20,1,$1+$1,$6,$7,$8,$9,0*
20,1,$1+$1,$8,$9,$2,$3,0*%
G04 Aperture macros list end*
%ADD10C,4.300000*%
%ADD11R,3.000000X3.000000*%
%ADD12C,3.000000*%
%ADD13C,5.000000*%
%ADD14C,1.500000*%
%ADD15RoundRect,0.250000X-0.625000X0.400000X-0.625000X-0.400000X0.625000X-0.400000X0.625000X0.400000X0*%
%ADD16RoundRect,0.250000X-0.412500X-0.650000X0.412500X-0.650000X0.412500X0.650000X-0.412500X0.650000X0*%
%ADD17RoundRect,0.150000X-0.825000X-0.150000X0.825000X-0.150000X0.825000X0.150000X-0.825000X0.150000X0*%
%ADD18RoundRect,0.250001X-0.462499X-0.624999X0.462499X-0.624999X0.462499X0.624999X-0.462499X0.624999X0*%
%ADD19RoundRect,0.250000X-0.400000X-0.625000X0.400000X-0.625000X0.400000X0.625000X-0.400000X0.625000X0*%
%ADD20R,1.700000X1.700000*%
%ADD21O,1.700000X1.700000*%
%ADD22C,2.000000*%
%ADD23C,5.500000*%
%ADD24C,1.800000*%
%ADD25C,1.727200*%
%ADD26R,1.727200X1.727200*%
%ADD27R,2.000000X2.000000*%
%ADD28C,3.200000*%
%ADD29O,1.727200X1.727200*%
G04 APERTURE END LIST*
D10*
X54610000Y-182880000D03*
D11*
X183515000Y-45720000D03*
D12*
X178435000Y-45720000D03*
D13*
X241055000Y-54400000D03*
X241055000Y-123400000D03*
X284055000Y-54400000D03*
X284055000Y-123400000D03*
D11*
X275255000Y-45720000D03*
X270175000Y-45720000D03*
D14*
X254935000Y-130580000D03*
D11*
X254935000Y-132080000D03*
D14*
X249855000Y-130580000D03*
D11*
X249855000Y-132080000D03*
D14*
X275255000Y-130580000D03*
D11*
X275255000Y-132080000D03*
D14*
X270175000Y-130580000D03*
D11*
X270175000Y-132080000D03*
D14*
X265095000Y-130580000D03*
D11*
X265095000Y-132080000D03*
D14*
X260015000Y-130580000D03*
D11*
X260015000Y-132080000D03*
X265095000Y-45720000D03*
X260015000Y-45720000D03*
X254935000Y-45720000D03*
X249855000Y-45720000D03*
D15*
X152400000Y-154380000D03*
X152400000Y-157480000D03*
D16*
X301675000Y-116840000D03*
X304800000Y-116840000D03*
D10*
X368300000Y-58420000D03*
D17*
X322580000Y-109220000D03*
X322580000Y-110490000D03*
X322580000Y-111760000D03*
X322580000Y-113030000D03*
X327530000Y-113030000D03*
X327530000Y-111760000D03*
X327530000Y-110490000D03*
X327530000Y-109220000D03*
D18*
X332025000Y-147637500D03*
X335000000Y-147637500D03*
D13*
X292155000Y-54400000D03*
X292155000Y-123400000D03*
X335155000Y-54400000D03*
X335155000Y-123400000D03*
D11*
X326355000Y-45720000D03*
X321275000Y-45720000D03*
D14*
X306035000Y-130580000D03*
D11*
X306035000Y-132080000D03*
D14*
X300955000Y-130580000D03*
D11*
X300955000Y-132080000D03*
D14*
X326355000Y-130580000D03*
D11*
X326355000Y-132080000D03*
D14*
X321275000Y-130580000D03*
D11*
X321275000Y-132080000D03*
D14*
X316195000Y-130580000D03*
D11*
X316195000Y-132080000D03*
D14*
X311115000Y-130580000D03*
D11*
X311115000Y-132080000D03*
X316195000Y-45720000D03*
X311115000Y-45720000D03*
X306035000Y-45720000D03*
X300955000Y-45720000D03*
D10*
X370840000Y-186690000D03*
X142240000Y-91440000D03*
D17*
X96650000Y-111760000D03*
X96650000Y-113030000D03*
X96650000Y-114300000D03*
X96650000Y-115570000D03*
X101600000Y-115570000D03*
X101600000Y-114300000D03*
X101600000Y-113030000D03*
X101600000Y-111760000D03*
D15*
X111760000Y-111200000D03*
X111760000Y-114300000D03*
D17*
X139700000Y-154940000D03*
X139700000Y-156210000D03*
X139700000Y-157480000D03*
X139700000Y-158750000D03*
X144650000Y-158750000D03*
X144650000Y-157480000D03*
X144650000Y-156210000D03*
X144650000Y-154940000D03*
X208915000Y-111760000D03*
X208915000Y-113030000D03*
X208915000Y-114300000D03*
X208915000Y-115570000D03*
X213865000Y-115570000D03*
X213865000Y-114300000D03*
X213865000Y-113030000D03*
X213865000Y-111760000D03*
D19*
X111835000Y-147320000D03*
X114935000Y-147320000D03*
D20*
X281315000Y-165740000D03*
D21*
X281315000Y-163200000D03*
X283855000Y-165740000D03*
X283855000Y-163200000D03*
X286395000Y-165740000D03*
X286395000Y-163200000D03*
X288935000Y-165740000D03*
X288935000Y-163200000D03*
D20*
X297825000Y-165740000D03*
D21*
X297825000Y-163200000D03*
X300365000Y-165740000D03*
X300365000Y-163200000D03*
X302905000Y-165740000D03*
X302905000Y-163200000D03*
X305445000Y-165740000D03*
X305445000Y-163200000D03*
D20*
X103505000Y-183515000D03*
D21*
X106045000Y-183515000D03*
D11*
X285115000Y-45720000D03*
D12*
X280035000Y-45720000D03*
D22*
X364415000Y-170180000D03*
X370915000Y-170180000D03*
X364415000Y-174680000D03*
X370915000Y-174680000D03*
D20*
X99060000Y-160020000D03*
D21*
X101600000Y-160020000D03*
X99060000Y-162560000D03*
X101600000Y-162560000D03*
X99060000Y-165100000D03*
X101600000Y-165100000D03*
X99060000Y-167640000D03*
X101600000Y-167640000D03*
D13*
X189955000Y-54400000D03*
X189955000Y-123400000D03*
X232955000Y-54400000D03*
X232955000Y-123400000D03*
D11*
X224155000Y-45720000D03*
X219075000Y-45720000D03*
D14*
X203835000Y-130580000D03*
D11*
X203835000Y-132080000D03*
D14*
X198755000Y-130580000D03*
D11*
X198755000Y-132080000D03*
D14*
X224155000Y-130580000D03*
D11*
X224155000Y-132080000D03*
D14*
X219075000Y-130580000D03*
D11*
X219075000Y-132080000D03*
D14*
X213995000Y-130580000D03*
D11*
X213995000Y-132080000D03*
D14*
X208915000Y-130580000D03*
D11*
X208915000Y-132080000D03*
X213995000Y-45720000D03*
X208915000Y-45720000D03*
X203835000Y-45720000D03*
X198755000Y-45720000D03*
D15*
X91440000Y-111200000D03*
X91440000Y-114300000D03*
D10*
X218440000Y-92710000D03*
D19*
X338530000Y-168592500D03*
X341630000Y-168592500D03*
D11*
X86360000Y-167640000D03*
D12*
X86360000Y-162560000D03*
D19*
X338530000Y-158432500D03*
X341630000Y-158432500D03*
D16*
X260057500Y-119380000D03*
X263182500Y-119380000D03*
D15*
X155072500Y-113740000D03*
X155072500Y-116840000D03*
X254000000Y-111200000D03*
X254000000Y-114300000D03*
D20*
X160020000Y-172085000D03*
D21*
X160020000Y-169545000D03*
X162560000Y-172085000D03*
X162560000Y-169545000D03*
D22*
X364415000Y-152400000D03*
X370915000Y-152400000D03*
X364415000Y-156900000D03*
X370915000Y-156900000D03*
X364415000Y-143455000D03*
X370915000Y-143455000D03*
X364415000Y-147955000D03*
X370915000Y-147955000D03*
D15*
X297602500Y-108660000D03*
X297602500Y-111760000D03*
D18*
X332025000Y-168592500D03*
X335000000Y-168592500D03*
D20*
X135890000Y-182245000D03*
D21*
X138430000Y-182245000D03*
X135890000Y-184785000D03*
X138430000Y-184785000D03*
X135890000Y-187325000D03*
X138430000Y-187325000D03*
D18*
X116405000Y-165100000D03*
X119380000Y-165100000D03*
X332025000Y-153352500D03*
X335000000Y-153352500D03*
X332025000Y-158432500D03*
X335000000Y-158432500D03*
D11*
X86360000Y-180340000D03*
D12*
X86360000Y-175260000D03*
D11*
X71120000Y-180340000D03*
D12*
X71120000Y-175260000D03*
D11*
X234315000Y-45720000D03*
D12*
X229235000Y-45720000D03*
D11*
X86360000Y-154940000D03*
D12*
X86360000Y-149860000D03*
D13*
X138855000Y-54400000D03*
X138855000Y-123400000D03*
X181855000Y-54400000D03*
X181855000Y-123400000D03*
D11*
X173055000Y-45720000D03*
X167975000Y-45720000D03*
D14*
X152735000Y-130580000D03*
D11*
X152735000Y-132080000D03*
D14*
X147655000Y-130580000D03*
D11*
X147655000Y-132080000D03*
D14*
X173055000Y-130580000D03*
D11*
X173055000Y-132080000D03*
D14*
X167975000Y-130580000D03*
D11*
X167975000Y-132080000D03*
D14*
X162895000Y-130580000D03*
D11*
X162895000Y-132080000D03*
D14*
X157815000Y-130580000D03*
D11*
X157815000Y-132080000D03*
X162895000Y-45720000D03*
X157815000Y-45720000D03*
X152735000Y-45720000D03*
X147655000Y-45720000D03*
D17*
X302895000Y-109220000D03*
X302895000Y-110490000D03*
X302895000Y-111760000D03*
X302895000Y-113030000D03*
X307845000Y-113030000D03*
X307845000Y-111760000D03*
X307845000Y-110490000D03*
X307845000Y-109220000D03*
D11*
X347980000Y-45720000D03*
D12*
X342900000Y-45720000D03*
D15*
X203200000Y-111200000D03*
X203200000Y-114300000D03*
D10*
X330200000Y-92710000D03*
D19*
X290920000Y-145415000D03*
X294020000Y-145415000D03*
X111835000Y-157480000D03*
X114935000Y-157480000D03*
D23*
X363220000Y-134940000D03*
X363220000Y-47940000D03*
D11*
X345940000Y-119380000D03*
X345940000Y-114300000D03*
D14*
X347440000Y-68580000D03*
D11*
X345940000Y-68580000D03*
D14*
X347440000Y-63500000D03*
D11*
X345940000Y-63500000D03*
D14*
X347440000Y-88900000D03*
D11*
X345940000Y-88900000D03*
D14*
X347440000Y-83820000D03*
D11*
X345940000Y-83820000D03*
D14*
X347440000Y-78740000D03*
D11*
X345940000Y-78740000D03*
D14*
X347440000Y-73660000D03*
D11*
X345940000Y-73660000D03*
X345940000Y-109220000D03*
X345940000Y-104140000D03*
X345940000Y-99060000D03*
X345940000Y-93980000D03*
D20*
X139700000Y-142875000D03*
D21*
X142240000Y-142875000D03*
X139700000Y-145415000D03*
X142240000Y-145415000D03*
X139700000Y-147955000D03*
X142240000Y-147955000D03*
D16*
X207695000Y-119380000D03*
X210820000Y-119380000D03*
D20*
X140985000Y-172725000D03*
D21*
X140985000Y-170185000D03*
X143525000Y-172725000D03*
X143525000Y-170185000D03*
X146065000Y-172725000D03*
X146065000Y-170185000D03*
D20*
X281305000Y-145415000D03*
D21*
X283845000Y-145415000D03*
X286385000Y-145415000D03*
D13*
X87755000Y-54400000D03*
X87755000Y-123400000D03*
X130755000Y-54400000D03*
X130755000Y-123400000D03*
D11*
X121955000Y-45720000D03*
X116875000Y-45720000D03*
D14*
X101635000Y-130580000D03*
D11*
X101635000Y-132080000D03*
D14*
X96555000Y-130580000D03*
D11*
X96555000Y-132080000D03*
D14*
X121955000Y-130580000D03*
D11*
X121955000Y-132080000D03*
D14*
X116875000Y-130580000D03*
D11*
X116875000Y-132080000D03*
D14*
X111795000Y-130580000D03*
D11*
X111795000Y-132080000D03*
D14*
X106715000Y-130580000D03*
D11*
X106715000Y-132080000D03*
X111795000Y-45720000D03*
X106715000Y-45720000D03*
X101635000Y-45720000D03*
X96555000Y-45720000D03*
D10*
X191770000Y-46990000D03*
D19*
X280745000Y-174625000D03*
X283845000Y-174625000D03*
D17*
X259780000Y-111760000D03*
X259780000Y-113030000D03*
X259780000Y-114300000D03*
X259780000Y-115570000D03*
X264730000Y-115570000D03*
X264730000Y-114300000D03*
X264730000Y-113030000D03*
X264730000Y-111760000D03*
D19*
X111835000Y-149740000D03*
X114935000Y-149740000D03*
D15*
X317500000Y-108660000D03*
X317500000Y-111760000D03*
D11*
X55880000Y-172720000D03*
D12*
X55880000Y-167640000D03*
D20*
X299735000Y-142875000D03*
D21*
X302275000Y-142875000D03*
X299735000Y-145415000D03*
X302275000Y-145415000D03*
D19*
X338530000Y-163512500D03*
X341630000Y-163512500D03*
D10*
X293370000Y-46990000D03*
D19*
X110210000Y-165100000D03*
X113310000Y-165100000D03*
X110210000Y-175260000D03*
X113310000Y-175260000D03*
D18*
X116405000Y-170180000D03*
X119380000Y-170180000D03*
D17*
X157480000Y-154940000D03*
X157480000Y-156210000D03*
X157480000Y-157480000D03*
X157480000Y-158750000D03*
X162430000Y-158750000D03*
X162430000Y-157480000D03*
X162430000Y-156210000D03*
X162430000Y-154940000D03*
D19*
X338530000Y-153352500D03*
X341630000Y-153352500D03*
D18*
X288925000Y-174625000D03*
X291900000Y-174625000D03*
D19*
X338530000Y-147637500D03*
X341630000Y-147637500D03*
D18*
X332025000Y-163512500D03*
X335000000Y-163512500D03*
D16*
X139115000Y-162560000D03*
X142240000Y-162560000D03*
D19*
X290920000Y-141605000D03*
X294020000Y-141605000D03*
D18*
X116405000Y-175260000D03*
X119380000Y-175260000D03*
D19*
X111835000Y-152400000D03*
X114935000Y-152400000D03*
D16*
X154940000Y-162560000D03*
X158065000Y-162560000D03*
D19*
X110210000Y-170180000D03*
X113310000Y-170180000D03*
D16*
X321995000Y-116840000D03*
X325120000Y-116840000D03*
D20*
X281320000Y-140970000D03*
D21*
X283860000Y-140970000D03*
X286400000Y-140970000D03*
D20*
X112395000Y-183515000D03*
D21*
X114935000Y-183515000D03*
D10*
X90170000Y-46990000D03*
D24*
X222885000Y-170815000D03*
X263525000Y-170815000D03*
X222885000Y-155575000D03*
X263525000Y-155575000D03*
D25*
X258445000Y-155575000D03*
X233045000Y-155575000D03*
X253365000Y-155575000D03*
X250825000Y-155575000D03*
X248285000Y-155575000D03*
X245745000Y-155575000D03*
X243205000Y-155575000D03*
X240665000Y-155575000D03*
X238125000Y-155575000D03*
X235585000Y-155575000D03*
X255905000Y-155575000D03*
X227965000Y-170815000D03*
X225425000Y-170815000D03*
X235585000Y-170815000D03*
X238125000Y-170815000D03*
X240665000Y-170815000D03*
X243205000Y-170815000D03*
X245745000Y-170815000D03*
X248285000Y-170815000D03*
X250825000Y-170815000D03*
X253365000Y-170815000D03*
X255905000Y-170815000D03*
X258445000Y-170815000D03*
X260985000Y-170815000D03*
X260985000Y-155575000D03*
D26*
X233045000Y-170815000D03*
X227965000Y-155575000D03*
D25*
X230505000Y-170815000D03*
X230505000Y-155575000D03*
X225425000Y-155575000D03*
D20*
X281315000Y-155580000D03*
D21*
X281315000Y-153040000D03*
X283855000Y-155580000D03*
X283855000Y-153040000D03*
X286395000Y-155580000D03*
X286395000Y-153040000D03*
X288935000Y-155580000D03*
X288935000Y-153040000D03*
D11*
X336550000Y-45720000D03*
D12*
X331470000Y-45720000D03*
D15*
X135255000Y-154380000D03*
X135255000Y-157480000D03*
D16*
X95935000Y-119380000D03*
X99060000Y-119380000D03*
D19*
X111835000Y-142240000D03*
X114935000Y-142240000D03*
X111835000Y-144780000D03*
X114935000Y-144780000D03*
D11*
X82550000Y-45720000D03*
D12*
X77470000Y-45720000D03*
D11*
X53340000Y-154940000D03*
D12*
X53340000Y-149860000D03*
D27*
X147340000Y-184150000D03*
D22*
X154940000Y-184150000D03*
D11*
X132080000Y-45720000D03*
D12*
X127000000Y-45720000D03*
D20*
X120015000Y-142240000D03*
D21*
X122555000Y-142240000D03*
X120015000Y-144780000D03*
X122555000Y-144780000D03*
X120015000Y-147320000D03*
X122555000Y-147320000D03*
X120015000Y-149860000D03*
X122555000Y-149860000D03*
X120015000Y-152400000D03*
X122555000Y-152400000D03*
X120015000Y-154940000D03*
X122555000Y-154940000D03*
X120015000Y-157480000D03*
X122555000Y-157480000D03*
D20*
X297825000Y-155580000D03*
D21*
X297825000Y-153040000D03*
X300365000Y-155580000D03*
X300365000Y-153040000D03*
X302905000Y-155580000D03*
X302905000Y-153040000D03*
X305445000Y-155580000D03*
X305445000Y-153040000D03*
D19*
X111835000Y-154940000D03*
X114935000Y-154940000D03*
D23*
X61460000Y-47940000D03*
X61460000Y-134940000D03*
D11*
X78740000Y-63500000D03*
X78740000Y-68580000D03*
D14*
X77240000Y-114300000D03*
D11*
X78740000Y-114300000D03*
D14*
X77240000Y-119380000D03*
D11*
X78740000Y-119380000D03*
D14*
X77240000Y-93980000D03*
D11*
X78740000Y-93980000D03*
D14*
X77240000Y-99060000D03*
D11*
X78740000Y-99060000D03*
D14*
X77240000Y-104140000D03*
D11*
X78740000Y-104140000D03*
D14*
X77240000Y-109220000D03*
D11*
X78740000Y-109220000D03*
X78740000Y-73660000D03*
X78740000Y-78740000D03*
X78740000Y-83820000D03*
X78740000Y-88900000D03*
D20*
X159385000Y-142875000D03*
D21*
X161925000Y-142875000D03*
X159385000Y-145415000D03*
X161925000Y-145415000D03*
X159385000Y-147955000D03*
X161925000Y-147955000D03*
D20*
X99060000Y-142240000D03*
D21*
X101600000Y-142240000D03*
X99060000Y-144780000D03*
X101600000Y-144780000D03*
X99060000Y-147320000D03*
X101600000Y-147320000D03*
X99060000Y-149860000D03*
X101600000Y-149860000D03*
D17*
X160655000Y-114300000D03*
X160655000Y-115570000D03*
X160655000Y-116840000D03*
X160655000Y-118110000D03*
X165605000Y-118110000D03*
X165605000Y-116840000D03*
X165605000Y-115570000D03*
X165605000Y-114300000D03*
X116840000Y-111760000D03*
X116840000Y-113030000D03*
X116840000Y-114300000D03*
X116840000Y-115570000D03*
X121790000Y-115570000D03*
X121790000Y-114300000D03*
X121790000Y-113030000D03*
X121790000Y-111760000D03*
D22*
X364415000Y-161290000D03*
X370915000Y-161290000D03*
X364415000Y-165790000D03*
X370915000Y-165790000D03*
D16*
X116255000Y-119380000D03*
X119380000Y-119380000D03*
D20*
X122555000Y-183515000D03*
D21*
X125095000Y-183515000D03*
D16*
X159435000Y-121920000D03*
X162560000Y-121920000D03*
D11*
X71120000Y-154940000D03*
D12*
X71120000Y-149860000D03*
D28*
X254000000Y-188595000D03*
X252730000Y-140335000D03*
D29*
X240030000Y-188595000D03*
D28*
X201930000Y-183515000D03*
X201930000Y-155575000D03*
X177800000Y-140335000D03*
X171450000Y-188595000D03*
D29*
X232410000Y-188595000D03*
X229870000Y-188595000D03*
X201803000Y-160655000D03*
X173990000Y-140335000D03*
X171450000Y-140335000D03*
X217170000Y-188595000D03*
X214630000Y-188595000D03*
X212090000Y-188595000D03*
X209550000Y-188595000D03*
X207010000Y-188595000D03*
X204470000Y-188595000D03*
X201930000Y-188595000D03*
X199390000Y-188595000D03*
X194310000Y-188595000D03*
X191770000Y-188595000D03*
X189230000Y-188595000D03*
X186690000Y-188595000D03*
X184150000Y-188595000D03*
X181610000Y-188595000D03*
X179070000Y-188595000D03*
X176530000Y-188595000D03*
X244094000Y-140335000D03*
X204470000Y-140335000D03*
X207010000Y-140335000D03*
X209550000Y-140335000D03*
X212090000Y-140335000D03*
X214630000Y-140335000D03*
X217170000Y-140335000D03*
X219710000Y-140335000D03*
X222250000Y-140335000D03*
X226314000Y-140335000D03*
X228854000Y-140335000D03*
X231394000Y-140335000D03*
X233934000Y-140335000D03*
X236474000Y-140335000D03*
X239014000Y-140335000D03*
X199390000Y-140335000D03*
X196850000Y-140335000D03*
X194310000Y-140335000D03*
X191770000Y-140335000D03*
X189230000Y-140335000D03*
X186690000Y-140335000D03*
X184150000Y-140335000D03*
X181610000Y-140335000D03*
X173990000Y-142875000D03*
X171450000Y-142875000D03*
X173990000Y-145415000D03*
X171450000Y-145415000D03*
X173990000Y-147955000D03*
X171450000Y-147955000D03*
X173990000Y-150495000D03*
X171450000Y-150495000D03*
X173990000Y-153035000D03*
X171450000Y-153035000D03*
X173990000Y-155575000D03*
X171450000Y-155575000D03*
X173990000Y-158115000D03*
X171450000Y-158115000D03*
X173990000Y-160655000D03*
X171450000Y-160655000D03*
X173990000Y-163195000D03*
X171450000Y-163195000D03*
X173990000Y-165735000D03*
X171450000Y-165735000D03*
X173990000Y-168275000D03*
X171450000Y-168275000D03*
X173990000Y-170815000D03*
X171450000Y-170815000D03*
X173990000Y-173355000D03*
X171450000Y-173355000D03*
X173990000Y-175895000D03*
X171450000Y-175895000D03*
X173990000Y-178435000D03*
X171450000Y-178435000D03*
X173990000Y-180975000D03*
X171450000Y-180975000D03*
D26*
X241554000Y-140335000D03*
X227330000Y-188595000D03*
X224790000Y-188595000D03*
X201803000Y-165735000D03*
X173990000Y-183515000D03*
X171450000Y-183515000D03*
D29*
X237490000Y-188595000D03*
X204343000Y-160655000D03*
X201803000Y-163195000D03*
X234950000Y-188595000D03*
X204343000Y-165735000D03*
X204343000Y-163195000D03*
X249174000Y-140335000D03*
X246634000Y-140335000D03*
X222250000Y-188595000D03*
M02*
