M48
; DRILL file {KiCad 7.0.1} date Tue Mar 21 23:46:56 2023
; FORMAT={-:-/ absolute / metric / decimal}
; #@! TF.CreationDate,2023-03-21T23:46:56-06:00
; #@! TF.GenerationSoftware,Kicad,Pcbnew,7.0.1
; #@! TF.FileFunction,NonPlated,1,2,NPTH
FMAT,2
METRIC
; #@! TA.AperFunction,NonPlated,NPTH,ComponentDrill
T1C1.800
; #@! TA.AperFunction,NonPlated,NPTH,ComponentDrill
T2C3.200
; #@! TA.AperFunction,NonPlated,NPTH,ComponentDrill
T3C3.500
; #@! TA.AperFunction,NonPlated,NPTH,ComponentDrill
T4C4.300
; #@! TA.AperFunction,NonPlated,NPTH,ComponentDrill
T5C4.500
%
G90
G05
T1
X222.885Y-155.575
X222.885Y-170.815
X263.525Y-155.575
X263.525Y-170.815
T2
X171.45Y-188.595
X177.8Y-140.335
X201.93Y-155.575
X201.93Y-183.515
X252.73Y-140.335
X254.0Y-188.595
T3
X87.755Y-54.4
X87.755Y-123.4
X130.755Y-54.4
X130.755Y-123.4
X138.855Y-54.4
X138.855Y-123.4
X181.855Y-54.4
X181.855Y-123.4
X189.955Y-54.4
X189.955Y-123.4
X232.955Y-54.4
X232.955Y-123.4
X241.055Y-54.4
X241.055Y-123.4
X284.055Y-54.4
X284.055Y-123.4
X292.155Y-54.4
X292.155Y-123.4
X335.155Y-54.4
X335.155Y-123.4
T4
X54.61Y-182.88
X90.17Y-46.99
X142.24Y-91.44
X191.77Y-46.99
X218.44Y-92.71
X293.37Y-46.99
X330.2Y-92.71
X368.3Y-58.42
X370.84Y-186.69
T5
X61.46Y-47.94
X61.46Y-134.94
X363.22Y-47.94
X363.22Y-134.94
T0
M30
